<svg width="2000" height="2000" viewBox="0 0 2000 2000" fill="none" xmlns="http://www.w3.org/2000/svg">
<g clip-path="url(#clip0_46_1036)">
<path d="M1381.19 204.318C1431.54 233.433 1481.42 262.212 1531.27 291.042C1572.92 315.133 1614.52 339.326 1656.18 363.397C1702.86 390.363 1749.59 417.24 1796.29 444.158C1806.77 450.198 1817.39 456.014 1827.69 462.335C1855.22 479.213 1872.1 503.572 1877.83 535.43C1878.62 539.792 1878.48 544.352 1878.48 548.821C1878.51 849.499 1878.6 1150.18 1878.4 1450.85C1878.37 1489.79 1859.35 1518.76 1826.54 1538.16C1769.95 1571.61 1712.84 1604.18 1655.91 1637.05C1595.56 1671.89 1535.15 1706.61 1474.81 1741.47C1419.48 1773.43 1364.24 1805.54 1308.91 1837.51C1262.24 1864.48 1215.49 1891.31 1168.8 1918.26C1129.86 1940.74 1091.17 1963.66 1051.99 1985.73C1020.58 2003.43 987.786 2004.97 955.246 1989.15C937.075 1980.31 919.846 1969.51 902.301 1959.41C865.615 1938.28 828.999 1917.03 792.357 1895.83C739.328 1865.15 686.319 1834.43 633.267 1803.78C580.215 1773.14 527.102 1742.6 474.05 1711.95C425.098 1683.67 376.21 1655.28 327.261 1627C277.856 1598.45 228.482 1569.84 178.941 1541.53C162.449 1532.11 148.09 1520.64 137.739 1504.48C126.968 1487.67 121.146 1469.39 121.129 1449.38C121.083 1396.2 121.098 1343.01 121.098 1289.83C121.096 1044.97 121.164 800.109 121 555.249C120.983 529.17 128.489 506.161 144.791 485.882C154.204 474.173 166.207 465.864 179.063 458.462C225.778 431.564 272.401 404.506 319.083 377.551C362.122 352.7 405.212 327.938 448.243 303.072C489.907 278.996 531.502 254.802 573.166 230.726C616.196 205.86 659.291 181.106 702.324 156.244C747.632 130.067 792.88 103.784 838.193 77.6149C875.993 55.7852 913.418 33.2533 951.811 12.5217C985.005 -5.40197 1019.28 -4.20861 1052.07 14.3491C1102.64 42.9705 1152.77 72.3722 1203.08 101.468C1252.01 129.773 1300.93 158.122 1349.87 186.423C1360.11 192.346 1370.42 198.147 1381.19 204.318ZM539.096 1665.53C544.132 1668.38 549.194 1671.18 554.2 1674.07C610.874 1706.85 667.528 1739.66 724.212 1772.42C763.596 1795.18 803.03 1817.85 842.422 1840.6C889.1 1867.55 935.818 1894.44 982.383 1921.59C994.894 1928.88 1006.78 1928.23 1018.85 1921.04C1026.75 1916.33 1034.7 1911.69 1042.67 1907.09C1089.37 1880.17 1136.1 1853.3 1182.77 1826.34C1228.08 1800.17 1273.31 1773.86 1318.61 1747.68C1368.01 1719.13 1417.47 1690.69 1466.87 1662.14C1519.46 1631.75 1572 1601.28 1624.58 1570.88C1679.21 1539.3 1733.81 1507.66 1788.55 1476.27C1799.28 1470.12 1805.2 1461.32 1806.59 1449.26C1806.92 1446.4 1806.78 1443.48 1806.78 1440.58C1806.79 1146.77 1806.79 852.958 1806.79 559.144C1806.79 557.301 1806.87 555.454 1806.77 553.616C1806.06 540.617 1800.68 530.619 1789 524.001C1765.66 510.785 1742.54 497.194 1719.31 483.783C1653.74 445.918 1588.14 408.085 1522.57 370.204C1462.01 335.216 1401.48 300.184 1340.93 265.169C1304.28 243.977 1267.65 222.761 1230.99 201.593C1195.47 181.082 1159.91 160.649 1124.39 140.124C1089.11 119.731 1053.83 99.3179 1018.62 78.8007C1006.7 71.857 994.972 71.1043 982.825 78.2265C964.907 88.7327 946.842 98.988 928.851 109.37C893.097 130.003 857.347 150.643 821.604 171.294C789.503 189.839 757.417 208.411 725.316 226.956C688.888 248 652.445 269.018 616.019 290.064C580.731 310.452 545.459 330.869 510.174 351.262C474.433 371.918 438.685 392.56 402.941 413.211C370.841 431.757 338.75 450.32 306.643 468.853C274.534 487.387 242.417 505.906 210.287 524.402C203.16 528.505 197.712 534.179 195.513 542.121C194.206 546.842 193.841 551.951 193.838 556.886C193.753 690.102 193.769 823.319 193.769 956.535C193.77 1119.24 193.832 1281.94 193.667 1444.64C193.652 1459.38 199.464 1469.82 212.298 1476.75C219.93 1480.87 227.372 1485.34 234.883 1489.68C271.528 1510.88 308.154 1532.1 344.812 1553.27C380.332 1573.79 415.896 1594.22 451.418 1614.73C480.335 1631.43 509.219 1648.19 539.096 1665.53Z" fill="#3D745A"/>
<path d="M977.239 1027.85C977.147 1030.51 977.055 1033.16 976.694 1037.04C976.247 1047.45 976.068 1056.65 975.888 1065.84C975.753 1066.48 975.618 1067.12 975.089 1068.76C973.572 1084.48 971.186 1099.15 971.863 1114.19C977.629 1114.03 977.16 1110.26 977.692 1107.41C981.411 1087.51 984.936 1067.57 988.742 1047.69C1002.04 978.218 1015.41 908.761 1028.78 839.306C1036.99 796.704 1045.25 754.114 1053.48 711.518C1054.82 704.611 1055.07 704.303 1062.17 704.296C1097.15 704.264 1132.12 704.275 1167.09 704.309C1168.84 704.311 1170.58 704.674 1173.04 704.947C1172.53 707.705 1172.25 709.98 1171.69 712.185C1169.36 721.362 1166.94 730.515 1164.58 739.683C1152.76 785.528 1141.01 831.388 1129.13 877.216C1114.62 933.223 1100.02 989.208 1085.43 1045.19C1073.56 1090.75 1061.6 1136.29 1049.77 1181.86C1041.57 1213.42 1033.59 1245.04 1025.39 1276.61C1022.55 1287.55 1019.36 1298.39 1016.32 1309.28C975.211 1309.33 934.101 1309.37 891.849 1308.92C890.528 1305.89 890.067 1303.34 890.217 1300.83C890.907 1289.19 891.768 1277.57 892.567 1265.94C892.663 1265.29 892.759 1264.64 893.16 1262.97C895.051 1244.66 896.681 1227.39 898.212 1210.11C903.317 1152.5 908.339 1094.88 913.497 1037.28C915.044 1020 916.806 1002.74 918.701 985.497C919.993 973.744 921.679 962.034 923.211 950.307C923.478 948.271 923.458 946.526 919.714 946.67C919.143 949.127 918.413 951.811 917.902 954.536C915.19 969.006 913.168 983.64 909.734 997.934C900.828 1035 891.266 1071.91 882.047 1108.9C868.247 1164.27 854.549 1219.66 840.731 1275.03C837.868 1286.5 834.67 1297.89 831.627 1309.31C789.987 1309.34 748.347 1309.36 705.847 1308.58C707.316 1266.81 709.597 1225.84 711.993 1184.87C713.929 1151.78 716.018 1118.7 718.012 1085.62C719.216 1065.66 720.47 1045.71 721.489 1025.74C721.833 1019.01 721.523 1012.24 721.511 1005.49C721.58 1004.92 721.648 1004.34 722.127 1002.95C724.372 973.561 726.216 944.985 728.039 916.407C729.41 894.899 730.884 873.396 732.058 851.877C732.658 840.873 732.697 829.838 732.991 818.818C733.144 818.186 733.297 817.554 733.749 815.878C735.743 786.634 737.378 758.431 739.17 730.238C739.732 721.389 740.717 712.567 741.508 703.733C779.986 703.697 818.463 703.661 858.035 704.264C859.135 705.95 859.256 707.013 859.132 708.046C852.298 764.958 845.427 821.866 838.617 878.781C837.839 885.276 837.391 891.812 836.791 898.328C836.722 898.983 836.653 899.638 836.28 901.318C833.121 925.85 830.279 949.358 827.411 972.864C824.543 996.369 821.347 1019.84 818.854 1043.38C816.376 1066.79 812.714 1090.08 811.626 1114C813.729 1113.54 815.469 1112.88 816.125 1111.64C817.082 1109.84 817.254 1107.62 817.772 1105.58C828.242 1064.29 838.437 1022.93 849.256 981.741C862.882 929.86 877.008 878.11 890.939 826.308C899.409 794.816 907.975 763.349 916.372 731.838C918.728 723 920.64 714.044 922.756 705.142C922.756 705.142 922.915 705.09 923.63 704.887C945.098 704.553 965.85 704.408 986.602 704.326C988.152 704.319 989.703 704.759 991.254 704.991C991.271 706.278 991.288 707.564 991.015 710.035C990.436 721.45 990.147 731.68 989.859 741.911C989.767 743.544 989.676 745.177 989.324 747.989C988.805 754.586 988.394 760 988.327 765.419C988.254 771.305 988.501 777.195 988.609 783.084C988.515 783.723 988.421 784.363 987.941 785.998C986.61 805.789 985.547 824.58 984.761 843.382C984.193 856.955 983.993 870.542 983.629 884.123C983.505 886.253 983.38 888.384 982.994 891.721C982.539 896.793 982.208 900.657 982.18 904.524C982.13 911.439 982.262 918.355 982.318 925.271C982.184 926.877 982.05 928.483 981.5 931.214C980.65 940.426 980.111 948.51 979.803 956.603C978.899 980.351 978.087 1004.1 977.239 1027.85Z" fill="#FCFCFC"/>
<path d="M431.514 1122.23C431.702 1114.88 431.89 1107.52 432.263 1098.86C433.535 1066.16 434.586 1034.76 435.721 1003.37C436.364 985.59 437.143 967.818 437.861 950.043C438.036 948.402 438.211 946.761 438.593 943.934C438.967 939.078 439.077 935.404 439.309 931.738C439.803 923.89 440.493 916.051 440.761 908.196C440.805 906.909 439.109 905.563 438.217 904.244C437.35 905.369 436.366 906.428 435.664 907.648C435.305 908.272 435.457 909.187 435.369 909.969C433.428 927.176 431.461 944.379 429.585 961.592C429.424 963.066 429.869 964.606 430.032 966.116C429.744 966.563 429.614 967.052 429.309 968.386C427.024 985.872 425.052 1002.55 423.166 1019.25C423.029 1020.46 423.51 1021.74 423.704 1022.99C423.414 1023.43 423.284 1023.92 422.975 1025.24C422.342 1027.32 421.959 1028.59 421.768 1029.88C417.059 1061.88 412.583 1093.91 407.633 1125.87C398.173 1186.94 388.445 1247.97 378.828 1309.01C369.391 1309.14 359.954 1309.37 350.516 1309.39C328.739 1309.44 306.961 1309.39 284.207 1308.7C286.037 1289.06 288.73 1270.08 291.676 1251.15C296.925 1217.42 302.335 1183.72 307.662 1150C310.776 1130.29 313.948 1110.59 316.923 1090.85C318.917 1077.63 320.611 1064.36 322.439 1051.11C322.647 1050.46 322.855 1049.82 323.345 1048.15C327.559 1021.98 331.446 996.829 335.435 971.69C340.74 938.257 346.175 904.845 351.457 871.408C354.609 851.45 357.526 831.454 360.633 811.489C364.589 786.076 368.55 760.664 372.672 735.277C374.391 724.691 376.529 714.172 378.477 703.622C417.995 703.619 457.512 703.617 498.193 704.014C499.497 705.18 499.771 705.95 499.757 706.714C498.758 760.353 497.721 813.992 496.724 867.631C496.377 886.303 496.099 904.976 495.843 923.65C495.735 931.503 495.766 939.359 495.734 947.213C495.63 951.45 495.527 955.686 495.233 961.198C493.993 979.673 492.956 996.873 491.891 1014.07C491.087 1027.07 490.248 1040.06 489.424 1053.06C489.337 1053.74 489.25 1054.42 488.947 1056.14C488.731 1061.24 488.731 1065.31 488.731 1069.38C492.487 1069.87 493.256 1067.87 493.776 1065.34C495.206 1058.39 496.685 1051.45 498.265 1044.53C504.111 1018.93 509.123 993.09 516.085 967.794C526.749 929.048 538.833 890.695 550.198 852.141C564.311 804.264 578.296 756.35 592.388 708.467C592.892 706.755 593.947 705.204 594.745 703.578C634.263 703.593 673.781 703.608 714.367 704.251C715.285 706.442 715.218 708.018 714.977 709.567C707.502 757.614 699.981 805.653 692.544 853.706C690.984 863.789 689.724 873.917 688.326 884.024C687.974 886.486 687.623 888.947 686.797 892.42C684.16 906.912 681.984 920.391 679.838 933.874C674.472 967.591 669.081 1001.3 663.769 1035.03C654.452 1094.18 645.151 1153.34 635.926 1212.5C633.786 1226.23 631.981 1240.01 630.022 1253.77C629.903 1254.42 629.783 1255.07 629.353 1256.73C627.691 1265.49 626.137 1273.23 625.045 1281.02C623.887 1289.29 623.168 1297.63 622.258 1305.93C621.309 1309.78 618.241 1309.4 615.364 1309.4C604.644 1309.41 593.924 1309.4 583.204 1309.41C564.901 1309.41 546.599 1309.41 527.114 1308.82C525.939 1306.12 525.676 1303.99 525.994 1301.95C531.062 1269.5 536.191 1237.05 541.334 1204.6C546.683 1170.86 552.048 1137.12 557.433 1103.38C560.415 1084.69 562.901 1065.91 566.572 1047.36C575.655 1001.47 585.302 955.701 594.663 909.87C594.996 908.242 594.705 906.487 594.705 903.628C592.585 904.854 590.82 905.256 590.392 906.241C589.142 909.115 588.319 912.194 587.516 915.243C578.277 950.328 569.323 985.491 559.779 1020.49C552.312 1047.88 544.073 1075.06 536.295 1102.36C534.232 1109.6 532.602 1116.97 530.773 1124.28C529.821 1127.22 528.87 1130.17 527.401 1134.01C526.528 1135.89 526.128 1136.87 525.825 1137.87C510.843 1187.31 495.846 1236.75 480.919 1286.22C478.806 1293.22 477.034 1300.32 475.105 1307.38C472.458 1308.05 469.821 1309.26 467.163 1309.31C455.444 1309.52 443.72 1309.4 430.972 1308.65C430.118 1295.34 430.33 1282.77 430.453 1270.19C430.874 1227.16 431.276 1184.13 431.649 1141.1C431.704 1134.81 431.564 1128.52 431.514 1122.23Z" fill="#FCFCFC"/>
<path d="M1418.49 846.863C1421.91 823.301 1424.74 800.298 1431.98 778.248C1440.09 753.579 1452.91 731.892 1473.93 715.786C1487.54 705.356 1502.95 698.711 1519.53 695.218C1549.21 688.966 1579.12 688.538 1608.82 694.967C1632.05 699.995 1651.89 711.343 1667.57 729.505C1680.64 744.65 1688.22 762.37 1691.34 781.952C1694.85 803.991 1693.57 825.939 1689.68 847.898C1685.6 870.932 1682.39 894.119 1678.68 917.221C1677.73 923.11 1676.36 928.931 1675.18 934.779C1636.76 934.779 1599.03 934.779 1560.42 934.779C1561.91 924.575 1563.24 915.015 1564.72 905.479C1567.77 885.761 1570.95 866.062 1574 846.343C1575.77 834.931 1577.57 823.518 1579.04 812.065C1580.64 799.592 1574.82 791.643 1563.31 789.985C1551.01 788.215 1542.15 794.522 1540.17 806.852C1535.22 837.732 1530.47 868.645 1525.56 899.53C1521.67 923.929 1517.58 948.295 1513.71 972.697C1510.67 991.911 1507.94 1011.17 1504.89 1030.39C1500.15 1060.24 1495.16 1090.05 1490.44 1119.91C1486.79 1143.01 1483.39 1166.16 1479.85 1189.29C1479.37 1192.4 1478.74 1195.5 1478.07 1198.58C1476 1208.12 1481.43 1220.34 1492.08 1222.54C1504.67 1225.13 1514.85 1220.23 1518.27 1208.57C1519.81 1203.31 1520.5 1197.79 1521.35 1192.35C1525.86 1163.55 1530.24 1134.73 1534.77 1105.93C1538.2 1084.14 1541.84 1062.39 1545.22 1040.6C1545.81 1036.74 1547.42 1034.89 1551.36 1035.24C1552.67 1035.35 1553.99 1035.25 1555.31 1035.25C1587.93 1035.25 1620.56 1035.25 1653.18 1035.25C1655.76 1035.25 1658.34 1035.25 1662.21 1035.25C1661.06 1043.23 1660.13 1050.39 1658.98 1057.5C1655.12 1081.37 1651.18 1105.23 1647.27 1129.09C1644.21 1147.76 1641.31 1166.47 1638.01 1185.1C1635.76 1197.76 1633.39 1210.44 1630.28 1222.91C1624.27 1247.01 1613.81 1268.96 1596.25 1286.94C1578.12 1305.52 1555.5 1315.46 1530.23 1319.47C1503.28 1323.74 1476.19 1324.28 1449.42 1318.28C1416.67 1310.93 1391.37 1293.07 1375.73 1262.84C1370.14 1252.05 1366.89 1240.38 1365.07 1228.34C1362.19 1209.19 1363.04 1190.16 1366.26 1171.09C1369.63 1151.15 1372.25 1131.09 1375.46 1111.12C1378.49 1092.21 1381.99 1073.37 1385.05 1054.46C1388.2 1035.01 1390.99 1015.5 1394.07 996.041C1397.07 977.108 1400.27 958.206 1403.35 939.285C1406.51 919.844 1409.6 900.393 1412.77 880.953C1414.58 869.811 1416.48 858.683 1418.49 846.863Z" fill="#FCFCFC"/>
<path d="M590.041 665.597C518.485 665.504 447.719 665.414 376.953 665.272C376.285 665.27 375.619 664.566 374.31 663.829C381.056 622.192 387.825 580.423 394.635 538.393C835.629 538.393 1275.69 538.393 1716.62 538.393C1716.62 540.601 1716.88 542.617 1716.58 544.546C1712.47 570.971 1708.32 597.389 1704.11 623.797C1702.13 636.218 1699.92 648.603 1697.97 661.029C1697.46 664.279 1695.78 665.584 1692.7 665.573C1690.07 665.564 1687.43 665.597 1684.8 665.597C1320.15 665.598 955.488 665.598 590.041 665.597ZM1063.29 569.943C1063.37 569.265 1063.44 568.587 1064.16 567.403C1063.4 566.717 1062.64 566.031 1060.81 565.131C1058.02 564.768 1056.77 566.087 1055.76 569.444C1055.42 572.678 1055.08 575.911 1054.43 580.119C1054.33 580.794 1054.23 581.469 1053.25 582.891C1053.2 584.797 1053.14 586.704 1052.8 589.814C1052.64 591.872 1052.48 593.931 1051.14 596.37C1049.93 596.41 1048.72 596.449 1047.66 595.082C1047 585.347 1046.34 575.611 1045.65 565.381C1042.99 565.381 1040.75 565.381 1037.45 565.461C1037.06 567.39 1036.68 569.319 1035.84 572.52C1034.32 583.304 1032.81 594.087 1030.43 605.547C1030.3 607.279 1030.16 609.011 1029.57 612.024C1028.29 620.467 1027.01 628.91 1025.58 638.323C1028.72 638.129 1030.85 637.998 1033.1 637.86C1033.8 633.518 1034.38 629.921 1035.56 625.889C1035.46 624.996 1035.35 624.104 1035.53 622.261C1035.6 621.276 1035.67 620.29 1036.64 618.54C1036.93 615.84 1037.21 613.14 1037.87 609.307C1038.02 608.127 1038.18 606.946 1039.53 605.59C1040.33 605.623 1041.13 605.657 1041.84 606.765C1042.01 607.462 1042.18 608.159 1041.9 610.259C1041.94 614.584 1041.76 618.926 1042.11 623.225C1042.26 625.038 1043.52 626.76 1044.19 629.667C1044.27 631.192 1044.36 632.717 1043.93 635.064C1043.74 637.663 1045.13 638.82 1047.55 638.788C1049.71 638.759 1052.4 639.403 1053.16 634.805C1053.46 631.992 1053.77 629.18 1054.61 625.887C1054.51 624.989 1054.41 624.09 1054.55 622.434C1054.63 621.911 1054.72 621.388 1055.76 620.129C1056.62 613.737 1057.47 607.345 1058.62 599.672C1059.43 593.552 1060.24 587.431 1062 580.595C1062.32 577.369 1062.64 574.144 1063.29 569.943ZM458.497 614.951C459.058 613.865 459.912 612.831 460.119 611.682C460.524 609.422 461.587 608.47 463.672 610.258C462.294 618.229 460.777 626.18 459.68 634.19C459.506 635.465 461.284 638.21 462.049 638.169C463.826 638.076 465.896 637.04 467.15 635.722C468.051 634.775 467.849 632.759 468.1 631.214C470.033 619.322 472.064 607.445 473.849 595.531C475.315 585.745 476.486 575.915 477.866 565.508C474.059 565.508 470.825 565.508 467.402 565.508C463.592 578.416 459.902 590.918 455.155 603.071C454.435 602.913 453.714 602.756 453.014 601.129C453.08 595.081 453.331 589.027 453.16 582.985C452.992 577.084 454.488 571.035 452.224 565.267C449.275 565.267 446.707 565.267 444.27 565.267C440.181 576.256 431.884 631.329 433.254 637.881C439.564 638.511 439.842 638.409 440.669 633.243C441.579 627.553 442.232 621.822 443.143 616.132C443.4 614.527 444.169 613.004 444.703 611.444C445.254 611.489 445.805 611.534 446.356 611.579C446.513 614.269 446.768 616.957 446.808 619.648C446.886 624.906 446.73 630.17 446.956 635.419C446.997 636.389 448.284 637.931 449.17 638.067C450.078 638.206 451.929 637.103 452.113 636.268C453.499 629.98 457.806 624.274 456.82 617.014C457.07 616.53 457.319 616.045 458.497 614.951ZM721.342 631.563C721.576 630.078 721.81 628.592 722.828 626.507C722.898 625.301 722.968 624.095 723.421 621.587C726.218 602.946 729.015 584.306 731.912 565C728.641 565.21 726.658 565.338 723.797 565.521C722.137 577.367 720.516 588.935 718.018 600.599C717.154 600.545 716.29 600.491 715.294 599.13C715.146 595.58 714.998 592.029 715.481 587.71C715.2 585.862 714.918 584.014 714.708 580.784C714.232 575.677 713.756 570.571 713.272 565.375C709.974 565.375 707.732 565.375 705.67 565.375C702.371 572.991 693.708 631.038 694.759 637.992C699.148 639.696 700.952 637.42 702.278 632.954C702.261 631.812 702.244 630.67 702.403 628.393C702.531 626.869 702.658 625.344 703.64 623.296C703.793 622.106 703.946 620.916 704.47 618.466C704.938 614.983 705.405 611.5 706.777 607.759C707.683 607.83 708.589 607.902 709.479 608.839C709.55 609.411 709.621 609.982 709.055 611.334C708.581 613.72 708.263 616.06 710.957 618.94C711.172 625.124 711.387 631.308 711.648 638.795C715.353 637.879 717.93 637.242 721.147 636.141C721.159 634.989 721.172 633.837 721.342 631.563ZM1341.04 615.398C1341.71 615.372 1342.38 615.345 1343.19 616.67C1342.51 623.883 1341.83 631.095 1341.52 639.118C1343.44 640.98 1345.09 640.824 1347.28 637.474C1348.12 632.61 1349 627.753 1349.81 622.882C1352.67 605.59 1355.51 588.295 1358.31 570.993C1358.59 569.295 1358.5 567.537 1358.6 565.347C1355.01 565.347 1351.98 565.347 1348.29 565.347C1345.32 575.737 1342.38 586.013 1339.46 596.293C1338.72 598.906 1338.46 601.809 1334.83 603.533C1334.49 590.404 1335.46 577.878 1334.84 565.298C1331.02 565.298 1328.21 565.298 1324.48 565.298C1320.45 589.573 1316.27 613.582 1313.63 637.881C1320.46 638.441 1321.31 637.927 1322.15 632.473C1323.06 626.52 1323.67 620.52 1324.64 614.577C1324.88 613.128 1325.99 611.823 1326.7 610.451C1329.56 619.849 1327.42 629.204 1329.26 638.159C1333.79 637.995 1334.06 635.087 1334.81 632.673C1336.59 626.926 1338.3 621.154 1341.04 615.398ZM778.177 576.916C777.401 580.498 776.714 584.102 775.822 587.655C774.995 590.95 774.506 594.513 772.847 597.363C771.139 600.296 773.174 604.761 768.592 607.096C768.972 592.794 771.529 579.23 771.413 565.38C768.315 565.38 766.069 565.38 763.984 565.38C761.802 571.386 757.501 630.096 758.578 637.451C767.629 639.868 768.282 639.563 770.524 630.989C772.51 623.39 774.285 615.736 776.294 608.143C776.719 606.538 777.757 605.096 779.229 602.14C781.552 615.099 778.216 626.389 778.574 637.445C788.393 639.613 788.649 639.389 790.758 631.293C796.039 611.024 801.447 590.787 806.704 570.512C807.117 568.917 806.758 567.12 806.758 565.469C798.255 564.827 798.33 564.844 796.735 572.075C794.989 579.997 793.068 587.88 791.26 595.788C790.613 598.619 790.076 601.476 789.489 604.32C788.738 604.233 787.988 604.146 787.238 604.059C787.762 591.308 788.287 578.558 788.795 566.224C784.164 563.904 781.814 565.373 780.477 568.88C779.638 571.081 779.091 573.393 778.177 576.916ZM1465.07 613.229C1463.93 621.227 1462.8 629.226 1461.55 638.06C1464.15 638.188 1466.3 638.294 1468.98 638.427C1470.15 632.163 1470.62 626.344 1472.43 620.974C1474.16 615.828 1471.88 609.606 1476.92 603.925C1478.15 616.178 1479.23 627.033 1480.29 637.685C1488.83 639.008 1489.11 638.815 1489.99 631.449C1490.24 629.359 1490.39 627.253 1490.72 625.177C1493.84 605.783 1496.99 586.395 1500.09 566.998C1500.15 566.6 1499.64 566.11 1499.23 565.353C1497.4 565.353 1495.41 565.353 1492.67 565.353C1491.68 571.248 1491.44 577.139 1489.59 582.467C1487.79 587.632 1490.14 593.834 1484.62 599.963C1483.49 587.296 1482.52 576.312 1481.55 565.481C1473.07 564.897 1472.44 565.5 1471.42 572.28C1469.43 585.486 1467.25 598.664 1465.07 613.229ZM575.114 606.255C575.618 609.032 576.388 611.792 576.576 614.59C577.097 622.371 577.376 630.167 577.758 638.101C581.189 638.101 583.679 638.101 586.035 638.101C591.278 616.751 598.588 567.803 596.383 565.092C594.686 565.226 592.535 565.395 590.648 565.543C587.637 576.773 587.671 587.816 583.38 598.117C579.088 587.58 582.295 576.175 579.642 565.348C576.742 565.348 574.202 565.348 571.031 565.348C566.901 589.522 563.124 613.436 559.676 637.365C566.976 638.686 567.263 638.694 567.957 635.055C569.04 629.386 569.68 623.632 570.77 617.965C571.55 613.91 572.76 609.939 575.114 606.255ZM1254.76 637.881C1261.88 638.64 1262.66 637.955 1263.74 630.89C1266.39 613.555 1269.16 596.238 1271.8 578.902C1272.45 574.591 1272.79 570.232 1273.32 565.422C1270.17 565.422 1267.7 565.422 1264.91 565.422C1263.08 575.218 1261.32 584.633 1259.45 594.609C1256.52 594.425 1254.34 594.289 1251.34 594.102C1252.91 584.196 1254.35 575.069 1255.78 565.993C1247.59 564.628 1246.47 565.097 1245.57 570.213C1244.03 578.97 1242.5 587.733 1241.2 596.528C1239.21 609.941 1237.42 623.384 1235.54 636.834C1242.67 640.006 1244.14 639.201 1245.22 632.089C1246.45 624.068 1247.93 616.085 1249.36 608.096C1250.35 602.565 1251 602.301 1257.95 604.674C1257.66 607.357 1257.39 610.179 1257.03 612.99C1256.01 620.986 1254.95 628.978 1254.76 637.881ZM1566.29 589.592C1564.42 595.065 1564.42 595.065 1557.53 593.356C1558.8 584.281 1560.08 575.118 1561.36 566.014C1552.7 564.652 1552.36 565.074 1551.35 572.177C1549.7 583.822 1547.72 595.422 1545.9 607.044C1544.33 617.059 1542.79 627.079 1541.25 637.026C1549.29 639.738 1550.05 639.348 1551.29 631.809C1552.57 624.061 1553.66 616.282 1555 608.546C1556 602.765 1557.39 602.2 1564.44 604.95C1563.49 610.113 1562.4 615.434 1561.56 620.792C1560.68 626.358 1560.03 631.96 1559.3 637.487C1567.59 638.914 1568.8 637.902 1569.9 630.632C1571.77 618.209 1573.92 605.827 1575.75 593.398C1577.1 584.194 1578.13 574.942 1579.4 564.974C1575.97 565.128 1573.49 565.239 1570.73 565.364C1569.33 573.417 1568.03 580.865 1566.29 589.592ZM522.601 614.904C522.277 618.302 522.099 621.721 521.6 625.093C520.458 632.811 523.354 637.554 530.438 639.242C538.648 641.2 545.356 637.764 547.187 630.411C548.134 626.606 548.641 622.687 549.281 618.808C551.2 607.179 553.107 595.547 554.978 583.91C555.953 577.843 556.845 571.763 557.811 565.443C554.096 565.443 551.374 565.443 548.759 565.443C546.867 576.843 545 587.645 543.3 598.473C541.879 607.526 540.571 616.598 539.384 625.685C538.962 628.915 537.289 630.489 534.224 630.31C531.025 630.124 530.607 627.583 530.885 625.129C531.387 620.708 532.138 616.313 532.853 611.918C534.703 600.542 536.675 589.184 538.416 577.791C539.033 573.752 539.124 569.633 539.468 565.396C536.285 565.396 534.031 565.396 531.169 565.396C530.324 569.761 529.463 573.821 528.76 577.909C526.72 589.772 524.742 601.646 522.601 614.904ZM487.647 584.643C485.725 597.595 483.958 610.573 481.829 623.492C480.354 632.436 483.443 638.194 491.09 639.611C499.673 641.201 506.151 636.916 507.702 628.316C509.794 616.715 511.79 605.094 513.584 593.443C514.539 587.238 515.056 580.96 515.633 574.701C516.013 570.574 513.785 567.622 510.567 565.509C502.406 560.15 490.878 565.204 489.223 574.81C488.734 577.649 488.488 580.53 487.647 584.643ZM1456.79 570.577C1454 564.014 1448.38 563.168 1442.36 563.83C1436.5 564.473 1432.72 568.044 1431.72 573.838C1429.44 586.972 1427.37 600.144 1425.35 613.322C1424.56 618.481 1423.72 623.69 1423.65 628.887C1423.58 634.707 1426.72 638.022 1432.36 639.4C1441.54 641.64 1448.52 636.984 1450.06 627.574C1452.09 615.184 1454.29 602.817 1456.03 590.387C1456.89 584.229 1456.9 577.95 1456.79 570.577ZM1163.5 580.574C1163.5 582.866 1163.5 585.159 1163.5 587.349C1170.71 588.628 1172.14 587.817 1173.21 581.936C1173.54 580.14 1173.58 578.277 1173.59 576.443C1173.66 569.507 1170.43 565.135 1164.32 563.79C1157.39 562.265 1151.33 564.89 1148.79 571.105C1144.37 581.875 1145.15 592.396 1152.64 601.488C1159.32 609.599 1158.13 618.477 1156.47 627.488C1156.22 628.84 1153.62 630.457 1151.93 630.683C1149.36 631.027 1148.43 628.773 1148.55 626.443C1148.72 623.309 1149.08 620.183 1149.4 617.059C1149.6 615.069 1149.89 613.088 1150.12 611.185C1142.05 609.183 1141.58 609.466 1140.57 615.974C1140.14 618.817 1139.61 621.648 1139.05 624.47C1137.83 630.648 1140.72 636.634 1145.99 638.725C1152.68 641.381 1161.55 639.157 1163.81 633.192C1167.53 623.328 1170.28 613.089 1164.2 602.929C1162.18 599.562 1160.2 596.175 1158.23 592.779C1155.19 587.521 1154.01 581.971 1156.67 576.281C1157.4 574.707 1159.25 573.194 1160.9 572.721C1161.62 572.514 1163.34 574.865 1164.15 576.31C1164.53 577.003 1163.85 578.293 1163.5 580.574ZM1112.5 567.047C1104.48 581.198 1105.65 589.281 1113.82 601.278C1119.27 609.291 1120.71 617.444 1117.75 626.65C1116.79 629.658 1115.43 631.452 1112.27 630.781C1109.29 630.145 1109.13 627.654 1109.44 625.141C1109.95 620.982 1110.52 616.83 1110.95 612.663C1111.02 611.982 1110.48 611.239 1110.01 609.924C1107.82 610.107 1105.64 610.291 1102.61 610.546C1101.81 616.414 1100.68 621.788 1100.45 627.201C1100.14 634.565 1102.7 637.658 1109.15 639.155C1116.88 640.95 1123.39 638.629 1125.64 632.24C1129.38 621.639 1131.1 610.867 1124.31 600.566C1122.58 597.941 1121.13 595.136 1119.4 592.509C1115.89 587.178 1116.91 581.329 1117.75 575.671C1117.94 574.379 1120.65 572.707 1122.31 572.561C1124.82 572.339 1125.74 574.619 1125.57 576.956C1125.44 578.774 1124.89 580.561 1124.73 582.379C1124.58 584.097 1124.7 585.838 1124.7 587.496C1133.38 588.934 1133.9 588.567 1134.4 580.867C1134.52 579.03 1134.57 577.184 1134.54 575.343C1134.43 567.459 1130.96 563.596 1123.06 563.636C1119.83 563.652 1116.61 565.3 1112.5 567.047ZM1521.77 619.152C1521.61 621.249 1521.62 623.379 1521.24 625.437C1520.57 629.091 1518.03 631.5 1515.66 630.754C1512.72 629.826 1512.88 627.245 1513.05 624.866C1513.4 620.241 1513.87 615.626 1514.28 611.084C1506.49 609.25 1505.78 609.664 1504.77 615.947C1504.4 618.263 1503.8 620.543 1503.32 622.842C1501.54 631.307 1505.72 638.136 1513.48 639.456C1522.47 640.986 1528.09 636.933 1529.62 627.817C1529.8 626.782 1529.71 625.649 1530.1 624.713C1534.26 614.851 1530.91 606.255 1525.77 597.903C1523.99 595.009 1522.25 592.071 1520.74 589.029C1518.45 584.397 1519.73 579.692 1521.33 575.251C1521.77 574.016 1524.01 572.974 1525.55 572.79C1526.23 572.708 1527.82 574.896 1527.92 576.145C1528.19 579.265 1527.79 582.437 1527.79 585.589C1527.79 586.306 1528.29 587.025 1528.77 588.296C1530.91 588.174 1533.1 588.049 1535.18 587.931C1536.13 584.777 1537.11 582.311 1537.61 579.753C1538.63 574.556 1537.92 569.548 1533.58 566.103C1529.05 562.511 1523.82 562.776 1518.63 564.859C1513.53 566.904 1512.02 571.497 1511.28 576.199C1509.91 585.008 1510.7 593.443 1516.45 600.922C1520.2 605.805 1522.67 611.304 1521.77 619.152ZM1199.04 618.732C1198.56 621.299 1197.76 623.853 1197.66 626.435C1197.36 634.074 1201.17 638.706 1208.17 639.671C1215.44 640.671 1222.01 637.081 1223.49 630.468C1225.06 623.397 1225.8 616.139 1227.02 608.253C1223.59 608.253 1221.18 608.253 1218.63 608.253C1218.19 609.973 1217.79 611.208 1217.58 612.476C1216.8 617.115 1215.94 621.748 1215.4 626.417C1215.06 629.34 1213.41 630.728 1210.83 630.823C1207.72 630.938 1206.89 628.677 1207.05 626.036C1207.22 623.16 1207.45 620.276 1207.88 617.431C1209.1 609.416 1210.45 601.42 1211.73 593.415C1212.6 587.991 1213.13 582.484 1214.48 577.182C1214.93 575.384 1217.32 572.976 1219 572.824C1222.29 572.527 1222 575.711 1221.92 578.028C1221.8 581.923 1221.53 585.812 1221.32 589.64C1228.78 591.176 1229.16 590.965 1230.35 585.127C1230.77 583.077 1231.37 581.062 1231.73 579.004C1233.09 571.08 1229.12 564.961 1221.88 563.75C1213.4 562.33 1207.14 566.545 1205.75 574.706C1205.31 577.288 1205.21 579.926 1204.79 582.515C1202.95 594.125 1201.05 605.727 1199.04 618.732ZM872.961 567.016C861.243 559.575 850.94 564.431 849.154 577.932C847.859 587.715 850.494 596.365 856.542 603.686C862.863 611.336 860.252 619.535 859.166 627.655C858.996 628.931 856.032 630.766 854.495 630.644C853.177 630.539 851.09 628.032 851.04 626.532C850.93 623.188 851.926 619.816 852.38 616.443C852.612 614.717 852.646 612.965 852.762 611.337C844.891 609.121 843.632 609.867 842.855 616.608C842.555 619.207 842.169 621.799 841.726 624.378C840.361 632.335 843.653 637.762 850.8 639.251C859.585 641.08 865.769 637.468 867.815 629.606C871.003 617.352 870.77 605.795 862.493 595.255C858.206 589.796 857.115 583.504 859.245 576.671C860.025 574.172 860.671 571.867 863.792 572.691C866.396 573.379 867.231 575.261 866.809 578.166C866.344 581.367 866.703 584.688 866.703 587.829C870.658 588.744 873.98 589.046 874.845 584.779C875.986 579.149 877.318 573.378 872.961 567.016ZM660.726 609.812C661.327 595.198 661.929 580.583 662.552 565.43C658.021 565.43 654.492 565.43 650.399 565.43C648.122 573.659 645.87 581.695 643.68 589.748C641.481 597.836 639.088 605.884 637.252 614.055C635.468 621.995 630.933 629.403 631.585 637.929C639.408 638.619 640.354 638.003 641.571 631.821C641.977 629.763 642.002 627.609 642.579 625.608C643.993 620.7 645.377 620.251 651.295 622.393C650.936 627.472 650.575 632.568 650.224 637.519C659.556 639.251 660.122 638.873 660.338 631.114C660.521 624.539 660.585 617.96 660.726 609.812ZM1302.05 634.666C1303.04 611.709 1304.04 588.751 1305.02 565.935C1293.29 563.944 1293.07 564.105 1290.38 573.956C1286.51 588.098 1282.52 602.208 1278.71 616.367C1276.83 623.353 1275.25 630.42 1273.53 637.482C1281.66 638.995 1282.35 638.688 1283.9 632.478C1284.53 629.94 1284.49 627.234 1285.15 624.705C1285.92 621.734 1288.19 620.476 1291.18 620.993C1293.98 621.478 1293.92 623.727 1293.81 625.904C1293.63 629.759 1293.45 633.615 1293.28 637.298C1298.87 638.565 1298.87 638.565 1302.05 634.666ZM1368.17 594.979C1366.03 609.111 1362.23 623.017 1361.91 637.347C1369.71 639.194 1369.96 639.066 1371.13 632.39C1372.52 624.484 1373.87 616.572 1375.28 608.438C1377.94 608.077 1379.96 607.735 1382.01 607.535C1389.48 606.802 1392.07 604.843 1393.82 597.368C1395.36 590.757 1396.71 584.061 1397.54 577.328C1398.42 570.128 1393.97 565.345 1386.59 565.009C1382.22 564.811 1377.84 564.973 1372.63 564.973C1371.13 575.042 1369.76 584.311 1368.17 594.979ZM1616.14 615.207C1618.18 608.28 1618.18 608.28 1625.51 607.467C1631.73 606.777 1635.41 603.722 1636.49 598.035C1637.76 591.341 1638.97 584.63 1640 577.895C1641.1 570.737 1636.9 565.62 1629.57 565.023C1627.22 564.831 1624.84 564.925 1622.48 564.949C1615.37 565.022 1615.03 565.392 1613.92 572.21C1611.24 588.742 1608.43 605.253 1605.8 621.794C1604.99 626.901 1604.6 632.076 1604.03 637.125C1612.03 639.526 1612.97 639.024 1613.93 632.166C1614.66 626.977 1615.34 621.781 1616.14 615.207ZM818.845 624.592C820.015 617.726 821.185 610.86 822.284 604.408C833.007 602.244 833.007 602.244 831.471 595.331C829.242 594.896 826.982 594.455 823.624 593.8C824.826 586.932 825.966 580.42 827.192 573.421C829.76 573.221 832.059 573.054 834.356 572.862C839.589 572.424 839.682 572.303 839.894 565.458C832.967 565.458 826.056 565.458 818.425 565.458C815.65 589.879 810.242 613.484 807.738 638.159C815.344 638.159 822.025 638.159 829.369 638.159C829.369 635.391 829.369 633.031 829.369 630.382C826.218 630.186 823.624 630.102 821.048 629.843C818.745 629.612 817.952 628.191 818.845 624.592ZM1070.98 607.287C1069.32 617.301 1067.65 627.314 1065.77 638.656C1072.02 638.656 1076.93 638.754 1081.83 638.632C1088.48 638.467 1088.99 637.625 1087.2 630.408C1084.19 630.099 1081.14 629.785 1077.88 629.45C1077.67 628.033 1077.31 627.012 1077.42 626.045C1078.08 620.319 1079.02 614.621 1079.5 608.883C1079.83 605.029 1081.5 603.148 1085.37 603.021C1086.87 602.972 1088.35 602.465 1089.97 602.141C1090.35 599.83 1090.67 597.833 1091.03 595.636C1087.97 594.957 1085.29 594.362 1082.37 593.713C1082.95 589.329 1083.52 585.477 1083.96 581.611C1084.84 573.847 1085.35 573.354 1093.01 572.835C1094.51 572.734 1096 572.346 1097.89 572.021C1097.89 569.674 1097.89 567.724 1097.89 565.373C1091.17 565.373 1084.73 565.373 1077.17 565.373C1075.16 579.065 1073.18 592.497 1070.98 607.287ZM938.008 612.01C938 620.735 933.654 629.183 935.827 638.686C938.624 638.413 940.847 638.196 943.273 637.959C944.829 629.164 946.49 620.965 947.682 612.698C948.919 604.12 948.72 604.091 957.658 602.067C958.03 600.101 958.438 597.938 958.861 595.704C955.835 594.916 953.422 594.287 950.748 593.591C951.967 586.523 950.876 579.477 955.27 573.179C958.021 573.033 960.95 573.219 963.724 572.65C967.9 571.793 967.9 568.868 966.814 565.455C959.727 565.455 953.024 565.455 945.705 565.455C943.254 580.797 940.866 595.743 938.008 612.01ZM1006.27 634.201C1009.39 613.837 1012.51 593.473 1015.62 573.15C1019.05 572.771 1021.85 572.462 1025.09 572.104C1025.31 569.873 1025.49 567.941 1025.76 565.185C1017.32 565.185 1009.5 565.006 1001.69 565.252C997.104 565.397 997.348 568.618 997.936 571.891C1000.73 572.555 1003.14 573.128 1006.13 573.84C1002.86 595.371 999.651 616.425 996.404 637.753C1000.8 638.537 1004.19 639.968 1006.27 634.201ZM612.241 604.777C610.44 615.566 608.639 626.354 606.85 637.073C614.233 639.42 615.74 638.915 616.529 633.824C619.343 615.684 622.208 597.551 624.775 579.376C625.345 575.342 626.74 573.341 630.956 572.768C635.947 572.089 635.9 571.744 635.432 564.948C628.151 564.948 620.817 564.821 613.489 564.991C608.265 565.112 608.091 565.587 609.226 572.023C611.637 572.732 614.048 573.441 616.794 574.248C615.252 584.282 613.787 593.82 612.241 604.777ZM885.592 634.881C885.295 639.069 888.256 638.663 890.881 638.547C893.951 638.412 894.486 636.189 894.864 633.667C897.033 619.186 899.224 604.707 901.544 590.25C902.443 584.652 903.7 579.112 904.812 573.45C907.796 573.052 910.334 572.712 913.367 572.307C913.699 569.938 914.002 567.781 914.346 565.332C905.121 565.332 896.574 565.332 887.36 565.332C887.189 567.83 887.042 569.966 886.902 572.009C889.861 572.753 892.088 573.314 895.038 574.057C892.018 594.076 889.032 613.87 885.592 634.881ZM1419.28 569.935C1419.37 564.314 1419.37 564.314 1411.51 565.919C1406.92 581.185 1399.61 632.275 1401.19 638.073C1408.19 638.577 1408.34 638.518 1409.85 632.42C1410.28 630.652 1410.41 628.806 1410.66 626.993C1411.48 621.042 1412.23 615.079 1413.13 609.141C1415.06 596.498 1417.08 583.867 1419.28 569.935ZM977.139 572.355C975.321 583.978 973.435 595.591 971.705 607.227C970.214 617.252 968.901 627.303 967.417 638.011C970.621 638.011 973.293 638.011 975.839 638.011C981.487 613.076 987.679 571.536 986.661 565.706C979.406 564.693 979.406 564.693 977.139 572.355ZM672.361 637.909C679.711 638.773 680.235 638.257 681.305 631.099C683.158 618.7 685.23 606.335 687.124 593.943C688.537 584.701 689.815 575.438 691.248 565.529C687.852 565.529 685.181 565.529 682.752 565.529C682.276 566.513 681.928 566.955 681.848 567.441C679.148 583.657 676.362 599.86 673.848 616.105C672.777 623.02 672.283 630.025 672.361 637.909ZM1596.37 604.319C1598.21 591.517 1600.04 578.715 1601.94 565.475C1598.34 565.475 1595.88 565.475 1592.65 565.475C1588.89 589.707 1585.18 613.557 1581.4 637.905C1585 637.905 1587.64 637.905 1590.44 637.905C1592.38 626.726 1594.2 616.202 1596.37 604.319Z" fill="#41765E"/>
<path d="M1339.58 961.356C1335.76 985.914 1332.02 1009.78 1328.13 1034.48C1325.12 1034.64 1322.34 1034.9 1319.55 1034.91C1303.5 1034.95 1287.45 1034.91 1271.41 1034.95C1268.59 1034.96 1265.78 1035.24 1262.36 1035.44C1247.93 1126.82 1233.61 1217.6 1219.21 1308.86C1180.57 1308.86 1142.32 1308.86 1103.09 1308.86C1134.72 1107.21 1166.27 906.033 1197.79 704.992C1203.59 703.331 1407.73 702.721 1421.26 704.383C1416.18 736.93 1411.11 769.443 1405.91 802.763C1402.43 802.763 1399.59 802.763 1396.75 802.763C1367.55 802.763 1338.35 802.76 1309.15 802.765C1298.41 802.767 1298.64 802.812 1297.02 813.237C1293.23 837.642 1289.13 861.999 1285.27 886.394C1283.55 897.303 1282.16 908.265 1280.54 919.191C1279.79 924.314 1278.85 929.41 1277.81 935.681C1300.09 935.681 1321.27 935.681 1343.38 935.681C1342.03 944.742 1340.84 952.702 1339.58 961.356Z" fill="#FDFDFD"/>
<path d="M703.603 1352.86C715.158 1371.1 726.409 1388.83 738.114 1407.26C739.731 1405.47 741.059 1404.36 741.947 1402.97C752.115 1387.01 762.352 1371.09 772.25 1354.97C775.157 1350.23 778.415 1348.02 784.203 1348.29C794.911 1348.77 805.657 1348.43 816.15 1348.43C818.026 1354.64 818.613 1418.86 816.987 1431.8C806.048 1432.43 794.948 1432.02 782.954 1432.07C782.954 1415.08 782.954 1398.96 782.954 1382.84C782.387 1382.65 781.819 1382.47 781.251 1382.28C779.017 1385.95 776.725 1389.58 774.558 1393.28C768.186 1404.17 761.773 1415.03 755.569 1426.02C753.175 1430.26 750.46 1432.88 745.043 1432.23C740.379 1431.66 735.583 1431.91 730.865 1432.17C726.907 1432.38 724.571 1430.68 722.671 1427.37C715.222 1414.37 707.616 1401.46 700.04 1388.54C698.625 1386.13 697.078 1383.79 694.339 1381.73C694.339 1398.11 694.339 1414.48 694.339 1431.96C688.226 1432.02 682.821 1432.08 677.416 1432.11C671.908 1432.13 666.399 1432.11 661.054 1432.11C659.027 1426.46 658.473 1359.43 660.409 1348.42C663.781 1348.42 667.373 1348.42 670.966 1348.43C679.115 1348.43 687.266 1348.53 695.412 1348.38C698.867 1348.31 701.629 1349.09 703.603 1352.86Z" fill="#3C7359"/>
<path d="M1233.26 1402.17C1233.75 1384.58 1233.75 1367.24 1233.75 1350.15C1239.76 1348.09 1258.54 1347.72 1268.28 1349.34C1268.28 1376.44 1268.28 1403.64 1268.28 1431.4C1266.22 1431.64 1264.22 1432.06 1262.22 1432.08C1252.49 1432.15 1242.76 1431.93 1233.04 1432.19C1228.67 1432.31 1225.82 1430.83 1223.04 1427.42C1209.45 1410.78 1195.58 1394.36 1180.44 1376.23C1180.44 1395.74 1180.44 1413.36 1180.44 1431.53C1168.07 1431.53 1156.72 1431.53 1145.45 1431.53C1143.82 1422.86 1144.09 1355.36 1145.86 1348.93C1147.94 1348.77 1150.22 1348.46 1152.51 1348.45C1161.71 1348.39 1170.92 1348.6 1180.11 1348.35C1184.41 1348.23 1187.55 1349.42 1190.34 1352.81C1202.19 1367.21 1214.21 1381.48 1226.24 1395.74C1228.24 1398.12 1230.58 1400.21 1233.26 1402.17Z" fill="#3C7359"/>
<path d="M1128.59 1375.39C1131.63 1384.72 1131.7 1393.59 1129.5 1402.4C1125.74 1417.46 1115.14 1426.12 1100.97 1430.19C1082.18 1435.59 1063.03 1435.6 1044.18 1430.34C1014.92 1422.18 1003.93 1387.91 1022.66 1363.92C1029.71 1354.9 1039.74 1350.98 1050.48 1348.85C1066.65 1345.64 1082.87 1345.79 1098.88 1350C1112.54 1353.59 1123.26 1360.92 1128.59 1375.39ZM1081.4 1410.2C1095.32 1404.46 1100.07 1390.18 1091.96 1378.04C1086.4 1369.72 1077.76 1368.56 1068.88 1369.32C1062.24 1369.88 1056.18 1372.23 1052.35 1378.55C1043.61 1392.99 1051.67 1409.75 1068.46 1411.34C1072.3 1411.7 1076.26 1410.85 1081.4 1410.2Z" fill="#3C735A"/>
<path d="M476.499 1348.42C484.336 1348.42 491.406 1348.42 498.285 1348.42C500.192 1354.6 500.495 1423.1 498.725 1431.64C487.655 1431.64 476.475 1431.64 464.164 1431.64C464.164 1420.94 464.164 1410.33 464.164 1399.23C449.296 1399.23 435.555 1399.23 420.793 1399.23C420.793 1404.88 420.793 1410.06 420.793 1415.23C420.793 1420.43 420.793 1425.62 420.793 1431.45C408.594 1431.45 397.455 1431.45 386.278 1431.45C384.627 1425.98 383.971 1365.67 385.526 1348.77C396.711 1348.06 408.046 1348.47 419.898 1348.54C421.944 1359.58 419.825 1370.13 421.411 1381.51C435.181 1382.27 448.926 1381.7 463.818 1381.82C463.818 1370.57 463.818 1359.97 463.818 1348.42C468.535 1348.42 472.133 1348.42 476.499 1348.42Z" fill="#3B7158"/>
<path d="M1437.01 1382.62C1450.52 1382.7 1463.32 1382.88 1477.01 1382.58C1477.01 1370.87 1477.01 1360.23 1477.01 1349.01C1488.83 1349.01 1499.73 1349.01 1510.64 1349.01C1512.41 1354.58 1512.75 1422.78 1510.95 1431.63C1500.15 1431.63 1489.26 1431.63 1477.5 1431.63C1477.5 1420.97 1477.5 1410.57 1477.5 1400.48C1471.21 1398.31 1442.27 1397.97 1433.19 1399.87C1433.19 1410.07 1433.19 1420.47 1433.19 1431.48C1421.47 1431.48 1410.57 1431.48 1399.6 1431.48C1397.82 1426.35 1397.32 1358.92 1399.14 1348.96C1409.94 1348.96 1420.84 1348.96 1432.63 1348.96C1432.78 1351.81 1433.02 1354.59 1433.04 1357.37C1433.11 1363.68 1433.04 1369.99 1433.08 1376.3C1433.09 1378.9 1432.7 1381.77 1437.01 1382.62Z" fill="#3C745A"/>
<path d="M1374.19 1358.21C1378.79 1363 1382.65 1367.55 1382.32 1375.08C1370.81 1375.08 1359.57 1375.22 1348.34 1374.94C1346.53 1374.9 1344.74 1373.02 1342.97 1371.94C1337.66 1368.68 1332.13 1368.16 1326.36 1370.54C1323.66 1371.65 1321.14 1372.98 1320.97 1377.68C1327.14 1378.38 1333.27 1379 1339.38 1379.81C1348.21 1380.98 1357.23 1381.48 1365.79 1383.72C1385.94 1388.98 1390.14 1405.43 1375.87 1420.8C1368.21 1429.05 1358.13 1432.22 1347.62 1433.25C1335.63 1434.41 1323.45 1434.73 1311.51 1431.97C1298.38 1428.94 1288.41 1422.09 1284 1408.72C1283.77 1408.02 1283.84 1407.22 1283.68 1405.37C1288.27 1405.37 1292.62 1405.37 1296.97 1405.37C1302.23 1405.37 1307.5 1405.46 1312.76 1405.34C1316.77 1405.25 1320.14 1405.92 1323.67 1408.54C1331.54 1414.4 1341.26 1412.35 1346.25 1404.01C1340.75 1401.03 1334.69 1401.43 1328.91 1400.68C1320.08 1399.54 1311.23 1398.53 1302.38 1397.46C1301.86 1397.39 1301.34 1397.3 1300.83 1397.16C1281.59 1392.1 1277.74 1377.4 1289.54 1361.6C1294.12 1355.48 1300.65 1351.95 1307.9 1349.98C1324.47 1345.49 1341.21 1345.29 1357.72 1349.87C1363.37 1351.44 1368.45 1355.1 1374.19 1358.21Z" fill="#3C7359"/>
<path d="M871.408 1421.31C871.408 1424.91 871.408 1427.78 871.408 1430.44C865.525 1432.44 846.446 1432.8 837.049 1431.17C837.049 1404.08 837.049 1376.88 837.049 1349.01C839.413 1348.81 841.672 1348.45 843.932 1348.45C863.113 1348.42 882.297 1348.26 901.474 1348.55C911.966 1348.71 922.412 1349.89 932.467 1353.27C947.373 1358.27 953.727 1371.4 949.766 1386.45C947.975 1393.25 943.818 1398.49 937.474 1400.96C930.709 1403.6 923.528 1405.84 916.354 1406.6C904.646 1407.85 892.797 1407.78 881.006 1408.23C878.44 1408.33 875.868 1408.24 872.772 1408.24C872.26 1412.87 871.834 1416.72 871.408 1421.31ZM871.365 1379.07C871.655 1381.79 871.944 1384.5 872.257 1387.43C882.353 1387.43 891.488 1387.58 900.614 1387.35C903.706 1387.28 906.829 1386.48 909.842 1385.66C913.472 1384.67 915.563 1382.38 915.486 1378.25C915.412 1374.25 913.602 1371.68 909.866 1370.79C897.523 1367.85 885.068 1369.23 871.989 1369.11C871.736 1372.59 871.551 1375.12 871.365 1379.07Z" fill="#3C7359"/>
<path d="M1603.54 1348.43C1618.78 1348.44 1633.23 1348.25 1647.68 1348.54C1658.7 1348.75 1669.63 1349.96 1680.23 1353.42C1698.82 1359.48 1700.66 1375.56 1696.9 1388.09C1695.31 1393.41 1691.91 1397.2 1687.12 1399.91C1680.13 1403.85 1672.58 1406.15 1664.68 1406.7C1652.91 1407.51 1641.11 1407.78 1629.31 1408.22C1626.46 1408.33 1623.59 1408.24 1619.62 1408.24C1619.62 1416.25 1619.62 1423.69 1619.62 1431.6C1607.61 1431.6 1596.71 1431.6 1585.85 1431.6C1584.24 1425.88 1583.65 1362.82 1585.09 1349.44C1590.8 1347.45 1596.85 1348.86 1603.54 1348.43ZM1655.86 1386.19C1658.99 1385.45 1662.04 1384.54 1663.19 1381.02C1664.84 1375.97 1662.56 1371.45 1656.54 1370.77C1646.14 1369.59 1635.62 1369.48 1625.14 1369.06C1623.42 1368.99 1621.67 1369.56 1620.1 1369.82C1620.1 1375.95 1620.1 1381.56 1620.1 1388.27C1632.07 1387.6 1643.3 1386.98 1655.86 1386.19Z" fill="#3C735A"/>
<path d="M338.336 1378.65C335.848 1377.7 333.821 1377.05 332.305 1375.78C323.302 1368.26 313.295 1367.39 302.724 1371.38C295.071 1374.26 289.69 1383.53 290.392 1391.65C291.283 1401.96 297.879 1409.72 307.92 1411.15C316.976 1412.45 325.799 1411.81 332.747 1404.45C333.888 1403.24 335.835 1402.15 337.431 1402.12C348.175 1401.91 358.925 1402.01 370.892 1402.01C368.878 1411.07 364.581 1417.53 357.986 1422.55C350.032 1428.61 340.793 1431.72 331.041 1432.8C314.79 1434.6 298.552 1435.01 282.77 1429.34C265.617 1423.18 255.551 1409.15 255.439 1390.99C255.321 1371.94 264.786 1357.77 282.42 1351.7C297.039 1346.67 312.122 1345.8 327.499 1347.66C336.5 1348.75 345.091 1350.77 352.99 1355.2C360.536 1359.43 366.272 1365.44 369.597 1373.56C369.892 1374.28 370.133 1375.04 370.256 1375.81C370.334 1376.3 370.146 1376.83 369.941 1378.35C365.035 1378.45 359.923 1378.6 354.81 1378.65C349.552 1378.7 344.293 1378.66 338.336 1378.65Z" fill="#3C735A"/>
<path d="M555.853 1359.93C559.797 1349.82 566.892 1346.78 576.661 1348.41C579.217 1348.84 581.956 1348.81 584.52 1348.41C592.527 1347.16 597.302 1350.5 601.527 1357.39C615.796 1380.68 630.744 1403.54 645.413 1426.58C646.237 1427.88 646.886 1429.29 648.027 1431.4C645.812 1431.69 644.169 1432.07 642.523 1432.08C634.643 1432.14 626.759 1431.95 618.886 1432.17C614.964 1432.28 612.333 1430.92 610.708 1427.41C610.158 1426.22 609.319 1425.15 608.869 1423.93C607.16 1419.3 603.911 1417.95 599.075 1418.06C585.948 1418.35 572.807 1418.35 559.68 1418.06C554.792 1417.95 551.573 1419.55 549.823 1424.04C547.305 1430.51 542.919 1432.93 535.792 1432.28C527.838 1431.54 519.765 1432.11 509.712 1432.11C525.705 1407.09 540.626 1383.76 555.853 1359.93ZM591.934 1394.71C588.007 1387.71 584.081 1380.71 579.188 1371.98C574.814 1381.51 569.092 1388.19 566.085 1397.42C575.159 1397.42 583.009 1397.44 590.858 1397.35C591.342 1397.34 591.814 1396.37 591.934 1394.71Z" fill="#3C735A"/>
<path d="M1016.68 1309.61C1019.36 1298.39 1022.55 1287.55 1025.39 1276.61C1033.59 1245.04 1041.57 1213.42 1049.77 1181.86C1061.6 1136.29 1073.56 1090.75 1085.43 1045.19C1100.02 989.207 1114.62 933.222 1129.13 877.216C1141.01 831.387 1152.76 785.527 1164.58 739.683C1166.94 730.515 1169.36 721.362 1171.69 712.185C1172.25 709.979 1172.53 707.704 1173.04 704.947C1170.58 704.673 1168.84 704.31 1167.09 704.309C1132.12 704.274 1097.15 704.264 1062.17 704.296C1055.07 704.302 1054.82 704.611 1053.48 711.517C1045.25 754.114 1036.99 796.703 1028.78 839.305C1015.41 908.761 1002.04 978.218 988.742 1047.69C984.936 1067.57 981.411 1087.51 977.692 1107.41C977.16 1110.26 977.629 1114.03 971.863 1114.19C971.186 1099.15 973.572 1084.48 975.039 1069.25C975.282 1077.33 975.177 1085.94 975.085 1094.54C975.063 1096.58 975.081 1098.62 975.081 1101.49C976.065 1100.37 976.766 1099.95 976.869 1099.41C985.695 1053.19 994.436 1006.95 1003.27 960.734C1009.44 928.46 1015.73 896.21 1021.96 863.948C1030.53 819.541 1039.11 775.135 1047.66 730.724C1049.05 723.496 1050.1 716.198 1051.68 709.015C1052.96 703.226 1053.84 702.585 1059.75 702.575C1096.31 702.513 1132.87 702.531 1169.43 702.585C1171.19 702.588 1172.95 703.173 1175.73 703.669C1174.45 709.627 1173.46 715.23 1172.04 720.724C1161.07 763.208 1150.02 805.671 1138.99 848.139C1126.84 894.946 1114.7 941.756 1102.51 988.553C1092.51 1026.93 1082.38 1065.28 1072.42 1103.67C1062.47 1142.07 1052.69 1180.52 1042.77 1218.94C1035.67 1246.42 1028.55 1273.91 1021.19 1301.32C1020.39 1304.29 1021.22 1308.46 1016.68 1309.61Z" fill="#606060"/>
<path d="M1000.2 1352.12C1000.19 1378.35 1000.14 1403.85 1000.07 1429.34C1000.07 1429.83 999.749 1430.31 999.344 1431.46C988.215 1431.46 976.865 1431.46 964.96 1431.46C964.96 1404.08 964.96 1376.88 964.96 1348.85C967.852 1348.7 970.629 1348.46 973.408 1348.43C980.5 1348.38 987.594 1348.39 994.687 1348.44C996.979 1348.45 999.64 1348 1000.2 1352.12Z" fill="#3B7158"/>
<path d="M1548.26 1432.11C1542.29 1432.11 1537.09 1432.11 1531.39 1432.11C1531.39 1404 1531.39 1376.79 1531.39 1349C1542.55 1349 1553.45 1349 1564.35 1349C1566.03 1354.58 1566.65 1417.13 1565.06 1431.81C1559.83 1431.91 1554.43 1432.01 1548.26 1432.11Z" fill="#3C745A"/>
<path d="M831.983 1309.64C834.671 1297.89 837.868 1286.5 840.731 1275.03C854.549 1219.66 868.247 1164.27 882.047 1108.9C891.266 1071.91 900.829 1035 909.734 997.934C913.168 983.64 915.191 969.006 917.903 954.536C918.414 951.811 919.143 949.127 919.715 946.671C923.458 946.526 923.478 948.271 923.212 950.308C921.679 962.034 919.993 973.744 918.702 985.497C916.806 1002.74 915.044 1020 913.497 1037.28C908.34 1094.88 903.317 1152.5 898.213 1210.11C896.682 1227.39 895.051 1244.66 893.123 1262.48C892.567 1258.4 891.878 1253.75 892.227 1249.17C893.443 1233.19 894.98 1217.24 896.466 1201.28C898.974 1174.32 901.6 1147.39 904.052 1120.43C905.813 1101.06 907.324 1081.68 909.032 1062.31C910.509 1045.55 912.171 1028.81 913.601 1012.06C913.932 1008.18 913.65 1004.26 912.735 999.895C912.048 1001.23 911.07 1002.49 910.718 1003.9C903.555 1032.71 896.522 1061.54 889.339 1090.35C883.363 1114.31 877.183 1138.22 871.174 1162.18C859.291 1209.55 847.485 1256.93 835.539 1304.29C835.026 1306.32 833.431 1308.08 831.983 1309.64ZM914.478 989.182C914.203 990.518 913.928 991.853 913.653 993.188C914.077 993.237 914.501 993.287 914.925 993.336C914.978 992.199 915.031 991.062 914.478 989.182Z" fill="#606060"/>
<path d="M531.263 1124.07C532.602 1116.97 534.232 1109.6 536.295 1102.36C544.073 1075.06 552.312 1047.88 559.779 1020.49C569.323 985.49 578.277 950.327 587.516 915.242C588.319 912.193 589.142 909.114 590.392 906.24C590.82 905.256 592.585 904.854 594.705 903.627C594.705 906.486 594.996 908.241 594.663 909.869C585.302 955.7 575.655 1001.47 566.573 1047.36C562.901 1065.91 560.415 1084.69 557.433 1103.38C552.048 1137.12 546.683 1170.86 541.334 1204.6C536.191 1237.05 531.062 1269.5 525.994 1301.95C525.676 1303.99 525.939 1306.12 526.371 1308.87C522.532 1308.53 522.283 1308.38 522.873 1304.43C523.727 1298.72 524.895 1293.05 525.802 1287.35C530.01 1260.9 534.146 1234.44 538.361 1207.99C543.197 1177.65 548.149 1147.33 552.936 1116.99C556.128 1096.75 558.845 1076.44 562.293 1056.25C564.679 1042.28 567.962 1028.46 570.823 1014.57C575.592 991.409 580.354 968.252 585.082 945.088C585.385 943.607 585.381 942.064 585.691 938.685C583.95 940.977 582.972 941.729 582.722 942.674C576.798 964.998 571.203 987.413 565.034 1009.67C556.052 1042.07 546.703 1074.37 537.419 1106.69C535.756 1112.48 533.653 1118.14 531.263 1124.07ZM585.427 934.001C585.704 934.376 585.982 934.75 586.259 935.125C586.189 934.574 586.119 934.024 585.427 934.001Z" fill="#575757"/>
<path d="M922.21 705.275C920.64 714.043 918.727 722.999 916.372 731.837C907.974 763.349 899.408 794.816 890.939 826.308C877.008 878.109 862.882 929.859 849.256 981.741C838.437 1022.93 828.242 1064.29 817.771 1105.58C817.254 1107.62 817.082 1109.84 816.125 1111.64C815.469 1112.88 813.729 1113.54 811.625 1114C812.713 1090.08 816.376 1066.79 818.854 1043.38C821.347 1019.84 824.543 996.368 827.411 972.863C830.278 949.358 833.121 925.85 836.31 901.811C836.915 904.061 837.691 906.901 837.377 909.614C833.241 945.366 829.005 981.106 824.683 1016.84C821.434 1043.69 818.011 1070.52 814.711 1097.37C814.395 1099.94 814.403 1102.55 815.191 1105.36C815.745 1103.58 816.455 1101.83 816.83 1100.01C825.061 1060.07 836.356 1020.92 846.952 981.581C857.071 944.019 867.019 906.411 877.109 868.841C884.608 840.923 892.244 813.041 899.763 785.129C906.53 760.007 913.213 734.863 919.97 709.739C920.37 708.251 921.093 706.85 922.21 705.275Z" fill="#606060"/>
<path d="M594.398 703.248C593.947 705.204 592.892 706.755 592.388 708.467C578.296 756.35 564.31 804.264 550.197 852.141C538.832 890.695 526.749 929.048 516.085 967.794C509.123 993.09 504.11 1018.93 498.265 1044.53C496.685 1051.45 495.205 1058.39 493.776 1065.34C493.256 1067.87 492.487 1069.87 488.731 1069.38C488.731 1065.31 488.731 1061.24 489.025 1056.65C489.963 1057.18 490.608 1058.24 491.862 1060.3C493.226 1054.98 494.555 1050.4 495.57 1045.74C500.372 1023.71 504.832 1001.6 509.948 979.638C512.383 969.186 516.035 959.021 519.086 948.71C521.989 938.903 524.826 929.076 527.692 919.258C534.894 894.586 542.018 869.89 549.319 845.247C558.857 813.05 568.553 780.899 578.146 748.718C582.194 735.14 586.101 721.52 590.2 707.958C590.813 705.929 590.65 702.958 594.398 703.248Z" fill="#484848"/>
<path d="M630.571 1253.58C631.981 1240.01 633.786 1226.23 635.926 1212.5C645.151 1153.34 654.452 1094.18 663.769 1035.03C669.081 1001.3 674.471 967.59 679.838 933.873C681.984 920.39 684.16 906.912 686.754 893.038C686.102 902.512 685.327 912.425 683.875 922.237C680.107 947.69 676.089 973.106 672.08 998.523C668.154 1023.41 664.113 1048.27 660.128 1073.15C654.688 1107.11 649.177 1141.06 643.842 1175.03C640.012 1199.42 636.435 1223.85 632.685 1248.25C632.415 1250 631.654 1251.69 630.571 1253.58Z" fill="#575757"/>
<path d="M378.111 703.296C376.529 714.171 374.391 724.69 372.672 735.277C368.55 760.663 364.589 786.075 360.633 811.488C357.526 831.454 354.609 851.449 351.456 871.408C346.175 904.844 340.74 938.257 335.435 971.689C331.446 996.828 327.559 1021.98 323.295 1047.64C322.692 1045.65 321.859 1043.07 322.235 1040.68C326.586 1012.98 331.246 985.331 335.572 957.629C340.666 925.013 345.406 892.342 350.505 859.728C353.864 838.245 357.714 816.84 361.116 795.363C364.97 771.031 368.572 746.659 372.276 722.303C372.905 718.162 373.245 713.957 374.197 709.893C374.78 707.407 373.816 703.837 378.111 703.296Z" fill="#484848"/>
<path d="M721.061 1005.96C721.523 1012.24 721.833 1019.01 721.49 1025.74C720.471 1045.71 719.216 1065.66 718.013 1085.62C716.018 1118.7 713.929 1151.78 711.994 1184.87C709.597 1225.84 707.317 1266.81 705.105 1308.53C702.931 1310.66 702.403 1308.99 702.408 1307.37C702.424 1302.12 702.511 1296.86 702.817 1291.61C703.736 1275.89 704.75 1260.18 705.769 1244.46C707.688 1214.87 709.758 1185.3 711.535 1155.7C712.967 1131.86 713.904 1107.99 715.352 1084.15C716.529 1064.77 718.171 1045.43 719.54 1026.06C720.002 1019.53 720.26 1012.98 721.061 1005.96Z" fill="#606060"/>
<path d="M379.418 1308.93C388.445 1247.97 398.173 1186.94 407.633 1125.87C412.583 1093.91 417.059 1061.88 421.768 1029.88C421.959 1028.59 422.342 1027.32 423.061 1025.62C423.087 1033.52 423.379 1041.95 422.161 1050.15C417.891 1078.89 413.061 1107.56 408.52 1136.26C404.224 1163.42 400.055 1190.61 395.772 1217.77C391.613 1244.15 387.434 1270.53 383.126 1296.89C382.465 1300.94 381.066 1304.86 379.418 1308.93Z" fill="#484848"/>
<path d="M321.912 1051.3C320.61 1064.36 318.916 1077.63 316.923 1090.85C313.947 1110.59 310.776 1130.29 307.661 1150C302.335 1183.72 296.925 1217.42 291.676 1251.15C288.729 1270.08 286.036 1289.06 283.461 1308.7C280.67 1310.9 280.529 1308.5 280.704 1306.81C281.244 1301.59 282.054 1296.4 282.85 1291.22C285.872 1271.53 288.851 1251.83 291.997 1232.16C295.225 1211.97 298.688 1191.82 301.933 1171.63C303.93 1159.21 305.71 1146.75 307.59 1134.31C311.35 1109.43 315.074 1084.54 318.929 1059.68C319.362 1056.89 320.549 1054.21 321.912 1051.3Z" fill="#484848"/>
<path d="M496.299 946.997C495.766 939.359 495.735 931.503 495.842 923.65C496.098 904.976 496.377 886.303 496.724 867.631C497.72 813.992 498.758 760.353 499.757 706.714C499.771 705.95 499.496 705.18 498.934 703.973C500.515 702.186 501.481 703.365 501.679 705.136C501.881 706.942 501.53 708.802 501.518 710.639C501.463 719.052 501.501 727.466 501.398 735.878C500.842 781.076 500.33 826.274 499.647 871.47C499.297 894.58 498.647 917.685 498.044 940.79C497.991 942.796 497.273 944.785 496.299 946.997Z" fill="#484848"/>
<path d="M430.952 1122.46C431.564 1128.52 431.704 1134.81 431.649 1141.1C431.276 1184.13 430.874 1227.16 430.453 1270.2C430.33 1282.77 430.117 1295.34 430.226 1308.65C426.86 1310.65 427.421 1307.72 427.409 1305.98C427.342 1297.05 427.456 1288.11 427.524 1279.18C427.536 1277.61 427.666 1276.03 427.684 1274.46C428.223 1226.67 428.738 1178.89 429.331 1131.11C429.366 1128.3 430.023 1125.5 430.952 1122.46Z" fill="#484848"/>
<path d="M837.327 898.081C837.391 891.811 837.839 885.276 838.617 878.781C845.427 821.865 852.298 764.958 859.131 708.045C859.256 707.012 859.135 705.95 858.776 704.258C859.399 703.98 861.211 704.333 861.217 704.712C861.256 707.58 861.047 710.465 860.72 713.322C857.803 738.81 854.882 764.298 851.89 789.777C849.204 812.647 846.443 835.509 843.684 858.371C842.241 870.328 840.761 882.281 839.214 894.224C839.053 895.465 838.327 896.632 837.327 898.081Z" fill="#606060"/>
<path d="M732.46 819.092C732.698 829.838 732.658 840.872 732.058 851.876C730.884 873.395 729.411 894.898 728.039 916.406C726.216 944.984 724.372 973.56 722.08 1002.52C721.646 994.029 721.363 985.139 721.774 976.281C722.271 965.547 723.522 954.85 724.148 944.12C725.509 920.818 726.629 897.502 727.944 874.198C728.934 856.653 730.065 839.117 731.173 821.579C731.22 820.829 731.667 820.104 732.46 819.092Z" fill="#606060"/>
<path d="M688.884 883.843C689.724 873.917 690.983 863.788 692.543 853.706C699.98 805.653 707.501 757.613 714.976 709.566C715.217 708.018 715.285 706.442 715.108 704.238C717.668 701.946 718.044 704.06 717.872 705.964C717.472 710.404 716.842 714.829 716.149 719.235C711.424 749.284 706.644 779.324 701.912 809.371C698.2 832.941 694.543 856.52 690.808 880.086C690.613 881.319 689.91 882.471 688.884 883.843Z" fill="#484848"/>
<path d="M475.654 1307.27C477.034 1300.32 478.805 1293.22 480.919 1286.22C495.846 1236.75 510.842 1187.31 525.825 1137.87C526.128 1136.87 526.528 1135.89 527.344 1134.59C525.785 1142.87 524.127 1151.57 521.668 1160.05C516.846 1176.67 511.567 1193.16 506.498 1209.71C500.585 1229.01 494.664 1248.31 488.804 1267.64C485.687 1277.91 482.753 1288.25 479.607 1298.52C478.703 1301.47 477.351 1304.28 475.654 1307.27Z" fill="#484848"/>
<path d="M437.3 950.27C437.143 967.817 436.364 985.589 435.721 1003.37C434.586 1034.76 433.534 1066.16 432.166 1098.13C431.446 1096.47 430.636 1094.24 430.63 1092C430.593 1077 430.382 1061.99 430.894 1047.01C431.522 1028.64 432.833 1010.29 433.787 991.934C434.427 979.608 434.925 967.275 435.582 954.951C435.662 953.45 436.338 951.98 437.3 950.27Z" fill="#484848"/>
<path d="M740.883 703.729C740.717 712.567 739.732 721.389 739.169 730.238C737.378 758.431 735.743 786.634 733.727 815.388C733.2 808.964 732.557 801.966 732.87 795.011C733.646 777.718 734.789 760.441 735.919 743.166C736.705 731.139 737.674 719.124 738.68 707.113C738.778 705.947 739.713 704.852 740.883 703.729Z" fill="#606060"/>
<path d="M430.55 965.723C429.869 964.607 429.424 963.067 429.585 961.593C431.46 944.379 433.427 927.176 435.369 909.97C435.457 909.187 435.305 908.272 435.664 907.648C436.366 906.428 437.349 905.37 438.216 904.244C439.108 905.563 440.805 906.909 440.761 908.196C440.492 916.051 439.803 923.891 439.308 931.739C439.077 935.405 438.966 939.078 438.506 943.317C437.576 939.15 436.941 934.415 436.108 928.201C434.299 941.525 432.683 953.427 430.55 965.723Z" fill="#484848"/>
<path d="M984.198 883.899C983.993 870.542 984.193 856.955 984.761 843.383C985.547 824.58 986.61 805.789 987.954 786.483C988.5 792.976 988.97 799.989 988.736 806.978C987.938 830.801 986.913 854.616 985.9 878.432C985.825 880.192 985.158 881.928 984.198 883.899Z" fill="#606060"/>
<path d="M977.785 1027.59C978.087 1004.1 978.899 980.351 979.803 956.603C980.111 948.51 980.65 940.426 981.469 931.818C982.059 937.773 982.622 944.259 982.407 950.72C981.631 974.002 980.621 997.276 979.607 1020.55C979.508 1022.83 978.771 1025.07 977.785 1027.59Z" fill="#606060"/>
<path d="M489.986 1052.85C490.247 1040.06 491.086 1027.07 491.891 1014.07C492.955 996.873 493.993 979.672 495.326 961.9C496.048 963.803 496.973 966.304 496.847 968.749C495.947 986.173 494.851 1003.59 493.779 1021C493.234 1029.84 492.67 1038.69 491.972 1047.52C491.835 1049.25 491.039 1050.93 489.986 1052.85Z" fill="#484848"/>
<path d="M991.137 704.37C989.703 704.759 988.152 704.319 986.602 704.325C965.85 704.408 945.098 704.553 923.594 704.811C924.268 704.145 925.689 702.667 927.12 702.657C947.471 702.526 967.824 702.579 988.176 702.662C989.125 702.666 990.072 703.37 991.137 704.37Z" fill="#606060"/>
<path d="M424.223 1022.6C423.51 1021.74 423.028 1020.46 423.165 1019.25C425.052 1002.55 427.024 985.872 429.395 968.761C429.561 974.75 429.633 981.201 428.98 987.577C427.795 999.144 426.179 1010.67 424.223 1022.6Z" fill="#484848"/>
<path d="M622.788 1305.7C623.168 1297.63 623.887 1289.29 625.045 1281.02C626.136 1273.22 627.691 1265.49 629.384 1257.23C630.084 1258.17 630.941 1259.69 630.724 1261.04C628.352 1275.87 625.812 1290.66 622.788 1305.7Z" fill="#575757"/>
<path d="M892.032 1266.18C891.768 1277.57 890.908 1289.19 890.217 1300.83C890.067 1303.34 890.528 1305.89 891.108 1308.96C890.415 1309.35 888.571 1309.52 888.366 1309.02C887.704 1307.4 887.274 1305.51 887.412 1303.77C888.346 1292.02 889.434 1280.29 890.53 1268.55C890.599 1267.82 891.163 1267.13 892.032 1266.18Z" fill="#606060"/>
<path d="M989.104 782.765C988.502 777.195 988.254 771.305 988.327 765.419C988.394 760 988.806 754.586 989.366 748.603C990.045 748.96 990.776 749.894 990.748 750.806C990.432 761.355 990.001 771.9 989.104 782.765Z" fill="#606060"/>
<path d="M982.812 924.949C982.262 918.355 982.13 911.438 982.18 904.523C982.208 900.657 982.539 896.792 983.035 892.361C983.73 893.23 984.497 894.676 984.454 896.098C984.167 905.61 983.709 915.118 982.812 924.949Z" fill="#606060"/>
<path d="M990.413 741.669C990.147 731.68 990.435 721.449 991.066 710.676C991.805 711.567 992.599 713.02 992.534 714.433C992.117 723.436 991.511 732.43 990.413 741.669Z" fill="#606060"/>
<path d="M976.405 1065.55C976.068 1056.65 976.247 1047.45 976.737 1037.7C979.261 1046.52 978.238 1055.89 976.405 1065.55Z" fill="#606060"/>
<path d="M778.295 576.286C779.091 573.393 779.637 571.081 780.476 568.881C781.814 565.373 784.164 563.904 788.794 566.225C788.287 578.558 787.762 591.309 787.238 604.059C787.988 604.146 788.738 604.234 789.488 604.321C790.076 601.476 790.613 598.62 791.26 595.788C793.067 587.88 794.989 579.997 796.735 572.076C798.329 564.844 798.254 564.828 806.758 565.47C806.758 567.121 807.117 568.917 806.703 570.513C801.446 590.788 796.039 611.024 790.758 631.293C788.648 639.389 788.393 639.614 778.574 637.446C778.216 626.39 781.552 615.1 779.228 602.141C777.757 605.097 776.719 606.539 776.294 608.144C774.285 615.736 772.51 623.391 770.523 630.989C768.282 639.564 767.629 639.869 758.578 637.451C757.501 630.097 761.802 571.386 763.984 565.38C766.069 565.38 768.314 565.38 771.412 565.38C771.528 579.231 768.972 592.794 768.592 607.096C773.173 604.762 771.139 600.296 772.847 597.363C774.506 594.514 774.995 590.95 775.822 587.656C776.714 584.103 777.401 580.498 778.295 576.286ZM780.232 598.348C779.65 598.891 779.041 599.412 778.527 600.014C778.479 600.07 779.036 600.642 779.311 600.974C779.829 600.366 780.346 599.758 780.232 598.348Z" fill="#E2EAE6"/>
<path d="M1341.15 638.308C1341.83 631.095 1342.51 623.883 1343.37 615.467C1343.89 611.422 1344.22 608.582 1344.56 605.741C1343.87 605.615 1343.18 605.489 1342.49 605.363C1341.67 608.706 1340.85 612.05 1340.03 615.393C1338.3 621.154 1336.59 626.926 1334.81 632.673C1334.07 635.087 1333.79 637.996 1329.26 638.159C1327.42 629.205 1329.56 619.85 1326.7 610.452C1325.99 611.823 1324.88 613.129 1324.64 614.577C1323.67 620.52 1323.06 626.52 1322.15 632.473C1321.31 637.927 1320.46 638.441 1313.63 637.881C1316.27 613.583 1320.45 589.573 1324.48 565.298C1328.21 565.298 1331.02 565.298 1334.84 565.298C1335.46 577.878 1334.49 590.404 1334.83 603.534C1338.46 601.809 1338.72 598.906 1339.46 596.293C1342.39 586.013 1345.32 575.737 1348.29 565.348C1351.98 565.348 1355.01 565.348 1358.6 565.348C1358.5 567.537 1358.59 569.295 1358.31 570.994C1355.51 588.296 1352.67 605.59 1349.81 622.882C1349.01 627.753 1348.12 632.611 1346.23 637.765C1343.83 638.14 1342.49 638.224 1341.15 638.308Z" fill="#E1E9E5"/>
<path d="M1465.11 612.542C1467.25 598.664 1469.43 585.486 1471.42 572.28C1472.44 565.5 1473.07 564.897 1481.55 565.482C1482.52 576.312 1483.49 587.296 1484.62 599.963C1490.14 593.834 1487.79 587.632 1489.59 582.467C1491.44 577.139 1491.68 571.248 1492.67 565.353C1495.41 565.353 1497.4 565.353 1499.23 565.353C1499.64 566.11 1500.15 566.6 1500.09 566.998C1496.99 586.395 1493.84 605.783 1490.72 625.177C1490.39 627.253 1490.24 629.359 1489.99 631.449C1489.11 638.815 1488.83 639.008 1480.29 637.685C1479.23 627.033 1478.15 616.178 1476.93 603.925C1471.88 609.606 1474.16 615.828 1472.43 620.974C1470.62 626.344 1470.15 632.164 1468.98 638.427C1466.3 638.295 1464.15 638.188 1461.55 638.06C1462.8 629.226 1463.93 621.227 1465.11 612.542Z" fill="#E3EBE7"/>
<path d="M574.447 606.093C572.761 609.939 571.551 613.911 570.771 617.965C569.68 623.633 569.04 629.387 567.958 635.056C567.263 638.695 566.976 638.686 559.676 637.366C563.124 613.437 566.902 589.523 571.031 565.348C574.202 565.348 576.743 565.348 579.642 565.348C582.296 576.176 579.088 587.58 583.38 598.118C587.671 587.817 587.638 576.774 590.648 565.544C592.536 565.395 594.687 565.226 596.383 565.093C598.588 567.803 591.279 616.751 586.035 638.101C583.679 638.101 581.189 638.101 577.758 638.101C577.376 630.168 577.097 622.371 576.576 614.591C576.389 611.792 575.618 609.032 574.447 606.093Z" fill="#E3EBE7"/>
<path d="M1254.33 637.427C1254.95 628.978 1256.01 620.987 1257.03 612.99C1257.39 610.18 1257.66 607.358 1257.95 604.675C1251 602.302 1250.35 602.566 1249.36 608.097C1247.93 616.086 1246.45 624.068 1245.22 632.089C1244.14 639.202 1242.67 640.006 1235.54 636.835C1237.42 623.384 1239.21 609.942 1241.2 596.528C1242.5 587.733 1244.03 578.971 1245.57 570.213C1246.47 565.097 1247.59 564.628 1255.78 565.994C1254.35 575.069 1252.91 584.196 1251.34 594.102C1254.34 594.29 1256.52 594.426 1259.45 594.609C1261.32 584.634 1263.08 575.219 1264.91 565.423C1267.7 565.423 1270.17 565.423 1273.32 565.423C1272.79 570.233 1272.45 574.592 1271.8 578.902C1269.16 596.239 1266.39 613.556 1263.74 630.89C1262.66 637.956 1261.88 638.64 1254.33 637.427Z" fill="#E8EEEB"/>
<path d="M1566.51 588.953C1568.03 580.866 1569.33 573.418 1570.73 565.364C1573.49 565.24 1575.97 565.129 1579.4 564.975C1578.13 574.942 1577.1 584.194 1575.75 593.399C1573.92 605.828 1571.77 618.21 1569.9 630.633C1568.8 637.903 1567.59 638.914 1559.3 637.488C1560.03 631.961 1560.68 626.359 1561.56 620.793C1562.4 615.434 1563.49 610.114 1564.44 604.95C1557.39 602.201 1556 602.766 1555 608.547C1553.66 616.283 1552.57 624.062 1551.29 631.81C1550.05 639.349 1549.29 639.739 1541.25 637.027C1542.79 627.08 1544.33 617.06 1545.9 607.045C1547.72 595.423 1549.7 583.823 1551.35 572.178C1552.36 565.075 1552.7 564.653 1561.36 566.015C1560.08 575.119 1558.8 584.282 1557.53 593.357C1564.42 595.066 1564.42 595.066 1566.51 588.953Z" fill="#E7EEEB"/>
<path d="M522.671 614.21C524.742 601.646 526.72 589.772 528.761 577.909C529.464 573.822 530.324 569.762 531.17 565.396C534.031 565.396 536.285 565.396 539.469 565.396C539.125 569.633 539.034 573.752 538.417 577.791C536.675 589.184 534.703 600.542 532.853 611.919C532.139 616.314 531.387 620.708 530.886 625.129C530.608 627.584 531.026 630.124 534.224 630.31C537.29 630.489 538.962 628.916 539.384 625.685C540.571 616.599 541.879 607.526 543.3 598.473C545 587.645 546.867 576.843 548.759 565.443C551.374 565.443 554.097 565.443 557.812 565.443C556.845 571.763 555.954 577.844 554.978 583.911C553.107 595.548 551.201 607.179 549.282 618.809C548.641 622.687 548.135 626.606 547.187 630.412C545.357 637.764 538.649 641.2 530.438 639.243C523.354 637.554 520.459 632.811 521.601 625.094C522.1 621.722 522.277 618.302 522.671 614.21Z" fill="#E7EDEA"/>
<path d="M487.889 584.017C488.488 580.53 488.734 577.649 489.223 574.81C490.878 565.204 502.406 560.15 510.567 565.509C513.785 567.622 516.013 570.575 515.633 574.702C515.056 580.96 514.539 587.238 513.584 593.444C511.79 605.094 509.795 616.716 507.702 628.317C506.151 636.917 499.673 641.202 491.09 639.611C483.443 638.195 480.354 632.436 481.829 623.492C483.958 610.574 485.725 597.596 487.889 584.017ZM496.903 583.289C495.913 590.012 494.968 596.742 493.921 603.456C492.835 610.43 491.554 617.374 490.555 624.36C490.142 627.256 490.075 630.399 494.006 631.13C496.849 631.658 498.83 629.38 499.596 624.992C499.731 624.219 499.73 623.424 499.855 622.649C501.591 611.828 503.375 601.016 505.064 590.188C505.751 585.791 506.587 581.366 506.618 576.948C506.629 575.459 504.619 573.341 503.045 572.689C502.115 572.304 499.64 573.893 498.912 575.188C497.799 577.169 497.595 579.662 496.903 583.289Z" fill="#E7EDEA"/>
<path d="M1457.04 571.152C1456.9 577.951 1456.89 584.23 1456.03 590.388C1454.29 602.818 1452.09 615.185 1450.06 627.575C1448.52 636.985 1441.54 641.641 1432.36 639.401C1426.72 638.023 1423.58 634.708 1423.65 628.888C1423.72 623.691 1424.56 618.482 1425.35 613.323C1427.37 600.145 1429.44 586.973 1431.72 573.839C1432.72 568.045 1436.5 564.474 1442.36 563.831C1448.38 563.169 1454 564.015 1457.04 571.152ZM1448.51 581.101C1448.57 579.792 1449.05 578.308 1448.59 577.216C1447.87 575.488 1446.21 572.57 1445.49 572.723C1443.5 573.153 1441.65 574.745 1440.03 576.203C1439.43 576.747 1439.63 578.187 1439.47 579.219C1438.31 586.705 1437.08 594.182 1436 601.68C1434.85 609.698 1433.77 617.73 1432.79 625.771C1432.49 628.233 1432.96 631.147 1435.98 630.941C1437.84 630.815 1439.76 628.765 1441.24 627.189C1442 626.38 1441.9 624.726 1442.1 623.439C1444.21 609.775 1446.3 596.108 1448.51 581.101Z" fill="#E7EEEB"/>
<path d="M709.693 610.555C709.622 609.983 709.55 609.411 709.712 607.676C709.622 601.876 711.327 596.953 707.224 592.651C706.774 597.773 706.323 602.895 705.873 608.017C705.405 611.501 704.938 614.984 703.892 619.357C703.137 621.438 702.962 622.63 702.786 623.821C702.659 625.345 702.531 626.87 701.908 629.343C701.503 631.345 701.594 632.398 701.684 633.451C700.952 637.421 699.149 639.697 694.759 637.993C693.708 631.038 702.371 572.992 705.67 565.376C707.733 565.376 709.974 565.376 713.272 565.376C713.756 570.571 714.232 575.678 714.304 581.831C714.216 584.745 714.533 586.612 714.85 588.479C714.998 592.03 715.146 595.581 715.17 600.453C715.116 604.41 715.187 607.044 715.259 609.679C718.569 606.913 719.766 603.994 718.895 600.504C720.516 588.936 722.138 577.368 723.798 565.522C726.658 565.338 728.641 565.211 731.912 565.001C729.015 584.307 726.218 602.947 722.831 622.516C722.175 624.665 722.11 625.886 722.044 627.107C721.81 628.593 721.576 630.079 720.855 632.501C720.415 634.494 720.461 635.55 720.508 636.606C717.93 637.243 715.353 637.88 711.648 638.796C711.387 631.309 711.172 625.125 711.077 617.623C710.695 614.389 710.194 612.472 709.693 610.555Z" fill="#E7EDEA"/>
<path d="M1163.58 579.943C1163.85 578.293 1164.53 577.004 1164.15 576.311C1163.34 574.865 1161.62 572.515 1160.9 572.721C1159.25 573.194 1157.4 574.707 1156.67 576.281C1154.01 581.971 1155.19 587.521 1158.23 592.779C1160.2 596.175 1162.18 599.563 1164.2 602.93C1170.28 613.09 1167.53 623.329 1163.81 633.192C1161.55 639.157 1152.68 641.381 1145.99 638.725C1140.72 636.634 1137.83 630.648 1139.05 624.471C1139.61 621.649 1140.14 618.817 1140.57 615.975C1141.58 609.466 1142.05 609.183 1150.12 611.185C1149.89 613.088 1149.6 615.069 1149.4 617.059C1149.08 620.184 1148.72 623.309 1148.55 626.443C1148.43 628.773 1149.36 631.027 1151.93 630.683C1153.62 630.457 1156.22 628.841 1156.47 627.488C1158.13 618.477 1159.33 609.6 1152.64 601.488C1145.15 592.396 1144.37 581.875 1148.79 571.105C1151.33 564.891 1157.39 562.265 1164.32 563.79C1170.43 565.136 1173.66 569.507 1173.59 576.444C1173.58 578.277 1173.54 580.141 1173.21 581.936C1172.14 587.818 1170.71 588.628 1163.5 587.349C1163.5 585.159 1163.5 582.867 1163.58 579.943Z" fill="#E5ECE9"/>
<path d="M1112.94 566.627C1116.61 565.301 1119.83 563.653 1123.06 563.637C1130.96 563.597 1134.43 567.46 1134.54 575.344C1134.57 577.185 1134.52 579.031 1134.4 580.869C1133.91 588.568 1133.38 588.935 1124.7 587.497C1124.7 585.839 1124.58 584.098 1124.73 582.38C1124.89 580.562 1125.44 578.775 1125.57 576.957C1125.74 574.62 1124.82 572.34 1122.31 572.562C1120.65 572.709 1117.95 574.38 1117.75 575.672C1116.91 581.33 1115.89 587.179 1119.4 592.511C1121.13 595.137 1122.58 597.942 1124.31 600.567C1131.1 610.868 1129.38 621.64 1125.64 632.241C1123.39 638.63 1116.88 640.951 1109.15 639.156C1102.7 637.659 1100.14 634.566 1100.45 627.202C1100.68 621.789 1101.81 616.415 1102.61 610.547C1105.64 610.292 1107.83 610.108 1110.01 609.925C1110.48 611.24 1111.02 611.983 1110.95 612.664C1110.52 616.831 1109.95 620.984 1109.44 625.142C1109.13 627.655 1109.29 630.146 1112.27 630.782C1115.43 631.453 1116.79 629.659 1117.75 626.651C1120.71 617.445 1119.27 609.292 1113.82 601.279C1105.65 589.282 1104.48 581.199 1112.94 566.627Z" fill="#E5ECE9"/>
<path d="M1521.81 618.453C1522.67 611.305 1520.2 605.805 1516.45 600.922C1510.7 593.443 1509.91 585.008 1511.28 576.2C1512.02 571.497 1513.53 566.904 1518.63 564.859C1523.82 562.776 1529.05 562.511 1533.58 566.103C1537.92 569.549 1538.63 574.557 1537.61 579.753C1537.11 582.311 1536.13 584.777 1535.18 587.931C1533.1 588.05 1530.91 588.174 1528.77 588.296C1528.29 587.025 1527.78 586.307 1527.79 585.589C1527.79 582.438 1528.19 579.265 1527.92 576.145C1527.82 574.896 1526.23 572.708 1525.55 572.791C1524.01 572.974 1521.77 574.016 1521.33 575.251C1519.73 579.692 1518.45 584.397 1520.74 589.029C1522.25 592.071 1523.99 595.009 1525.77 597.903C1530.91 606.255 1534.26 614.852 1530.1 624.713C1529.71 625.649 1529.8 626.782 1529.62 627.817C1528.09 636.933 1522.47 640.987 1513.48 639.457C1505.72 638.137 1501.54 631.307 1503.32 622.842C1503.8 620.543 1504.4 618.263 1504.77 615.947C1505.78 609.664 1506.49 609.25 1514.28 611.084C1513.87 615.626 1513.4 620.241 1513.05 624.866C1512.88 627.245 1512.72 629.826 1515.66 630.754C1518.03 631.501 1520.57 629.091 1521.24 625.437C1521.62 623.379 1521.61 621.249 1521.81 618.453Z" fill="#E5ECE9"/>
<path d="M1199.11 618.032C1201.05 605.727 1202.95 594.125 1204.79 582.515C1205.21 579.926 1205.31 577.288 1205.75 574.706C1207.14 566.546 1213.4 562.331 1221.88 563.75C1229.12 564.961 1233.1 571.08 1231.73 579.004C1231.37 581.063 1230.77 583.077 1230.35 585.127C1229.16 590.965 1228.78 591.176 1221.32 589.64C1221.53 585.812 1221.8 581.923 1221.92 578.029C1222 575.712 1222.29 572.527 1219 572.824C1217.32 572.976 1214.93 575.384 1214.48 577.182C1213.13 582.484 1212.6 587.991 1211.73 593.415C1210.45 601.421 1209.1 609.416 1207.88 617.431C1207.45 620.276 1207.22 623.161 1207.05 626.036C1206.89 628.677 1207.72 630.938 1210.83 630.823C1213.41 630.728 1215.06 629.34 1215.4 626.417C1215.94 621.748 1216.8 617.115 1217.58 612.476C1217.79 611.208 1218.19 609.973 1218.63 608.253C1221.18 608.253 1223.59 608.253 1227.02 608.253C1225.8 616.139 1225.06 623.397 1223.49 630.468C1222.01 637.081 1215.44 640.671 1208.17 639.671C1201.17 638.706 1197.36 634.074 1197.66 626.435C1197.76 623.854 1198.56 621.299 1199.11 618.032Z" fill="#E5ECE9"/>
<path d="M873.369 567.504C877.318 573.379 875.986 579.15 874.845 584.78C873.98 589.046 870.658 588.744 866.703 587.83C866.703 584.688 866.344 581.367 866.809 578.166C867.232 575.261 866.396 573.379 863.793 572.692C860.671 571.868 860.025 574.172 859.246 576.671C857.115 583.504 858.206 589.797 862.493 595.255C870.771 605.795 871.004 617.353 867.815 629.606C865.769 637.468 859.585 641.081 850.8 639.251C843.653 637.763 840.361 632.335 841.727 624.379C842.169 621.8 842.555 619.207 842.855 616.608C843.633 609.868 844.892 609.122 852.762 611.337C852.647 612.966 852.612 614.718 852.38 616.443C851.927 619.816 850.93 623.189 851.041 626.532C851.09 628.033 853.178 630.539 854.496 630.644C856.032 630.767 858.996 628.932 859.167 627.655C860.252 619.535 862.864 611.336 856.543 603.686C850.494 596.366 847.86 587.716 849.154 577.932C850.94 564.431 861.244 559.576 873.369 567.504Z" fill="#E5ECE9"/>
<path d="M660.714 610.598C660.585 617.961 660.521 624.54 660.338 631.115C660.122 638.874 659.557 639.252 650.224 637.52C650.575 632.569 650.936 627.472 651.295 622.394C645.377 620.252 643.993 620.701 642.579 625.609C642.002 627.61 641.977 629.764 641.572 631.822C640.354 638.004 639.408 638.62 631.585 637.93C630.933 629.404 635.468 621.996 637.252 614.056C639.088 605.885 641.481 597.837 643.68 589.749C645.87 581.696 648.122 573.66 650.399 565.431C654.492 565.431 658.021 565.431 662.552 565.431C661.929 580.584 661.328 595.199 660.714 610.598ZM654.563 594.272C654.202 592.504 653.84 590.737 653.123 587.232C648.653 594.448 648.487 600.853 646.817 606.765C646.165 609.074 645.718 611.896 649.24 612.09C652.246 612.256 652.904 609.769 653.159 607.226C653.55 603.333 654.058 599.452 654.563 594.272Z" fill="#E3EBE7"/>
<path d="M1301.99 635.322C1298.87 638.565 1298.87 638.565 1293.28 637.298C1293.45 633.615 1293.63 629.759 1293.81 625.904C1293.92 623.727 1293.98 621.478 1291.18 620.994C1288.19 620.476 1285.92 621.735 1285.15 624.706C1284.49 627.234 1284.53 629.941 1283.9 632.478C1282.35 638.688 1281.66 638.995 1273.53 637.482C1275.25 630.42 1276.83 623.354 1278.71 616.368C1282.52 602.208 1286.51 588.099 1290.38 573.956C1293.07 564.105 1293.29 563.944 1305.02 565.936C1304.04 588.751 1303.04 611.709 1301.99 635.322ZM1289.29 606.979C1288.9 609.41 1288.61 612.02 1292.02 612.19C1295.05 612.341 1295.81 610.091 1295.93 607.471C1296.2 601.755 1296.61 596.045 1296.82 590.328C1296.87 589.018 1296.39 587.688 1296.15 586.368C1295.68 586.35 1295.21 586.333 1294.74 586.316C1293.03 592.767 1291.32 599.219 1289.29 606.979Z" fill="#E7EDEA"/>
<path d="M1368.27 594.279C1369.76 584.311 1371.13 575.042 1372.63 564.973C1377.84 564.973 1382.22 564.81 1386.59 565.009C1393.97 565.344 1398.42 570.128 1397.54 577.327C1396.71 584.061 1395.36 590.757 1393.82 597.368C1392.07 604.842 1389.48 606.802 1382.01 607.535C1379.96 607.735 1377.94 608.077 1375.28 608.437C1373.87 616.571 1372.52 624.484 1371.13 632.39C1369.96 639.066 1369.71 639.194 1361.91 637.347C1362.23 623.016 1366.03 609.111 1368.27 594.279ZM1380.26 599.327C1381.77 598.402 1384.37 597.689 1384.59 596.516C1385.92 589.689 1386.77 582.764 1387.52 575.843C1387.61 575.009 1386.16 573.355 1385.27 573.225C1383.94 573.033 1382.31 573.621 1381.1 574.353C1380.37 574.796 1379.96 576.102 1379.79 577.087C1378.74 583.23 1377.65 589.376 1376.93 595.563C1376.8 596.679 1378.32 597.988 1380.26 599.327Z" fill="#E7EEEB"/>
<path d="M1616.09 615.898C1615.34 621.782 1614.66 626.977 1613.93 632.167C1612.97 639.025 1612.03 639.526 1604.03 637.125C1604.6 632.077 1604.99 626.901 1605.8 621.794C1608.43 605.254 1611.24 588.743 1613.92 572.211C1615.03 565.393 1615.37 565.023 1622.48 564.95C1624.84 564.926 1627.22 564.831 1629.57 565.023C1636.9 565.621 1641.1 570.737 1640 577.895C1638.97 584.63 1637.76 591.341 1636.49 598.035C1635.41 603.723 1631.73 606.778 1625.51 607.468C1618.18 608.281 1618.18 608.281 1616.09 615.898ZM1622.8 574.227C1621.86 579.367 1620.87 584.497 1620.01 589.652C1619.68 591.711 1619.41 593.841 1619.55 595.906C1619.76 598.812 1622.04 600.261 1624.45 598.842C1626.09 597.876 1627.95 596.098 1628.32 594.379C1629.44 589.293 1630.15 584.074 1630.51 578.872C1630.84 574.072 1629.92 573.542 1622.8 574.227Z" fill="#E8EEEB"/>
<path d="M456.033 617.348C457.806 624.274 453.499 629.981 452.113 636.268C451.929 637.104 450.078 638.207 449.17 638.067C448.284 637.931 446.997 636.39 446.956 635.419C446.73 630.17 446.886 624.906 446.808 619.649C446.768 616.957 446.513 614.269 446.356 611.579C445.805 611.534 445.254 611.489 444.703 611.444C444.169 613.004 443.4 614.527 443.143 616.132C442.232 621.822 441.579 627.553 440.669 633.243C439.842 638.409 439.564 638.511 433.254 637.881C431.884 631.33 440.181 576.256 444.27 565.268C446.707 565.268 449.275 565.268 452.224 565.268C454.488 571.035 452.992 577.085 453.16 582.985C453.331 589.027 453.08 595.081 452.555 602.232C451.873 605.649 451.65 607.964 451.394 610.819C452.349 612.193 453.336 613.026 454.531 614.3C455.17 615.609 455.601 616.478 456.033 617.348Z" fill="#E1E9E5"/>
<path d="M818.649 625.288C817.952 628.191 818.745 629.612 821.048 629.843C823.624 630.102 826.218 630.186 829.369 630.382C829.369 633.031 829.369 635.391 829.369 638.159C822.026 638.159 815.345 638.159 807.738 638.159C810.242 613.484 815.65 589.879 818.426 565.458C826.057 565.458 832.967 565.458 839.894 565.458C839.683 572.303 839.59 572.424 834.356 572.862C832.059 573.054 829.76 573.221 827.192 573.421C825.967 580.42 824.827 586.932 823.624 593.8C826.982 594.455 829.242 594.896 831.471 595.331C833.007 602.244 833.007 602.244 822.284 604.408C821.185 610.86 820.015 617.726 818.649 625.288Z" fill="#E4EBE8"/>
<path d="M1071.09 606.608C1073.18 592.497 1075.16 579.065 1077.17 565.373C1084.73 565.373 1091.17 565.373 1097.89 565.373C1097.89 567.724 1097.89 569.675 1097.89 572.022C1096 572.346 1094.51 572.734 1093.01 572.835C1085.35 573.354 1084.84 573.847 1083.96 581.611C1083.52 585.477 1082.95 589.329 1082.37 593.714C1085.29 594.362 1087.97 594.957 1091.03 595.637C1090.67 597.833 1090.35 599.831 1089.97 602.141C1088.35 602.465 1086.87 602.972 1085.37 603.021C1081.5 603.148 1079.83 605.029 1079.5 608.883C1079.02 614.621 1078.08 620.319 1077.42 626.045C1077.31 627.012 1077.68 628.033 1077.88 629.45C1081.14 629.785 1084.19 630.099 1087.2 630.408C1088.99 637.625 1088.48 638.467 1081.83 638.632C1076.93 638.754 1072.02 638.656 1065.77 638.656C1067.65 627.314 1069.32 617.301 1071.09 606.608Z" fill="#E5ECE9"/>
<path d="M938.243 611.35C940.866 595.744 943.254 580.798 945.705 565.456C953.024 565.456 959.727 565.456 966.814 565.456C967.9 568.869 967.9 571.794 963.724 572.651C960.95 573.22 958.021 573.034 955.27 573.18C950.876 579.478 951.967 586.524 950.748 593.592C953.422 594.288 955.835 594.917 958.861 595.705C958.438 597.939 958.03 600.102 957.658 602.068C948.72 604.092 948.919 604.121 947.682 612.699C946.49 620.966 944.829 629.165 943.273 637.96C940.847 638.197 938.624 638.414 935.827 638.687C933.654 629.184 938 620.736 938.243 611.35Z" fill="#E8EEEB"/>
<path d="M1006.17 634.829C1004.19 639.968 1000.8 638.538 996.404 637.753C999.651 616.426 1002.86 595.372 1006.13 573.841C1003.14 573.129 1000.73 572.555 997.937 571.891C997.349 568.619 997.104 565.398 1001.69 565.253C1009.5 565.007 1017.32 565.186 1025.76 565.186C1025.49 567.941 1025.31 569.874 1025.09 572.105C1021.85 572.463 1019.05 572.772 1015.62 573.151C1012.51 593.473 1009.39 613.838 1006.17 634.829Z" fill="#E3EBE7"/>
<path d="M612.282 604.068C613.788 593.821 615.253 584.283 616.794 574.248C614.049 573.441 611.638 572.732 609.227 572.022C608.091 565.587 608.266 565.113 613.49 564.992C620.817 564.822 628.151 564.949 635.433 564.949C635.9 571.745 635.947 572.089 630.956 572.768C626.741 573.342 625.346 575.343 624.776 579.377C622.208 597.552 619.344 615.685 616.53 633.825C615.74 638.915 614.233 639.42 606.851 637.073C608.64 626.355 610.441 615.566 612.282 604.068Z" fill="#E7EDEA"/>
<path d="M885.819 634.272C889.032 613.87 892.018 594.077 895.038 574.057C892.088 573.314 889.861 572.754 886.902 572.009C887.042 569.966 887.189 567.83 887.36 565.332C896.573 565.332 905.121 565.332 914.346 565.332C914.002 567.781 913.699 569.938 913.367 572.308C910.334 572.713 907.796 573.052 904.812 573.451C903.7 579.112 902.443 584.653 901.544 590.25C899.224 604.708 897.033 619.186 894.864 633.667C894.486 636.19 893.951 638.413 890.881 638.548C888.255 638.663 885.295 639.07 885.819 634.272Z" fill="#E4EBE8"/>
<path d="M456.427 617.182C455.601 616.479 455.17 615.61 454.723 613.813C455.045 611.56 455.382 610.234 455.784 608.359C455.97 606.346 456.091 604.883 456.212 603.421C459.902 590.919 463.592 578.417 467.402 565.509C470.825 565.509 474.059 565.509 477.867 565.509C476.486 575.916 475.316 585.747 473.849 595.532C472.064 607.446 470.033 619.323 468.1 631.215C467.849 632.76 468.051 634.776 467.15 635.723C465.896 637.041 463.826 638.078 462.05 638.171C461.284 638.211 459.506 635.466 459.68 634.191C460.777 626.181 462.294 618.23 464.195 609.171C464.854 602.41 467.615 596.856 465.489 590.969C462.367 598.3 459.859 605.755 457.433 613.237C457.21 613.925 457.511 614.783 457.568 615.562C457.319 616.047 457.07 616.531 456.427 617.182Z" fill="#EAF0ED"/>
<path d="M1419.17 570.584C1417.08 583.867 1415.06 596.498 1413.13 609.142C1412.23 615.08 1411.48 621.043 1410.66 626.994C1410.41 628.806 1410.28 630.653 1409.85 632.42C1408.34 638.519 1408.19 638.578 1401.19 638.074C1399.61 632.276 1406.92 581.186 1411.51 565.92C1419.37 564.315 1419.37 564.315 1419.17 570.584Z" fill="#E4EBE8"/>
<path d="M977.193 571.684C979.406 564.694 979.406 564.694 986.661 565.707C987.679 571.537 981.487 613.077 975.839 638.012C973.293 638.012 970.621 638.012 967.417 638.012C968.901 627.304 970.214 617.253 971.705 607.228C973.435 595.592 975.321 583.979 977.193 571.684Z" fill="#E5ECE9"/>
<path d="M671.944 637.45C672.283 630.026 672.777 623.021 673.848 616.106C676.362 599.861 679.148 583.658 681.848 567.442C681.929 566.956 682.276 566.514 682.752 565.53C685.182 565.53 687.853 565.53 691.248 565.53C689.816 575.439 688.537 584.701 687.124 593.944C685.23 606.336 683.158 618.701 681.305 631.1C680.235 638.258 679.711 638.774 671.944 637.45Z" fill="#E7EDEA"/>
<path d="M1596.2 604.999C1594.2 616.202 1592.38 626.726 1590.44 637.906C1587.64 637.906 1585 637.906 1581.4 637.906C1585.18 613.557 1588.89 589.707 1592.65 565.476C1595.88 565.476 1598.34 565.476 1601.94 565.476C1600.04 578.716 1598.21 591.518 1596.2 604.999Z" fill="#E7EDEA"/>
<path d="M1034.97 626.323C1034.38 629.921 1033.8 633.518 1033.1 637.859C1030.85 637.998 1028.72 638.129 1025.58 638.323C1027.01 628.91 1028.29 620.467 1030.27 611.103C1031.08 608.412 1031.19 606.641 1031.29 604.871C1032.81 594.087 1034.32 583.304 1036.48 571.678C1037.59 569.018 1038.05 567.199 1038.51 565.381C1040.75 565.381 1042.99 565.381 1045.65 565.381C1046.34 575.611 1047 585.346 1047.18 596.269C1046.54 602.891 1046.38 608.326 1045.83 613.754C1045.45 613.746 1044.67 613.74 1044.65 613.236C1043.87 611.441 1043.11 610.149 1042.35 608.857C1042.18 608.159 1042.01 607.462 1042.29 605.746C1043.08 599.553 1044.02 594.321 1041.58 588.627C1037.47 594.392 1038.3 600.15 1038.33 605.765C1038.18 606.946 1038.02 608.127 1037.17 610.136C1036.23 613.745 1035.99 616.525 1035.75 619.305C1035.67 620.29 1035.6 621.275 1035.04 622.943C1034.69 624.525 1034.83 625.424 1034.97 626.323Z" fill="#EFF3F1"/>
<path d="M1044.67 613.741C1044.67 613.741 1045.45 613.747 1045.87 614.336C1046.74 616.429 1047.19 617.933 1047.85 620.097C1051.04 615.235 1052.78 604.826 1052.32 595.99C1052.48 593.932 1052.64 591.873 1053.43 589.065C1056.22 586.28 1056.21 584.223 1054.13 582.145C1054.23 581.47 1054.33 580.795 1055.13 579.401C1056.16 575.392 1056.47 572.101 1056.79 568.81C1056.77 566.088 1058.02 564.769 1061.38 565.647C1062.47 566.745 1062.99 567.328 1063.51 567.911C1063.44 568.588 1063.37 569.266 1062.58 570.677C1061.6 574.71 1061.32 578.011 1061.04 581.312C1060.24 587.432 1059.43 593.553 1057.94 600.528C1055.49 607.758 1053.08 614.051 1054.8 620.865C1054.72 621.389 1054.63 621.912 1054.08 623.038C1053.76 624.549 1053.92 625.459 1054.07 626.368C1053.77 629.181 1053.46 631.993 1052.26 635.345C1049.06 635.337 1046.75 634.79 1044.45 634.243C1044.36 632.718 1044.27 631.193 1044.38 628.356C1044.61 622.61 1044.64 618.175 1044.67 613.741Z" fill="#FCFCFC"/>
<path d="M1051.73 596.18C1052.78 604.825 1051.04 615.234 1047.85 620.096C1047.19 617.932 1046.74 616.428 1046.25 614.343C1046.38 608.326 1046.54 602.891 1047.1 596.973C1048.72 596.45 1049.93 596.41 1051.73 596.18Z" fill="#CEDBD5"/>
<path d="M458.032 615.256C457.511 614.783 457.21 613.925 457.433 613.237C459.859 605.755 462.367 598.3 465.489 590.969C467.615 596.856 464.854 602.41 464.286 608.524C461.587 608.47 460.524 609.423 460.119 611.682C459.912 612.832 459.058 613.865 458.032 615.256Z" fill="#CEDBD5"/>
<path d="M1038.93 605.679C1038.3 600.15 1037.47 594.393 1041.58 588.628C1044.03 594.322 1043.08 599.554 1042.33 605.209C1041.13 605.657 1040.33 605.624 1038.93 605.679Z" fill="#CEDBD5"/>
<path d="M1044.65 613.237C1044.64 618.175 1044.61 622.609 1044.43 627.784C1043.52 626.761 1042.26 625.039 1042.11 623.226C1041.76 618.927 1041.94 614.584 1042.13 609.559C1043.11 610.15 1043.87 611.442 1044.65 613.237Z" fill="#CEDBD5"/>
<path d="M706.325 607.888C706.323 602.895 706.773 597.773 707.224 592.65C711.327 596.952 709.622 601.875 709.719 607.243C708.589 607.902 707.683 607.83 706.325 607.888Z" fill="#ADC3B9"/>
<path d="M1055.28 620.497C1053.08 614.051 1055.49 607.758 1057.79 601.168C1057.47 607.345 1056.62 613.737 1055.28 620.497Z" fill="#CEDBD5"/>
<path d="M718.456 600.551C719.765 603.993 718.568 606.912 715.258 609.678C715.187 607.043 715.115 604.408 715.235 601.105C716.29 600.491 717.154 600.545 718.456 600.551Z" fill="#ADC3B9"/>
<path d="M1340.54 615.396C1340.85 612.05 1341.67 608.707 1342.49 605.364C1343.18 605.49 1343.87 605.616 1344.55 605.742C1344.22 608.583 1343.89 611.423 1343.31 614.792C1342.38 615.346 1341.71 615.373 1340.54 615.396Z" fill="#709685"/>
<path d="M455.684 603.245C456.091 604.882 455.97 606.345 455.375 608.583C453.743 609.666 452.585 609.972 451.427 610.279C451.65 607.964 451.873 605.649 452.545 602.966C453.714 602.756 454.435 602.914 455.684 603.245Z" fill="#ADC3B9"/>
<path d="M1044.19 634.653C1046.75 634.789 1049.06 635.336 1051.97 635.872C1052.4 639.403 1049.71 638.76 1047.55 638.788C1045.13 638.82 1043.74 637.664 1044.19 634.653Z" fill="#CEDBD5"/>
<path d="M1061.52 580.954C1061.32 578.011 1061.6 574.71 1062.42 571.164C1062.64 574.144 1062.32 577.37 1061.52 580.954Z" fill="#CEDBD5"/>
<path d="M1056.27 569.127C1056.47 572.1 1056.16 575.391 1055.29 578.914C1055.08 575.912 1055.42 572.678 1056.27 569.127Z" fill="#CEDBD5"/>
<path d="M1036.19 618.923C1035.99 616.526 1036.23 613.746 1036.99 610.703C1037.22 613.141 1036.93 615.84 1036.19 618.923Z" fill="#CEDBD5"/>
<path d="M709.374 610.944C710.194 612.472 710.695 614.389 711.026 616.932C708.263 616.061 708.581 613.72 709.374 610.944Z" fill="#ADC3B9"/>
<path d="M1053.69 582.518C1056.21 584.223 1056.22 586.28 1053.58 588.463C1053.14 586.705 1053.2 584.798 1053.69 582.518Z" fill="#CEDBD5"/>
<path d="M715.166 588.095C714.533 586.612 714.216 584.744 714.269 582.521C714.919 584.014 715.2 585.863 715.166 588.095Z" fill="#ADC3B9"/>
<path d="M1037.98 565.422C1038.05 567.2 1037.59 569.019 1036.71 571.043C1036.68 569.32 1037.06 567.391 1037.98 565.422Z" fill="#CEDBD5"/>
<path d="M1341.34 638.714C1342.49 638.224 1343.83 638.14 1345.82 638.266C1345.09 640.825 1343.44 640.981 1341.34 638.714Z" fill="#709685"/>
<path d="M1030.86 605.21C1031.18 606.642 1031.08 608.413 1030.5 610.463C1030.16 609.012 1030.3 607.28 1030.86 605.21Z" fill="#CEDBD5"/>
<path d="M722.436 626.807C722.109 625.885 722.175 624.664 722.639 623.166C722.968 624.095 722.898 625.301 722.436 626.807Z" fill="#ADC3B9"/>
<path d="M720.828 636.373C720.461 635.549 720.415 634.493 720.777 633.061C721.172 633.837 721.16 634.989 720.828 636.373Z" fill="#ADC3B9"/>
<path d="M701.981 633.203C701.594 632.397 701.503 631.344 701.819 629.909C702.244 630.67 702.261 631.812 701.981 633.203Z" fill="#ADC3B9"/>
<path d="M1054.34 626.128C1053.92 625.458 1053.76 624.549 1053.95 623.416C1054.41 624.091 1054.51 624.989 1054.34 626.128Z" fill="#CEDBD5"/>
<path d="M1063.83 567.656C1062.99 567.327 1062.47 566.744 1061.92 565.754C1062.64 566.032 1063.4 566.717 1063.83 567.656Z" fill="#CEDBD5"/>
<path d="M1035.26 626.106C1034.83 625.424 1034.69 624.525 1034.9 623.419C1035.36 624.104 1035.46 624.997 1035.26 626.106Z" fill="#CEDBD5"/>
<path d="M703.213 623.558C702.962 622.629 703.137 621.438 703.705 619.986C703.946 620.916 703.793 622.106 703.213 623.558Z" fill="#ADC3B9"/>
<path d="M1080.78 1410.38C1076.26 1410.85 1072.3 1411.7 1068.46 1411.34C1051.67 1409.75 1043.61 1392.99 1052.34 1378.55C1056.17 1372.23 1062.24 1369.88 1068.88 1369.32C1077.76 1368.56 1086.39 1369.72 1091.96 1378.04C1100.07 1390.18 1095.32 1404.46 1080.78 1410.38Z" fill="#070808"/>
<path d="M871.366 1378.36C871.551 1375.12 871.736 1372.59 871.989 1369.11C885.068 1369.23 897.523 1367.85 909.866 1370.79C913.602 1371.68 915.412 1374.25 915.486 1378.25C915.563 1382.38 913.472 1384.67 909.842 1385.66C906.829 1386.48 903.706 1387.28 900.614 1387.35C891.488 1387.58 882.353 1387.43 872.257 1387.43C871.944 1384.5 871.655 1381.79 871.366 1378.36Z" fill="#090C0B"/>
<path d="M1655.2 1386.27C1643.3 1386.98 1632.07 1387.6 1620.1 1388.27C1620.1 1381.56 1620.1 1375.95 1620.1 1369.82C1621.67 1369.56 1623.42 1368.99 1625.14 1369.06C1635.62 1369.48 1646.14 1369.59 1656.54 1370.77C1662.56 1371.45 1664.84 1375.97 1663.19 1381.02C1662.04 1384.54 1658.99 1385.45 1655.2 1386.27Z" fill="#090C0B"/>
<path d="M592.112 1395.28C591.814 1396.37 591.341 1397.34 590.857 1397.35C583.009 1397.44 575.159 1397.42 566.085 1397.42C569.092 1388.19 574.814 1381.52 579.188 1371.98C584.081 1380.71 588.007 1387.71 592.112 1395.28Z" fill="#090C0B"/>
<path d="M914.78 989.553C915.03 991.061 914.977 992.198 914.925 993.335C914.501 993.286 914.077 993.237 913.653 993.188C913.928 991.852 914.202 990.517 914.78 989.553Z" fill="#070707"/>
<path d="M585.737 933.737C586.118 934.024 586.189 934.574 586.259 935.124C585.981 934.75 585.704 934.376 585.737 933.737Z" fill="#070707"/>
<path d="M780.548 598.748C780.346 599.757 779.829 600.365 779.312 600.974C779.036 600.641 778.48 600.069 778.527 600.013C779.041 599.411 779.65 598.89 780.548 598.748Z" fill="#41765E"/>
<path d="M496.954 582.613C497.595 579.662 497.799 577.169 498.912 575.188C499.64 573.894 502.115 572.304 503.045 572.69C504.619 573.342 506.629 575.46 506.618 576.948C506.587 581.366 505.751 585.792 505.065 590.188C503.375 601.016 501.591 611.829 499.855 622.649C499.73 623.424 499.731 624.219 499.596 624.992C498.83 629.381 496.849 631.658 494.007 631.13C490.075 630.399 490.142 627.256 490.556 624.361C491.554 617.375 492.835 610.43 493.922 603.456C494.968 596.742 495.913 590.012 496.954 582.613Z" fill="#54826D"/>
<path d="M1448.45 581.771C1446.3 596.107 1444.21 609.774 1442.1 623.438C1441.9 624.725 1442 626.379 1441.24 627.188C1439.76 628.764 1437.84 630.814 1435.98 630.94C1432.96 631.146 1432.49 628.232 1432.79 625.77C1433.77 617.729 1434.85 609.697 1436 601.679C1437.08 594.181 1438.31 586.704 1439.47 579.218C1439.63 578.186 1439.43 576.746 1440.03 576.202C1441.65 574.744 1443.5 573.152 1445.49 572.723C1446.21 572.569 1447.87 575.487 1448.59 577.215C1449.05 578.307 1448.57 579.791 1448.45 581.771Z" fill="#54826D"/>
<path d="M654.54 594.918C654.058 599.451 653.551 603.332 653.159 607.226C652.904 609.769 652.246 612.255 649.24 612.089C645.718 611.895 646.165 609.074 646.817 606.765C648.487 600.852 648.653 594.447 653.123 587.231C653.84 590.737 654.202 592.504 654.54 594.918Z" fill="#709685"/>
<path d="M1289.45 606.325C1291.32 599.219 1293.03 592.767 1294.74 586.315C1295.21 586.333 1295.68 586.35 1296.15 586.367C1296.39 587.688 1296.87 589.018 1296.82 590.328C1296.61 596.045 1296.2 601.755 1295.93 607.471C1295.81 610.091 1295.05 612.34 1292.02 612.19C1288.61 612.02 1288.9 609.41 1289.45 606.325Z" fill="#709685"/>
<path d="M1379.67 599.268C1378.32 597.989 1376.8 596.68 1376.93 595.564C1377.65 589.377 1378.74 583.231 1379.79 577.088C1379.96 576.103 1380.37 574.797 1381.1 574.354C1382.31 573.622 1383.94 573.034 1385.27 573.226C1386.16 573.356 1387.61 575.01 1387.52 575.844C1386.77 582.765 1385.92 589.69 1384.59 596.517C1384.37 597.69 1381.77 598.403 1379.67 599.268Z" fill="#54826D"/>
<path d="M1623.26 573.765C1629.92 573.542 1630.84 574.072 1630.51 578.872C1630.15 584.074 1629.45 589.293 1628.32 594.379C1627.95 596.098 1626.09 597.876 1624.45 598.841C1622.04 600.261 1619.76 598.811 1619.56 595.905C1619.41 593.84 1619.68 591.711 1620.02 589.652C1620.87 584.497 1621.86 579.367 1623.26 573.765Z" fill="#54826D"/>
<path d="M451.395 610.82C452.585 609.973 453.742 609.666 455.309 609.134C455.382 610.234 455.045 611.559 454.516 613.372C453.336 613.027 452.349 612.193 451.395 610.82Z" fill="#CEDBD5"/>
</g>
<defs>
<clipPath id="clip0_46_1036">
<rect width="2000" height="2000" fill="white"/>
</clipPath>
</defs>
</svg>
