<svg width="750" height="275" viewBox="0 0 750 275" fill="none" xmlns="http://www.w3.org/2000/svg">
<path fill-rule="evenodd" clip-rule="evenodd" d="M85 93.2134V141.427L89.4697 146.576C91.9244 149.413 100.03 159.049 107.486 167.983L121.026 184.252L128.333 184.491L135.64 184.737L136.068 196.205L136.49 207.673H147.553L147.793 195.994L148.033 184.309H162.875L171.54 173.902C177.528 166.728 183.557 159.586 189.624 152.478L199.043 141.461V125.62L193.3 125.877L187.552 126.123L187.301 131.534L187.044 136.946L177.054 148.522C171.99 154.387 166.981 160.299 162.03 166.259L157.006 172.418H126.797L123.463 168.382L108.519 150.469L96.9135 136.598V56.8907H187.13V68.7813H199.043V45H85V93.2134ZM530.532 65.6931C515.998 69.4093 507.093 81.7623 508.166 96.7241C509.274 112.126 520.143 122.817 535.698 123.822C542.703 124.262 547.954 122.869 554.251 118.896C558.344 116.293 563.299 109.637 563.299 106.731C563.299 105.218 562.819 105.116 557.836 105.515C552.869 105.915 552.116 106.234 549.667 109.02C542.126 117.594 526.685 115.259 521.501 104.773C518.756 99.1845 518.693 89.5715 521.399 84.3882C527.136 73.3766 541.487 71.47 550.055 80.5636C552.338 82.9954 553.006 83.2237 557.933 83.2237C562.214 83.2237 563.299 82.9611 563.299 81.9107C563.299 77.5552 554.958 69.1981 548.337 66.9147C542.48 64.8939 535.538 64.4087 530.532 65.6931ZM242.547 68.9926C241.697 70.9848 240.327 74.701 239.505 77.2755C237.826 82.4588 228.476 108.472 225.062 117.44C222.533 124.085 222.653 124.233 229.783 123.834L234.361 123.577L236.382 117.84L238.397 112.108H261.037L262.875 117.628L264.713 123.148H276.318L272.636 113.17C268.966 103.22 257.144 69.7004 256.305 66.8747C255.945 65.6417 254.855 65.3848 249.98 65.3848H244.088L242.547 68.9926ZM283.3 94.3209V123.263L297.982 122.989C311.796 122.732 312.938 122.589 317.47 120.477C327.877 115.608 332.683 107.342 332.621 94.4465C332.564 83.0638 329.407 76.522 321.301 70.9734C315.256 66.8519 308.371 65.4134 294.574 65.402L283.3 65.3848V94.3209ZM336.063 65.9785C336.063 66.5893 340.464 78.6798 352.743 111.886L356.916 123.131H363.452L369.988 123.148L372.505 116.567C377.86 102.598 390.533 67.3143 390.533 66.3724C390.533 65.7273 388.683 65.3848 385.195 65.3848H379.858L372.74 85.958C364.291 110.373 363.577 112.131 362.989 110.407L357.886 95.9649C355.336 88.7539 352.809 81.5345 350.305 74.3071L347.366 65.8073L341.714 65.5561C338.609 65.4191 336.063 65.6132 336.063 65.9785ZM411.74 67.6796C411.226 68.9868 408.788 75.9854 406.294 83.2237C403.246 92.0201 400.144 100.798 396.989 109.557C394.38 116.789 392.234 122.829 392.234 122.972C392.234 123.114 394.797 123.114 397.942 122.972L403.639 122.726L405.34 117.389L407.041 112.063L418.51 112.291L429.972 112.531L431.639 117.628C432.564 120.426 433.477 122.892 433.666 123.114C434.037 123.542 444.318 123.268 444.751 122.829C444.906 122.68 444.106 120.106 442.982 117.12C441.857 114.135 439.157 106.526 436.988 100.212C434.338 92.5589 431.667 84.9133 428.973 77.2755L424.92 65.8073L418.789 65.5561C412.756 65.3163 412.624 65.3506 411.74 67.6796ZM452.384 65.9557C452.064 66.2582 451.813 79.2563 451.813 94.8404V123.154H462.842L463.07 103.631L463.298 84.0971L476.256 103.626L489.22 123.148H500.346L500.118 94.4807L499.889 65.8073H489.683L489.254 85.7696C488.866 104.059 488.718 105.549 487.553 103.511C486.857 102.278 480.914 93.2077 474.367 83.3322L462.448 65.402L457.698 65.3962C455.084 65.3962 452.686 65.6417 452.378 65.9557M573.248 65.9385C572.923 66.2525 572.66 79.2563 572.66 94.8346V123.148H605.849V114.7L595.003 114.472L584.151 114.232L583.9 106.4L583.666 98.568L593.69 98.3282L603.726 98.0885L603.811 94.6919C603.954 89.0977 604.08 89.1719 593.422 89.1719H583.723V74.7809L595.003 74.5412L606.277 74.3071V65.8073L590.054 65.5789C581.126 65.4533 573.568 65.6132 573.248 65.9385ZM616.062 94.3323V123.286L631.172 123C645.614 122.726 646.465 122.612 650.535 120.454C655.824 117.553 660.152 113.177 662.991 107.861C664.743 104.522 665 102.855 665 94.6919C665 86.1978 664.795 84.959 662.728 81.0488C660.176 76.2137 655.239 71.4015 650.249 68.8613C645.648 66.5151 637.879 65.4019 626.063 65.3962L616.062 65.3848V94.3323ZM139.35 68.5587C134.258 74.0959 122.738 90.7817 117.492 100.218C115.582 103.915 113.953 107.751 112.617 111.692C105.944 131.608 116.425 149.75 136.502 153.078C147.433 154.882 157.965 151.417 165.289 143.602C170.569 137.979 172.841 132.773 173.327 125.209C173.795 117.999 172.276 112.068 167.538 102.552C161.99 91.4553 145.247 67.4227 142.404 66.5037C141.919 66.3438 140.543 67.2686 139.35 68.5587ZM294.363 94.7034V114.911L301.766 114.386C311.813 113.684 316.032 111.515 319.234 105.39C321.135 101.759 321.598 99.761 321.598 95.1543C321.598 81.3399 316.123 75.7399 301.824 74.9236L294.363 74.4955V94.7034ZM627.324 94.3608L627.553 114.238L634.363 114.021C643.108 113.741 645.911 112.765 649.57 108.723C657.87 99.5555 655.233 82.2019 644.718 76.7218C643.382 76.0368 638.884 75.2433 634.694 74.975L627.096 74.4784L627.324 94.3608ZM187.13 85.7754V91.7236H199.043V79.8329H187.13V85.7754ZM249.255 79.9356C249.255 80.1354 247.879 84.3197 246.195 89.2004C244.511 94.0811 242.815 99.1388 242.427 100.429L241.714 102.769H257.646L253.901 91.598C250.647 81.9393 249.255 78.4286 249.255 79.9356ZM414.805 90.6675C413.001 96.1476 411.357 101.12 411.146 101.708C410.872 102.507 412.693 102.769 418.527 102.769C422.785 102.769 426.279 102.547 426.279 102.273C426.279 100.754 419.258 80.6834 418.721 80.6834C418.378 80.6834 416.609 85.1817 414.805 90.6675ZM187.307 108.929L187.552 115.082H198.621L198.872 108.929L199.117 102.764H187.044L187.307 108.929ZM118.646 126.499C118.36 126.95 118.394 128.383 118.714 129.685C120.455 136.906 125.69 142.426 131.518 143.191L134.789 143.613L132.66 142.089C127.294 138.219 124.131 134.611 122.362 130.324C120.467 125.757 119.633 124.901 118.646 126.499ZM339.556 149.008C321.997 154.699 313.914 174.867 322.454 191.604C326.09 198.705 331.245 202.901 339.648 205.601C353.662 210.105 368.909 203.569 375.051 190.44C377.009 186.244 377.323 184.474 377.323 177.51C377.323 170.568 377.009 168.77 375.08 164.632C372.055 158.428 367.006 153.436 360.763 150.475C355.038 147.837 345.248 147.158 339.556 149.008ZM249.255 177.476V206.4H254.364C257.869 206.4 259.478 206.058 259.496 205.339C259.513 204.756 259.598 196.736 259.673 187.5C259.758 178.286 260.101 171.025 260.449 171.362C260.791 171.722 264.262 179.639 268.155 188.99L275.245 205.978L279.561 206.235L283.876 206.486L290.926 190.091C301.173 166.259 300.242 166.458 300.288 187.968L300.322 206.486L305.637 206.235C310.535 205.995 310.946 205.824 310.9 204.066C310.799 194.495 310.726 184.923 310.683 175.352L310.535 148.562L304.507 148.819L298.484 149.065L289.505 170.089C284.573 181.649 280.246 191.113 279.892 191.113C279.538 191.113 278.099 188.345 276.678 184.954L267.773 163.93L261.471 149.065L255.363 148.808L249.255 148.562V177.476ZM386.28 177.521V206.537L401.807 206.258C416.489 205.995 417.545 205.869 420.999 203.877C429.675 198.928 431.257 187.608 424.31 180.284C422.865 178.76 421.187 177.521 420.576 177.521C418.841 177.521 419.28 175.991 421.204 175.386C424.241 174.416 427.221 168.873 427.255 164.118C427.312 158.147 425.16 154.151 420.422 151.377C416.609 149.133 416.038 149.053 401.384 148.785L386.28 148.5V177.521ZM437.913 149.208C437.599 149.516 437.342 162.508 437.342 178.092V206.406H448.405V148.637H443.439C440.71 148.637 438.215 148.894 437.913 149.208ZM460.039 149.208C459.725 149.516 459.468 162.508 459.468 178.092V206.406H489.254V197.969L480.109 197.723L470.959 197.484L470.736 173.063L470.508 148.637H465.553C462.83 148.637 460.347 148.894 460.039 149.208ZM495.596 149.71C495.374 150.298 495.288 163.199 495.419 178.378L495.636 205.978L512.065 206.206L528.489 206.435L528.237 201.959L527.98 197.484L517.129 197.244L506.277 197.01V181.826L515.85 181.58L525.429 181.346L525.68 176.882L525.937 172.424H506.208L506.465 164.991L506.705 157.559L516.489 157.513C521.878 157.49 526.707 157.399 527.25 157.302C528.734 157.051 529.35 154.67 528.751 151.502L528.22 148.637H512.117C499.958 148.637 495.91 148.894 495.602 149.71M559.896 177.487V206.4H570.982L570.754 177.733L570.531 149.065L565.211 148.808L559.896 148.551V177.487ZM577.764 149.898C577.764 150.595 579.722 156.417 582.102 162.851C589.911 183.926 594.923 197.41 596.642 201.976L598.343 206.48L604.805 206.223L611.267 205.978L612.785 202.153C615.051 196.462 631.537 151.862 632.028 150.081C632.411 148.711 631.891 148.58 626.668 148.808C621.074 149.053 620.857 149.15 620.063 151.611C619.338 153.866 606.523 190.382 605.307 193.659C604.947 194.612 604.611 194.39 603.977 192.809C602.955 190.263 592.863 161.469 590.362 153.946L588.593 148.637H583.181C578.968 148.637 577.764 148.928 577.764 149.898ZM344.032 157.913C339.346 159.151 335.335 162.18 332.866 166.344C330.811 169.826 330.531 171.174 330.531 177.59C330.531 184.206 330.771 185.251 333.089 188.99C337.427 195.988 345.79 198.785 354.747 196.216C361.231 194.367 366.706 185.884 366.706 177.71C366.706 170.106 362.396 162.308 356.533 159.271C353.616 157.77 347.343 157.085 344.02 157.913M397.126 157.61C396.783 157.976 396.492 161.446 396.492 165.34V172.424H404.039C413.572 172.424 416.067 170.945 416.067 165.288C416.067 159.557 413.538 157.77 404.781 157.319C400.922 157.119 397.474 157.251 397.132 157.605M397.057 181.477C396.743 181.791 396.487 185.428 396.487 189.549V197.061H404.907C414.645 197.061 416.655 196.079 417.477 190.919C418.116 186.952 416.226 183.801 412.202 182.128C409.279 180.912 398.102 180.433 397.052 181.489M136.69 218.89C135.68 220.62 135.246 227.596 136.022 229.622C136.821 231.734 137.238 231.889 142.033 231.889C146.68 231.889 147.268 231.683 148.135 229.788C148.78 228.361 148.849 226.266 148.329 223.206L147.565 218.719L142.318 218.468C139.424 218.331 136.901 218.525 136.69 218.89Z" fill="black"/>
</svg>
