<svg width="750" height="275" viewBox="0 0 750 275" fill="none" xmlns="http://www.w3.org/2000/svg">
<path fill-rule="evenodd" clip-rule="evenodd" d="M659.384 72.4703C645.683 74.5464 633.182 82.0184 625.987 92.4547C618.626 103.113 617.028 117.635 621.646 131.78C624.344 140.04 624.755 143.359 623.223 144.303C620.303 146.102 624.344 154.362 630.828 159.824C632.971 161.612 633.27 162.733 633.648 170.427C634.014 177.977 634.47 179.742 637.467 185.26C639.81 189.568 642.663 192.976 646.593 196.174C654.643 202.724 657.785 203.835 667.177 203.435L675.016 203.102L682.454 197.506C688.594 192.899 690.581 190.689 693.757 184.972C697.343 178.543 697.631 177.477 697.631 170.483L697.643 162.933L702.328 157.682C709.3 149.877 709.933 148.378 707.835 144.492C706.136 141.35 706.147 141.183 708.778 133.645C716.439 111.828 710.244 91.622 692.258 79.7313C682.534 73.4334 670.865 70.8545 659.384 72.4703ZM659.95 76.3783C653.648 77.5311 647.572 79.6864 641.953 82.7622C636.923 85.6822 628.852 94.1312 626.365 99.0828C621.469 108.798 621.191 121.565 625.665 132.69C628.463 139.696 628.552 141.017 626.554 144.881C625.11 147.689 625.155 147.9 628.496 152.43C632.393 157.737 633.359 158.27 639.01 158.292C644.162 158.303 645.294 159.069 646.938 163.677C648.248 167.363 648.27 167.385 648.314 164.51C648.381 159.469 646.061 157.315 640.509 157.315C637.845 157.315 634.836 156.871 633.826 156.327C631.339 154.995 626.776 147.057 627.664 145.613C628.052 144.98 628.696 142.727 629.085 140.628C629.64 137.564 629.307 135.876 627.386 132.057C620.536 118.479 623.689 99.86 634.536 89.6902C641.42 83.2285 652.611 78.3546 663.947 76.8668C667.444 76.4116 668.787 76.6447 670.075 77.9215C671.285 79.1206 671.907 79.2538 672.44 78.4212C672.973 77.5552 674.638 77.7328 679.101 79.1206C690.759 82.74 698.919 89.9122 704.215 101.148C706.48 105.977 706.824 107.931 706.824 115.87C706.824 123.975 706.491 125.751 703.993 131.147C701.373 136.809 701.251 137.586 702.306 141.516C704.015 147.923 703.749 149.255 699.952 153.463C696.666 157.093 696.144 157.315 690.959 157.315C687.939 157.315 684.953 157.837 684.309 158.47C683.665 159.103 683.198 161.601 683.265 164.021C683.332 166.441 683.565 167.53 683.798 166.464C685.33 159.536 686.24 158.859 695.133 158.048C697.121 157.87 699.064 156.46 701.839 153.185L705.747 148.578L704.06 143.903L702.361 139.229L705.07 133.09C707.502 127.594 707.779 125.862 707.79 116.336C707.79 106.299 707.624 105.356 704.682 99.3826C698.919 87.7472 686.185 78.51 672.895 76.345C666.567 75.3014 666.123 75.3125 659.95 76.3783ZM671.585 80.6971C671.585 81.2301 672.007 82.3181 672.518 83.1064C673.028 83.8947 673.45 84.1167 673.45 83.5838C673.45 83.0509 673.028 81.9739 672.518 81.1745C672.007 80.3752 671.585 80.1753 671.585 80.6971ZM628.707 109.997C627.708 115.026 627.93 118.634 629.651 124.963C631.794 132.812 632.549 133.345 633.359 127.55C633.87 123.83 633.526 120.999 631.938 115.648C631.131 113.006 630.35 110.356 629.596 107.698C629.462 107.165 629.063 108.209 628.707 109.997ZM699.808 114.182C697.554 120.488 697.254 123.486 698.298 129.77L698.919 133.545L700.674 128.016C702.916 120.966 703.738 114.193 702.75 110.807C702.028 108.298 701.862 108.487 699.808 114.182ZM677.025 113.039C673.661 115.67 674.294 116.403 678.58 114.859C682.343 113.516 687.018 114.282 687.018 116.269C687.018 117.535 688.994 118.768 691.026 118.768C691.536 118.768 691.847 118.001 691.692 117.08C691.536 116.158 691.769 114.826 692.213 114.116C693.302 112.384 693.179 112.339 686.007 111.606C680.4 111.029 679.379 111.185 677.014 113.05M638.888 115.825C640.432 118.301 644.662 119.078 650.291 117.935L654.643 117.047L649.036 116.936C645.95 116.88 642.13 116.17 640.532 115.348C637.723 113.905 637.689 113.894 638.888 115.825ZM349.702 121.576C347.682 122.065 345.428 125.795 335.98 144.314C329.762 156.494 324.644 166.797 324.622 167.185C324.6 167.574 326.776 167.918 329.452 167.918H334.359L342.752 150.587C347.371 141.061 351.412 133.267 351.712 133.245C352.012 133.223 356.02 141.017 360.605 150.565L368.932 167.918H373.817C376.504 167.918 378.702 167.763 378.702 167.574C378.702 166.264 357.441 123.83 356.375 123.009C355.472 122.236 354.39 121.701 353.226 121.45C352.063 121.2 350.856 121.244 349.714 121.576M49.1255 123.852C46.1278 125.429 44.1404 127.516 41.9977 131.291C39.4108 135.876 39.0222 137.486 39 143.804C39 155.494 42.6305 162.533 50.5355 166.108C53.8995 167.641 57.1081 167.885 74.0061 167.896L93.5797 167.918V155.461C93.5797 148.622 93.3133 142.327 93.0024 141.494C92.5805 140.428 91.1483 139.962 88.1617 139.962H83.9095V159.247L71.5857 159.18C57.2636 159.125 53.4221 158.104 50.3689 153.552C47.671 149.577 47.3713 141.672 49.7028 136.765C52.5561 130.836 54.5324 130.325 74.5168 130.325H92.3695L92.9469 127.439C94.1237 121.61 94.2903 121.665 72.8514 121.665C54.3658 121.665 53.0668 121.787 49.1255 123.852ZM99.0532 123.819C100.108 125.018 105.193 130.869 110.333 136.831L119.671 147.667V167.918H123.923C129.174 167.918 129.341 167.53 129.341 155.672V146.479L137.457 137.198C141.92 132.09 146.705 126.872 148.093 125.584C149.481 124.297 150.602 122.887 150.602 122.454C150.602 122.021 148.104 121.676 145.051 121.71L139.488 121.776L133.693 128.46C130.495 132.124 126.998 136.232 125.91 137.564L123.934 139.984L116.273 130.836L108.612 121.654H97.1214L99.0532 123.819ZM154.466 144.736V167.918H158.707C163.869 167.918 163.769 168.251 163.603 152.741C163.536 146.246 163.625 140.928 163.792 140.928C163.958 140.928 167.178 147.001 170.897 154.429L177.67 167.918H185.397L191.87 154.451C195.423 147.045 198.509 141.15 198.72 141.361C198.931 141.572 199.164 147.512 199.253 154.584L199.408 167.43L204.027 167.718L208.635 168.018L208.368 145.08L208.113 122.143L203.55 121.843L198.987 121.554L190.149 139.163L181.311 156.771L172.474 139.451L163.647 122.132L159.062 121.843L154.466 121.554V144.736ZM214.397 125.995V130.325H234.492C255.698 130.325 256.919 130.569 256.919 134.777C256.919 140.084 257.385 139.962 235.014 139.962H214.286L214.574 144.447L214.874 148.933L232.061 158.481L249.258 167.996L256.697 167.718L264.169 167.43L249.714 158.77L235.247 150.088L246.805 149.599C259.184 149.066 261.338 148.344 264.047 143.759C266.045 140.384 266.101 131.18 264.158 127.405C261.405 122.109 259.184 121.654 235.702 121.654H214.386L214.397 125.995ZM270.453 125.995V130.325H320.714V121.665H270.453V125.995ZM382.299 122.376C382.088 122.776 381.844 124.73 381.722 126.706L381.533 130.325H402.239C425.11 130.325 425.477 130.436 424.922 136.298L424.611 139.485L403.35 139.962L382.077 140.451L381.811 154.184L381.544 167.918H391.259V149.71L409.223 149.433L427.175 149.122L430.484 145.524C432.738 143.071 433.815 140.917 433.892 138.785C434.181 129.814 432.549 125.462 428.019 123.131C425.743 121.943 421.047 121.654 403.927 121.654C392.236 121.654 382.499 121.987 382.299 122.376ZM438.622 125.995V130.325H487.917V121.665H438.622V125.995ZM492.747 125.995V130.325L512.798 130.347C523.834 130.347 533.337 130.68 533.937 131.069C535.702 132.224 536.424 135.887 535.302 137.986C534.314 139.829 533.193 139.94 513.753 140.184L493.235 140.451V148.777L510.533 158.381L527.819 167.996L535.591 167.707L543.363 167.43L528.508 158.77L513.653 150.088L525.366 149.599C535.247 149.199 537.501 148.822 539.799 147.112C545.983 142.538 546.405 130.625 540.598 124.841L537.401 121.654H492.736L492.747 125.995ZM552.767 124.13C547.104 128.871 546.294 142.094 551.345 146.835C553.721 149.055 554.31 149.133 573.04 149.421L592.302 149.71V153.896C592.302 156.816 591.836 158.248 590.77 158.659C589.926 158.992 580.134 159.247 569.021 159.247H548.814V167.907H571.397C593.091 167.907 594.079 167.829 596.632 165.82C603.882 160.135 603.671 145.28 596.299 141.483C593.946 140.262 589.815 139.962 575.427 139.962H557.507V136.298C557.507 134.3 558.029 132.124 558.662 131.491C559.495 130.658 565.69 130.325 580.412 130.325H600.996V121.665H555.72L552.767 124.13ZM663.825 124.352C663.825 126.339 664.313 127.061 665.767 127.183C667.344 127.294 667.666 126.795 667.488 124.474C667.189 120.577 663.825 120.466 663.825 124.352ZM676.159 124.074C674.827 125.407 673.495 127.894 673.206 129.626C672.917 131.358 672.384 133.5 672.018 134.422C671.541 135.61 671.807 136.11 672.895 136.11C673.75 136.11 674.45 136.443 674.461 136.831C674.472 137.22 675.904 138.53 677.647 139.718C679.956 141.283 682.266 141.894 685.863 141.894C692.413 141.894 694.745 139.751 694.745 133.767C694.745 128.726 692.524 126.495 685.641 124.563C683.22 123.897 681.488 122.964 681.766 122.498C682.976 120.566 678.38 121.843 676.159 124.074ZM648.914 123.453C648.636 123.908 646.427 124.841 643.984 125.507C638.256 127.117 635.424 130.581 636.157 135.088C636.979 140.162 639.51 142.083 645.272 142.049C650.535 142.005 654.51 140.406 657.474 137.153C659.273 135.166 659.272 134.933 657.663 129.826C656.064 124.785 654.032 122.609 650.89 122.609C650.091 122.609 649.203 122.998 648.914 123.453ZM672.562 138.208C672.54 139.096 673.661 141.172 675.071 142.827C676.959 145.08 677.714 147.245 678.069 151.342C678.302 154.362 678.657 156.982 678.824 157.16C678.99 157.337 679.834 156.15 680.689 154.506C681.544 152.863 682.865 151.531 683.665 151.531C686.229 151.531 685.152 149.754 680.734 146.712C678.335 145.08 675.538 142.127 674.494 140.162C673.45 138.197 672.584 137.32 672.562 138.208ZM656.308 141.483C655.109 143.304 654.332 144.781 654.565 144.781C655.231 144.781 659.228 138.941 658.839 138.53C658.651 138.341 657.507 139.673 656.308 141.483ZM665.19 139.784C661.282 142.926 658.384 154.107 660.638 157.304C662.481 159.947 664.79 158.27 664.79 154.306C664.79 152.785 665.223 151.531 665.756 151.531C666.289 151.531 666.722 152.53 666.722 153.751C666.722 154.973 667.277 156.738 667.955 157.682C669.132 159.28 669.287 159.269 670.908 157.493C672.496 155.739 672.518 155.195 671.119 149.177C670.297 145.647 669.076 141.716 668.41 140.451C667.255 138.252 667.111 138.23 665.19 139.784ZM632.56 139.962C630.939 144.98 631.117 147.49 633.237 149.477C635.946 152.019 636.401 152.03 637.034 149.599C637.423 148.122 638.389 147.656 641.253 147.601C643.175 147.595 645.084 147.295 646.915 146.712C648.381 146.08 647.826 145.869 644.484 145.791C639.392 145.665 635.987 144.011 634.27 140.828C633.326 139.085 632.915 138.863 632.56 139.962ZM695.7 142.027C693.69 144.525 692.424 145.114 688.128 145.513C682.421 146.068 683.098 147.634 689.072 147.667C691.625 147.667 692.98 148.267 694.034 149.843C695.467 151.986 695.511 151.997 697.532 150.176C699.585 148.333 700.141 144.137 698.786 140.706C698.209 139.263 697.787 139.44 695.7 142.027ZM270.842 141.305C270.542 142.06 270.453 144.126 270.62 145.902L270.93 149.122L295.867 149.388L320.814 149.632L320.525 145.047L320.225 140.451L295.8 140.184C275.394 139.973 271.286 140.162 270.842 141.305ZM438.622 144.781V149.599H487.917V139.962H438.622V144.781ZM649.569 148.755C646.371 150.787 645.206 153.174 647.904 152.13C648.888 151.76 649.687 152.371 650.302 153.962C651.745 157.748 652.966 156.76 653.333 151.531C653.521 148.877 653.455 146.712 653.188 146.735C652.922 146.757 651.301 147.645 649.569 148.755ZM270.642 163.821L270.93 168.396L294.135 168.451C306.891 168.473 318.094 168.34 319.015 168.151C320.325 167.863 320.714 166.797 320.714 163.522V159.247H270.342L270.642 163.821ZM438.367 159.935C438.145 160.346 438.011 162.2 438.067 164.066L438.145 167.43L463.014 167.696L487.862 167.94L488.461 165.609C488.789 164.262 488.872 162.866 488.705 161.49C488.394 159.847 486.707 159.713 463.569 159.469C449.913 159.325 438.589 159.525 438.367 159.935ZM636.468 160.879C635.691 162.167 637.467 178.166 638.633 180.342C640.354 183.539 640.443 182.762 639.01 177.311C638.266 174.399 637.918 171.4 637.978 168.396L638.278 164.543L640.842 169.839C643.862 176.078 644.062 175.468 641.775 166.952C640.665 162.844 639.555 160.602 638.511 160.402C637.645 160.235 636.735 160.446 636.468 160.879ZM689.96 164.832C689.356 167.14 688.852 169.474 688.45 171.826C687.961 174.802 688.194 174.591 690.581 169.839L693.246 164.543L693.579 169.772C693.834 174.113 693.39 175.967 690.948 180.619C687.395 187.37 687.795 188.036 691.57 181.652C693.746 177.944 694.356 175.546 694.745 169.117C695.222 161.412 695.167 161.168 693.091 161.168C691.425 161.168 690.737 162 689.96 164.832ZM648.403 169.361L647.959 173.458C647.815 174.657 648.07 175.623 648.514 175.623C648.958 175.623 649.325 176.345 649.325 177.233C649.325 178.121 649.502 178.654 649.724 178.432C649.946 178.21 649.791 175.634 649.358 172.737C648.947 169.817 648.525 168.296 648.403 169.361ZM653.344 170.982C653.244 172.548 652.533 173.714 651.501 173.969C649.902 174.346 649.902 174.413 651.534 175.113C653.888 176.123 654.354 175.423 653.899 171.626C653.566 168.962 653.466 168.851 653.344 170.982ZM677.436 170.405C677.481 171.526 677.703 171.748 678.002 170.982C678.302 170.294 678.258 169.461 677.936 169.151C677.614 168.84 677.392 169.395 677.436 170.405ZM680.4 170.572C680.323 171.76 679.646 172.737 678.913 172.737C678.191 172.737 677.048 173.392 676.381 174.18C675.715 174.968 674.339 175.623 673.295 175.623C671.63 175.623 671.574 175.79 672.862 177.067C674.638 178.843 675.493 178.921 675.171 177.311C675.038 176.645 675.893 176.09 677.092 176.078C680.141 176.034 681.429 174.395 680.956 171.16C680.634 169.062 680.511 168.917 680.4 170.572ZM657.196 171.771C657.196 173.103 657.429 173.636 657.696 172.981C657.968 172.201 657.968 171.352 657.696 170.572C657.429 169.905 657.196 170.461 657.196 171.771ZM661.071 171.771C661.071 173.103 661.293 173.636 661.56 172.981C661.831 172.201 661.831 171.352 661.56 170.572C661.293 169.905 661.071 170.461 661.071 171.771ZM669.698 171.371C669.742 172.492 669.964 172.714 670.275 171.948C670.564 171.26 670.53 170.416 670.197 170.116C669.864 169.817 669.653 170.35 669.698 171.371ZM682.821 174.868C682.11 177.544 682.876 178.454 683.787 176.001C684.137 175.031 684.725 174.165 685.496 173.48C686.14 173.036 685.918 172.759 684.952 172.759C684.087 172.748 683.121 173.691 682.821 174.868ZM669.609 175.057C669.609 175.912 668.488 176.423 666.478 176.489C664.945 176.524 663.413 176.576 661.882 176.645C661.104 176.7 659.128 176.5 657.54 176.223C655.953 175.945 655.176 175.956 655.842 176.223C656.508 176.489 657.108 177.688 657.174 178.832C657.252 180.475 657.374 180.564 657.729 179.243C658.473 176.367 660.527 177.377 661.66 181.163C662.559 184.228 662.659 184.305 662.259 181.741C661.737 178.421 663.447 176.456 664.957 178.632C665.69 179.664 666.012 179.698 666.4 178.754C666.656 178.088 667.555 177.555 668.376 177.555C669.542 177.555 669.753 178.288 669.32 180.93C669.032 182.784 669.187 184.305 669.676 184.305C670.175 184.305 670.586 181.918 670.586 178.998C670.586 176.078 670.364 173.703 670.097 173.703C669.831 173.703 669.62 174.302 669.62 175.046M653.233 179.565C653.821 180.675 654.498 181.374 654.743 181.152C655.42 180.475 654.043 177.555 653.055 177.555C652.555 177.555 652.633 178.454 653.233 179.565ZM678.968 178.199C678.571 178.658 678.34 179.237 678.313 179.842C678.313 180.431 678.768 180.375 679.457 179.698C680.09 179.065 680.378 178.321 680.101 178.055C679.823 177.788 679.312 177.833 678.968 178.199ZM675.415 180.442C675.415 180.698 675.517 180.944 675.698 181.125C675.88 181.306 676.125 181.408 676.381 181.408C676.638 181.408 676.883 181.306 677.064 181.125C677.246 180.944 677.347 180.698 677.347 180.442C677.347 180.186 677.246 179.94 677.064 179.759C676.883 179.578 676.638 179.476 676.381 179.476C676.125 179.476 675.88 179.578 675.698 179.759C675.517 179.94 675.415 180.186 675.415 180.442ZM672.595 181.963C672.655 183.11 672.847 183.306 673.173 182.551C673.461 181.863 673.428 181.019 673.095 180.719C672.762 180.42 672.562 180.952 672.595 181.963ZM657.052 182.374C657.052 182.63 657.154 182.875 657.335 183.057C657.516 183.238 657.762 183.339 658.018 183.339C658.274 183.339 658.52 183.238 658.701 183.057C658.882 182.875 658.984 182.63 658.984 182.374C658.984 182.117 658.882 181.872 658.701 181.691C658.52 181.509 658.274 181.408 658.018 181.408C657.762 181.408 657.516 181.509 657.335 181.691C657.154 181.872 657.052 182.117 657.052 182.374ZM664.79 182.851C664.79 183.65 665.223 184.294 665.756 184.294C666.289 184.294 666.722 183.65 666.722 182.851C666.722 182.052 666.278 181.408 665.756 181.408C665.234 181.408 664.79 182.074 664.79 182.851ZM647.271 191.899C654.343 198.45 657.341 199.716 665.978 199.716C672.307 199.716 673.661 199.382 677.425 196.873C680.095 195.067 682.653 193.102 685.086 190.989L688.461 187.936L685.086 190.423C674.372 198.272 674.45 198.239 667.255 198.605C658.984 199.016 655.931 197.906 647.87 191.6L642.075 187.048L647.271 191.899ZM652.811 191.222C653.521 192.366 658.973 195.075 659.839 194.719C660.238 194.553 658.706 193.509 656.43 192.41C654.176 191.311 652.544 190.778 652.811 191.222ZM673.006 193.498C671.407 194.22 670.786 194.83 671.607 194.853C672.429 194.875 673.961 194.264 674.994 193.487C677.281 191.755 676.792 191.755 672.995 193.487" fill="black"/>
</svg>
