<svg width="750" height="275" viewBox="0 0 750 275" fill="none" xmlns="http://www.w3.org/2000/svg">
<path fill-rule="evenodd" clip-rule="evenodd" d="M198.984 96.9746C197.375 97.8705 196.575 94.1999 213.319 163.258L217.423 180.195L228.021 180.464C240.642 180.782 239.129 182.593 243.648 161.851C247.675 143.353 257.453 102.235 257.935 101.734C258.426 101.252 262.396 110.164 270.7 130.473L277.57 147.265L278.071 163.739L278.572 180.195H296.453L296.963 163.267L297.493 146.33L307.089 122.804C312.359 109.875 316.675 98.8147 316.675 98.2174C316.675 96.5796 314.305 96.0015 307.715 96.0015C299.796 96.0015 297.329 97.0324 296.154 100.876L291.664 115.549C289.709 121.908 287.772 126.975 287.339 126.831C286.905 126.686 284.313 120.01 281.548 111.994C276.808 98.2174 276.385 97.3888 273.658 96.6085C272.02 96.1268 263.976 96.1268 254.939 96.5988L239.081 97.4081L233.936 126.301C231.114 142.197 228.638 155.03 228.426 154.837C228.214 154.645 227.298 150.088 226.374 144.75C223.368 127.322 217.761 99.1808 217.105 98.1885C216.277 96.9167 200.92 95.8859 198.984 96.9746ZM350.481 96.9167C349.171 97.6778 349.036 102.312 349.238 138.055C349.363 160.194 349.508 178.846 349.537 179.491C349.585 180.339 352.051 180.667 358.545 180.667H367.485L367.62 168.2C367.697 161.341 367.668 154.519 367.553 153.045C367.437 151.571 367.582 149.336 367.9 148.103C368.43 145.945 368.786 145.858 376.888 145.858H385.309L385.578 163.026L385.829 180.195L394.885 180.464C403.507 180.724 403.97 180.638 404.481 178.672C405.492 174.79 403.97 97.4563 402.862 96.7144C401.118 95.5583 387.717 95.8859 386.484 97.1191C385.713 97.9091 385.357 102.919 385.357 113.594V128.922H368.42L368.324 116.455C368.189 100.25 367.938 97.8127 366.406 96.8301C364.72 95.7607 352.35 95.8185 350.481 96.9167ZM479.194 96.6759L476.592 97.0613L476.843 138.633L477.093 180.195L485.244 180.474C492.431 180.705 493.452 180.541 493.789 179.058C494.011 178.133 493.982 167.208 493.751 154.799C493.462 139.182 493.626 132.496 494.31 133.161C494.839 133.671 498.934 143.633 503.404 155.271C507.875 166.909 512.152 177.401 512.942 178.586C514.252 180.609 514.869 180.724 523 180.474L531.661 180.195L531.902 138.864C532.095 106.416 531.902 97.3696 530.968 96.7722C529.571 95.8859 520.37 95.7703 517.316 96.5796L515.197 97.1576L515.139 121.744C515.062 150.232 516.006 150.319 505.35 120.925C502.749 113.657 500.083 106.412 497.354 99.1904C496.169 96.3194 488.51 95.2597 479.194 96.6759ZM25.2409 138.536L25.4913 180.195H43.3627L43.6229 163.026L43.8733 145.858H60.7717V161.774C60.7717 170.532 61.0222 178.364 61.3305 179.183C61.8122 180.387 63.5463 180.667 70.6853 180.667H79.4524L79.7607 171.495C79.9244 166.456 79.9148 147.602 79.7414 129.596L79.4138 96.8686L70.3288 97.1384L61.2438 97.4081L60.9837 113.083L60.7235 128.758L56.2822 129.259C53.8351 129.548 50.7811 129.615 49.4804 129.432C48.1798 129.249 46.3975 129.047 45.5015 128.999C44.0371 128.931 43.8541 127.322 43.6229 113.16L43.3627 97.4081L34.1814 97.1287L25 96.8686L25.2409 138.536ZM92.2465 98.0921C92.0057 98.7473 91.8997 117.495 92.0442 139.741L92.2851 180.204L115.696 180.455C132.161 180.628 139.483 180.387 140.389 179.636C141.805 178.46 142.209 167.901 140.918 165.878C140.408 165.069 135.841 164.655 125.648 164.472L111.101 164.202L110.831 155.03L110.571 145.858H122.642C130.774 145.858 135.09 145.473 135.841 144.731C137.017 143.565 137.421 133.989 136.419 131.349C135.928 130.097 133.857 129.866 123.24 129.866H110.648V112.929H124.646C135.533 112.929 138.876 112.64 139.733 111.599C140.408 110.79 140.735 107.774 140.562 103.844L140.273 97.4081L116.505 97.148C97.9885 96.9553 92.603 97.1673 92.2465 98.0921ZM162.393 99.0266C161.892 100.202 160.389 106.031 159.06 111.985C157.72 117.948 153.693 134.924 150.1 149.751C146.506 164.578 143.577 177.584 143.577 178.672C143.577 180.57 144.03 180.667 152.489 180.667C160.967 180.667 161.43 180.57 161.902 178.547L163.588 170.792L164.792 165.146H183.559L184.966 171.736C185.746 175.358 186.719 178.846 187.134 179.491C188.03 180.859 204.292 181.187 205.121 179.848C205.41 179.395 201.074 160.676 195.496 138.218L185.361 97.4081L174.339 97.1384C163.645 96.8782 163.289 96.936 162.393 99.0266ZM429.163 97.8031C428.45 98.9592 409.828 177.391 409.828 179.241C409.828 180.416 411.398 180.667 418.729 180.667H427.631L428.547 177.141C429.048 175.204 429.818 171.717 430.252 169.375L431.052 165.146H449.819L451.062 170.792C453.326 181.1 452.825 180.667 462.44 180.667C467.083 180.667 471.139 180.243 471.457 179.732C471.775 179.222 468.432 164.269 464.039 146.514C460.774 133.435 457.582 120.339 454.463 107.225C452.016 96.3387 452.825 96.936 440.426 96.936C434.53 96.936 429.452 97.3214 429.163 97.8031ZM544.793 98.1114C544.552 98.7569 544.456 117.495 544.6 139.741L544.841 180.204L562.712 180.166C579.37 180.137 580.931 179.973 585.526 177.931C588.535 176.621 591.236 174.697 593.456 172.281C595.676 169.865 597.366 167.011 598.417 163.903C599.765 159.828 599.958 155.811 599.708 137.197C599.418 115.8 599.351 115.154 596.933 110C594.091 103.94 589.755 100.212 583.31 98.2752C577.376 96.4832 545.457 96.3483 544.793 98.1114ZM610.662 98.1114C610.411 98.7569 610.315 117.495 610.45 139.741L610.7 180.204H659.622V165.146L644.805 164.886L629.988 164.626V145.858H641.346C647.58 145.858 653.505 145.415 654.516 144.895C655.961 144.105 656.328 142.901 656.318 138.999C656.289 129.432 656.944 129.866 642.618 129.866H630.074L629.506 126.802C629.149 124.075 629.052 121.32 629.217 118.574L629.516 113.401L644.102 112.929L658.678 112.457L658.958 104.701L659.237 96.936H635.161C616.779 96.936 610.999 97.225 610.662 98.1114ZM669.709 138.498L669.96 180.195H686.897C707.504 180.195 711.233 179.356 717.572 173.21C724.152 166.813 725 162.998 725 139.625C725 129.124 724.547 118.449 724.008 115.896C722.572 109.21 718.439 103.218 713.083 100.077C708.535 97.4081 708.516 97.4081 688.997 97.0998L669.469 96.8108L669.709 138.498ZM563.656 113.064C563.367 113.786 563.271 125.588 563.406 139.288L563.656 164.202L569.042 164.491C579.861 165.05 581.065 162.564 581.056 139.538C581.056 115.588 579.948 112.909 569.755 112.168C565.564 111.869 564.023 112.081 563.656 113.064ZM689.382 112.832C688.323 113.497 688.159 118.218 688.467 138.633C688.66 152.381 689.17 163.971 689.594 164.385C690.75 165.541 698.429 165.117 700.982 163.749C705.096 161.552 705.722 158.132 705.683 138.334C705.655 117.688 705.163 115.472 700.115 113.353C696.473 111.84 691.348 111.58 689.392 112.832M173.752 116.744C173.713 117.023 172.624 123.17 171.324 130.386C170.043 137.602 168.973 144.673 168.973 146.09C168.973 148.604 169.137 148.681 174.147 148.681C180.399 148.681 180.226 149.712 176.921 131.407C174.667 118.921 173.935 115.511 173.752 116.744ZM438.113 127.727C437.082 133.038 436.205 138.377 435.483 143.739L434.973 148.681H440.271C445.368 148.681 445.58 148.585 445.58 146.224C445.58 143.864 440.956 117.438 440.455 116.908C440.32 116.773 439.26 121.638 438.113 127.727Z" fill="black"/>
</svg>
