<svg width="750" height="275" viewBox="0 0 750 275" fill="none" xmlns="http://www.w3.org/2000/svg">
<path fill-rule="evenodd" clip-rule="evenodd" d="M356.161 101.756V119.511H320.61V157.235H356.174V192.746L375.366 192.417L394.57 192.114L394.201 174.675L393.806 157.235H430.687V119.511H395.202L394.899 102.072L394.57 84.6323L375.366 84.3293L356.161 84V101.756ZM495.479 87.5827C473.877 91.1918 458.282 104.838 453.106 124.595C446.783 148.897 458.44 174.517 480.569 184.843C500.247 194.037 524.444 190.507 538.09 176.453L542.858 171.527L534.376 163.716L525.893 155.905L522.192 159.593C517.107 164.664 512.352 166.39 503.488 166.39C487.787 166.39 477.882 155.813 477.763 138.94C477.697 129.245 479.62 124.148 485.574 118.207C495.558 108.262 510.403 107.63 521.059 116.719L525.406 120.433L534.323 111.74L543.266 103.033L539.447 99.872C531.883 93.8516 522.961 89.7728 513.459 87.9911C503.606 86.2524 503.461 86.2524 495.479 87.5827ZM150.457 89.9405C119.609 100.346 106.832 133.012 121.677 163.571C132.083 185.001 162.839 195.894 187.272 186.78C200.576 181.814 211.416 167.483 213.945 151.519C215.579 141.073 215.473 132.103 213.682 131.998C198.956 131.904 184.229 131.913 169.504 132.024C168.384 132.077 168.094 134.54 168.358 142.088L168.687 152.098L178.724 152.427C185.626 152.651 188.748 153.191 188.748 154.14C188.748 156.511 184.401 162.754 181.385 164.717C177.604 167.193 166.487 168.128 160.362 166.469C145.136 162.346 137.009 141.574 144.464 125.794C147.678 118.984 150.852 115.889 157.794 112.741C167.251 108.46 178.21 109.975 187.167 116.811L192.515 120.881L201.208 112.214C209.585 103.85 209.809 103.494 207.636 101.782C193.542 90.7572 184.651 87.5169 168.687 87.6091C160.376 87.6354 155.344 88.294 150.457 89.9405ZM20.1881 88.8868C19.7139 128.508 20.1881 186.292 21.0311 187.109C21.6238 187.715 27.2219 188.057 33.4785 187.873L44.8457 187.543L45.0038 168.102L45.1618 148.66L62.5486 148.344L79.9222 148.028L79.8037 166.64C79.7583 173.322 79.7495 180.005 79.7773 186.687C79.8037 187.741 83.1361 188.11 92.4222 188.11H105.041V88.6365H79.8168V125.228H45.478L45.1618 107.222L44.8457 89.2029L32.5169 88.8868C25.7466 88.7024 20.1881 88.7024 20.1881 88.8868ZM224.825 90.0722C224.509 90.8625 224.417 113.11 224.562 139.519L224.865 187.543L237.193 187.86L249.522 188.189V170.618C249.522 160.95 249.759 152.796 250.062 152.507C250.365 152.217 252.328 152.177 254.449 152.427C258.084 152.849 258.927 153.903 268.648 170.209L278.988 187.543L293.503 187.86C301.485 188.031 307.992 187.886 307.992 187.53C307.992 186.766 296.309 169.301 288.287 158.091C285.257 153.837 282.781 149.925 282.781 149.372C282.781 148.818 284.322 147.725 286.206 146.948C290.421 145.209 297.349 137.728 299.509 132.564C301.656 127.441 301.564 113.663 299.378 108.381C294.517 96.8294 286.021 91.3631 270.321 89.7166C254.962 88.1096 225.484 88.3467 224.825 90.0722ZM551.617 90.0591C551.314 90.8494 551.196 113.083 551.367 139.453L551.67 187.425L579.186 187.122C594.334 186.964 608.52 186.358 610.746 185.778C614.649 184.769 618.287 182.925 621.407 180.375C624.527 177.826 627.054 174.631 628.815 171.011C630.576 167.391 631.529 163.434 631.606 159.411C631.684 155.388 630.885 151.397 629.265 147.712C627.158 142.944 620.611 136.648 617.779 136.648C615.567 136.648 616.291 134.751 619.189 132.854C626.17 128.27 629.094 112.504 624.589 103.745C620.466 95.7361 614.091 91.7055 602.566 89.8351C591.673 88.0701 552.316 88.2545 551.617 90.0591ZM643.372 90.0591C642.253 93.1808 642.266 186.964 643.399 187.056C650.906 187.662 690.527 186.529 694.426 185.568C717.582 180.009 733.046 158.065 730.78 134.026C729.358 119.195 723.47 108.355 712.168 99.8062C700.946 91.2972 688.525 88.6628 659.705 88.6497C648.101 88.6497 643.767 89.0185 643.372 90.0591ZM576.328 118.075V126.94L585.785 126.624C598.509 126.202 599.879 125.794 601.512 121.882C603.422 117.272 602.092 112.122 598.562 110.515C596.994 109.804 591.344 109.211 586.009 109.211H576.315L576.328 118.075ZM249.535 121.224V132.09L258.98 132.077C269.649 132.051 273.455 130.655 275.747 125.886C276.999 123.305 277.038 121.724 275.984 118.22C274.154 112.109 270.321 110.357 258.756 110.357H249.535V121.224ZM668.056 138.755V166.021L677.513 165.52C683.665 165.191 688.657 164.243 691.805 162.767C704.16 156.985 709.271 138.676 702.342 125.043C697.758 116.025 688.644 111.512 674.998 111.503H668.069L668.056 138.755ZM575.169 157.235V167.536H585.89C602.526 167.536 606.136 165.507 606.136 156.155C606.136 152.111 605.622 151.176 602.408 149.227C599.339 147.356 596.612 146.961 586.931 146.948H575.169V157.235Z" fill="black"/>
</svg>
