<svg width="750" height="275" viewBox="0 0 750 275" fill="none" xmlns="http://www.w3.org/2000/svg">
<path fill-rule="evenodd" clip-rule="evenodd" d="M175.704 103.346V192.96L182.073 200.85C189.78 210.421 191.652 212.431 192.382 211.986C193.142 211.519 193.111 34.8736 192.355 32.8811C191.643 31.0266 177.701 14.3889 176.527 14.002C175.877 13.7796 175.704 32.3341 175.704 103.346ZM212.039 153.281L212.226 243.087L214.672 246.098C221.805 254.904 227.614 261.321 228.147 260.988C228.841 260.552 228.904 83.6169 228.205 81.8646C227.525 80.1435 213.307 63.4702 212.524 63.4702C212.061 63.4702 211.906 91.9291 212.039 153.281ZM59.1646 138.044L59.3336 194.175L60.899 194.397C61.7618 194.517 62.7225 194.361 63.0338 194.05C63.3451 193.743 63.652 168.478 63.7009 137.906L63.8032 82.3272L61.4016 82.1226L59 81.918L59.1646 138.044ZM67.1209 138.089L67.2899 194.175L69.4469 194.379L71.5994 194.593V82.0025H66.9519L67.1209 138.089ZM75.0773 138.066L75.2463 194.175H147.521V180.939L118.848 180.766L90.1717 180.592L90.0072 131.462L89.8337 82.3272L82.371 82.1448L74.9083 81.9492L75.0773 138.066ZM261.396 138.084L261.565 194.175H276.153L276.081 149.669C276.037 125.187 276.113 105.16 276.246 105.16C276.491 105.16 285.403 117.061 299.034 135.602C307.693 147.388 317.349 160.388 332.345 180.463L342.863 194.544L350.29 194.361L357.709 194.175L357.922 191.608C358.082 189.652 357.762 188.642 356.548 187.303C354.137 184.657 344.629 172.307 334.96 159.289C330.179 152.841 315.201 132.818 301.676 114.784L277.1 81.9981H261.236L261.396 138.084ZM342.792 115.723V149.501L349.85 158.106C353.737 162.843 357.166 166.716 357.477 166.716C357.789 166.716 357.976 147.735 357.878 124.524L357.709 82.3361L350.25 82.1493L342.792 81.958V115.723ZM392.158 82.8253C391.989 83.2789 391.922 108.522 392.016 138.911L392.189 194.175L429.512 194.348L466.825 194.517L466.643 187.73L466.452 180.939L436.943 180.895L407.439 180.846L407.262 162.527L407.084 144.204H434.537C455.903 144.204 462.067 144.026 462.311 143.381C462.783 142.131 462.356 131.853 461.795 130.946C461.417 130.341 454.822 130.212 434.373 130.395L407.439 130.639L407.262 112.943L407.084 95.2468L436.436 95.0734L465.789 94.9044L465.847 90.2702C465.878 87.7219 465.767 84.8177 465.602 83.817L465.291 81.9936H428.889C400.368 81.9936 392.407 82.176 392.163 82.8253M525.718 85.1201C521.174 95.5296 516.679 105.96 512.233 116.412C509.886 121.944 507.499 127.459 505.073 132.956C503.049 137.51 497.806 149.567 493.412 159.761C489.018 169.954 483.93 181.713 482.093 185.889C480.256 190.065 478.993 193.725 479.287 194.014C479.58 194.303 483.205 194.464 487.341 194.361L494.862 194.175L498.686 185.24C502.416 176.434 506.103 167.61 509.747 158.769C525.913 119.61 534.764 98.5824 535.075 98.5646C535.262 98.5646 537.33 103.243 539.682 108.971C542.035 114.7 546.563 125.494 549.734 132.956L555.515 146.521L542.773 146.699L530.032 146.881L527.417 152.974C525.98 156.332 524.797 159.334 524.797 159.645C524.797 159.956 532.891 160.179 542.764 160.125C556.76 160.059 560.865 160.223 561.381 160.89C561.737 161.357 563.752 165.916 565.86 171.013C567.968 176.109 571.032 183.479 572.673 187.392L575.653 194.508H583.547C592.584 194.508 592.357 194.717 589.862 188.7C588.328 184.995 567.501 136.777 551.784 100.526L543.894 82.3272L535.493 82.1448L527.087 81.958L525.718 85.1201ZM602.866 138.026L603.04 194.175H617.627L617.801 144.822L617.965 95.4781L636.364 95.6782C646.495 95.7761 656.124 96.1852 657.809 96.5855C661.314 97.4127 665.237 100.366 666.824 103.399C668.212 106.01 668.35 113.717 667.091 117.35C665.89 120.793 661.527 125.418 657.609 127.401C653.589 129.429 647.18 130.946 642.488 130.973C635.795 131.004 635.862 130.928 635.862 137.688V143.581L641.163 151.008C644.08 155.095 652.224 166.476 659.264 176.305L672.063 194.175L681.149 194.361C688.576 194.513 690.231 194.375 690.231 193.619C690.231 193.107 686.851 188.113 682.715 182.513C667.638 162.1 653.762 142.825 653.762 142.322C653.762 142.038 655.479 141.268 657.574 140.619C668.497 137.239 677.182 130.51 681.14 122.367C686.437 111.48 683.791 95.7716 675.59 89.2962C672.29 86.6945 667.189 84.4486 661.732 83.2033C660.055 82.8119 646.415 82.3761 630.716 82.1938L602.697 81.878L602.866 138.026Z" fill="black"/>
</svg>
