<svg width="750" height="275" viewBox="0 0 750 275" fill="none" xmlns="http://www.w3.org/2000/svg">
<path fill-rule="evenodd" clip-rule="evenodd" d="M88.5105 103.588C87.0954 104.374 82.9402 108.619 79.2791 113.055L64.2752 131.282C57.1979 139.859 50.0927 148.413 42.9599 156.944C35.8286 165.479 30 172.891 30 173.407C30 174.003 38.1084 174.238 51.7533 174.059C71.4065 173.789 73.7537 173.576 75.9661 171.902C77.3137 170.88 82.9963 164.401 88.6003 157.516C103.267 139.491 102.346 139.929 102.358 150.947C102.358 161.997 103.424 166.254 106.984 169.522C111.836 173.969 114.531 174.441 133.297 174.081C149.694 173.789 150.963 173.621 154.5 171.431C156.623 170.128 165.708 160.189 175.423 148.554C184.498 137.696 193.595 126.854 202.713 116.031C208.272 109.45 212.82 103.633 212.82 103.082C212.82 102.465 205.295 102.117 192.044 102.117C168.235 102.117 167.999 102.195 161.182 110.787C152.063 122.298 145.044 130.384 144.573 129.923C144.314 129.654 143.955 125.633 143.787 121.006C143.45 111.247 141.125 106.485 135.285 103.734C130.591 101.51 92.5534 101.387 88.5105 103.588ZM91.2282 114.436C89.7683 115.896 84.4338 122.185 79.4026 128.373C73.1311 136.074 66.8045 143.729 60.4232 151.34C54.9989 157.775 50.5629 163.379 50.5517 163.805C50.5517 164.232 55.0214 164.445 60.513 164.288L70.4856 164.019L86.4665 145.017L102.425 126.026L102.133 119.176L101.863 112.348L97.8878 112.056C94.631 111.831 93.4181 112.247 91.2282 114.436ZM112.791 112.595C112.555 112.988 112.42 124.162 112.499 137.414C112.611 160.268 112.712 161.559 114.565 162.963C115.643 163.772 116.957 164.311 117.474 164.153C117.99 163.996 122.078 159.392 126.514 153.911L134.611 143.972V130.496C134.611 118.322 134.42 116.761 132.59 114.436C130.681 112.011 130.097 111.876 121.887 111.876C117.126 111.876 113.015 112.202 112.791 112.595ZM172.009 113.583C170.942 114.515 165.72 120.692 160.408 127.329C154.024 135.272 147.622 143.2 141.204 151.115C135.97 157.572 131.68 163.233 131.68 163.693C131.68 165.041 145.157 164.636 148.649 163.165C150.783 162.289 155.376 157.572 162.204 149.273C168.891 141.165 175.614 133.086 182.374 125.038C187.799 118.603 192.257 112.999 192.257 112.606C192.257 112.213 188.158 111.876 183.115 111.876C175.76 111.876 173.547 112.213 171.997 113.583M498.634 114.841C492.682 116.02 487.291 119.075 485.337 122.41C483.158 126.116 483.147 132.686 485.303 136.324C487.684 140.367 492.423 142.209 504.137 143.68C520.14 145.702 520.78 145.859 520.78 147.869C520.78 150.374 518.927 150.868 509.595 150.868C502.598 150.868 500.745 150.475 495.849 148.015L490.189 145.174L485.696 149.408C481.339 153.518 481.26 153.675 482.99 155.562C485.82 158.695 493.445 161.436 502.789 162.671C510.201 163.648 512.661 163.592 519.32 162.233C531 159.852 535.818 155.427 535.818 147.083C535.818 137.335 530.832 134.213 511.672 132.034C504.799 131.248 498.915 130.35 498.611 130.058C497.095 128.542 499.588 126.644 503.845 126.06C508.977 125.341 516.198 126.565 522.038 129.103L525.744 130.732L530.113 126.464C532.505 124.117 534.47 121.86 534.47 121.433C534.47 120.029 526.452 116.604 519.938 115.223C512.863 113.729 504.99 113.583 498.634 114.841ZM624.527 114.83C621.641 115.245 616.812 116.851 613.779 118.39C609.411 120.602 607.614 122.286 605.098 126.475C602.313 131.125 601.931 132.607 601.954 138.638C601.987 150.385 606.188 156.427 617.306 160.672C624.583 163.457 638.194 163.749 645.46 161.29C658.465 156.91 664.911 144.837 661.138 131.956C660.262 128.957 658.263 125.038 656.679 123.23C650.828 116.593 637.116 112.999 624.527 114.83ZM266.389 115.458C263.806 116.132 263.39 119.052 264.143 131.248L264.817 142.591L256.124 133.315C251.329 128.216 245.725 122.197 243.692 119.917L239.975 115.762H232.765C226.016 115.762 225.533 115.908 224.982 118.086C224.668 119.344 224.544 129.541 224.724 140.749L225.039 161.099L232.103 161.391L239.155 161.683L239.436 147.959L239.705 134.247L251.812 147.926L263.907 161.593H278.327V138.784C278.327 118.895 278.125 115.908 276.777 115.38C275.07 114.74 268.983 114.773 266.389 115.458ZM287.738 115.593C286.345 115.874 286.166 117.862 286.222 131.686C286.267 141.165 286.75 148.723 287.446 150.621C290.568 159.178 298.643 162.918 314.085 162.941C323.069 162.963 324.45 162.716 329.728 160.088C334.4 157.763 335.939 156.36 337.713 152.856C339.735 148.858 339.914 147.173 339.914 132.248C339.914 120.097 339.6 115.874 338.69 115.582C338.017 115.357 334.962 115.357 331.896 115.571L326.326 115.953L325.663 120.366C325.292 122.803 325.214 128.654 325.483 133.393C326.135 144.624 325.641 146.758 321.946 149.004C315.488 152.934 302.18 150.441 300.698 145.017C300.327 143.669 299.979 136.594 299.934 129.261L299.833 115.953L294.589 115.616C292.309 115.434 290.019 115.426 287.738 115.593ZM543.612 115.515C542.287 116.391 541.736 127.868 542.062 147.701L542.287 161.593H555.988V144.04H581.391V152.654C581.391 157.393 581.582 161.447 581.795 161.672C582.02 161.896 585.321 161.93 589.129 161.761L596.058 161.424V138.694C596.058 113.28 596.518 114.785 588.724 114.785C581.593 114.785 581.391 115.032 581.391 123.556V131.159L570.183 131.866C564.006 132.259 558.312 132.315 557.515 132.012C556.414 131.597 555.988 129.429 555.774 123.365L555.493 115.279L550.103 115.02C547.16 114.886 544.229 115.11 543.612 115.515ZM343.823 121.568V127.396L353.369 127.666L362.892 127.947L363.15 144.759L363.431 161.582H377.02L377.289 144.759L377.559 127.947L387.093 127.666L396.617 127.396V115.762H343.834L343.823 121.568ZM401.513 138.672V161.582H415.192L415.338 156.944C415.417 154.405 415.54 151.441 415.585 150.374C415.675 148.644 416.472 148.386 422.626 148.128C429.309 147.858 429.657 147.959 431.353 150.565C432.33 152.07 434.688 155.158 436.597 157.438L440.045 161.582H448.164C452.612 161.582 456.25 161.323 456.25 161.02C456.25 160.717 453.555 157.179 450.242 153.193C446.929 149.206 444.402 145.825 444.627 145.668C444.851 145.511 446.222 144.635 447.693 143.725C449.164 142.816 451.253 140.323 452.342 138.211C456.351 130.35 453.914 121.905 446.469 117.985C442.482 115.874 441.19 115.762 421.874 115.762H401.513V138.672ZM462.124 138.672V161.582H475.814V115.762H462.113L462.124 138.672ZM668.404 138.672V161.582H683.071V147.937H695.57C706.61 147.937 708.575 147.678 712.382 145.736C718.334 142.703 720.502 139.379 720.94 132.596C721.4 125.465 719.233 120.984 713.865 117.985C710.159 115.908 708.89 115.795 689.18 115.784L668.404 115.762V138.672ZM623.741 127.554C617.474 129.373 614.24 136.92 616.969 143.422C619.147 148.611 625.414 151.283 633.871 150.61C637.273 150.329 641.204 149.374 642.574 148.453C648.167 144.803 649.279 135.224 644.629 130.619C640.923 126.891 631.04 125.453 623.741 127.554ZM415.383 131.597C415.574 134.18 416.147 135.707 416.91 135.639C417.584 135.595 422.75 135.482 428.365 135.404C438.439 135.258 438.641 135.213 439.236 132.821C440.393 128.227 438.529 127.464 426.265 127.464H415.091L415.383 131.597ZM683.071 131.844V136.223H693.762C704.69 136.223 707.508 135.336 707.508 131.844C707.508 128.351 704.678 127.464 693.762 127.464H683.071V131.844Z" fill="black"/>
</svg>
