<svg width="750" height="275" viewBox="0 0 750 275" fill="none" xmlns="http://www.w3.org/2000/svg">
<path fill-rule="evenodd" clip-rule="evenodd" d="M81.7363 67.7215C80.6002 68.8576 80.8526 130.547 81.9887 130.547C82.5441 130.547 90.8249 120.802 100.444 108.898C125.526 77.7822 132.633 68.441 131.875 67.671C130.941 66.7495 82.6578 66.7874 81.7363 67.7215ZM125.753 81.6448C119.883 89.2061 115.061 95.6439 115.061 95.9721C115.061 96.3003 127.432 96.578 142.542 96.578C160.837 96.578 169.993 96.1993 170.01 95.4419C170.01 92.7406 165.024 84.9142 160.29 80.2058C155.077 75.005 145.811 69.7538 139.765 68.5672C136.609 67.9361 135.978 68.5294 125.753 81.6448ZM203.423 78.9561C203.184 79.2086 202.982 94.1165 202.982 112.104V144.798H219.455V126.709L229.149 126.659C240.889 126.596 247.617 124.349 252.452 118.833C257.009 113.657 258.132 110.438 258.132 102.599C258.132 92.0211 255.065 86.6057 246.393 81.9604C242.517 79.8776 239.702 79.5368 222.939 79.0445C212.462 78.7415 203.676 78.7036 203.423 78.9561ZM361.213 78.9182C350.773 82.3012 341.723 90.7587 338.63 100.011C336.257 107.207 336.332 117.141 338.857 124.122C346.734 145.985 377.648 153.281 395.308 137.439C413.611 121.029 409.887 91.8569 388.113 81.1904C383.821 79.0697 380.665 78.4512 373.306 78.2618C368.168 78.1356 362.727 78.4259 361.213 78.9182ZM505.016 78.6658C504.006 78.9309 501.456 83.1722 499.31 88.1331C496.192 95.2652 487.633 114.566 474.77 143.422C474.316 144.445 476.222 144.786 482.395 144.786H490.6L492.948 139.383C494.235 136.404 495.283 133.45 495.283 132.819C495.283 132.049 500.446 131.645 510.406 131.645H525.516L528.078 138.209L530.628 144.786H538.77C543.289 144.786 546.924 144.319 546.924 143.725C546.924 143.145 542.039 131.67 536.056 118.252C530.072 104.834 523.736 90.38 521.956 86.1639L518.724 78.4891L512.779 78.3249C509.497 78.2366 506.013 78.4007 505.016 78.6658ZM543.276 78.6532C542.872 79.0697 542.532 82.276 542.532 85.7978V92.1978H562.274L562.564 118.214L562.867 144.243L570.82 144.571L578.798 144.887V92.1978H599.79L599.462 85.3434L599.121 78.4891L571.577 78.1987C556.43 78.0472 543.693 78.2366 543.276 78.6532ZM609.56 111.309V144.786H624.961V118.492H652.429V144.786H668.94L668.649 111.637L668.359 78.4891L662.931 78.1608C652.277 77.4792 652.429 77.3025 652.429 91.6676V104.24H625.011L624.708 91.3647L624.405 78.4891L616.983 78.1608L609.56 77.8326V111.309ZM270.162 111.915L270.086 144.786H286.496V126.167H298.64L304.661 135.47L310.67 144.786H319.455C324.29 144.786 328.241 144.483 328.241 144.104C328.241 143.725 325.275 139.017 321.652 133.652C318.029 128.287 315.05 123.516 315.05 123.049C315.05 122.582 316.476 121.143 318.218 119.855C322.662 116.573 326.045 109.075 326.045 102.524C326.045 91.3773 322.838 86.0882 313.409 81.6448C308.309 79.2464 306.567 79.0697 289.071 79.0571L270.225 79.0445L270.162 111.915ZM419.456 111.966V144.887L427.421 144.559L435.386 144.243L435.462 135.609L435.525 126.975L446.002 126.773C454.99 126.608 457.363 126.141 462.703 123.554C470.012 119.981 474.127 114.086 475.111 105.73C476.399 94.7855 471.665 86.2144 461.819 81.6448C456.694 79.2591 454.876 79.0697 437.86 79.0571L419.456 79.0445V111.966ZM367.259 92.122C357.034 94.5709 351.367 103.571 353.045 114.743C355.065 128.148 368.585 135.533 380.652 129.815C390.991 124.93 394.033 108.027 386.333 98.2569C382.331 93.195 374 90.5063 367.272 92.122M219.455 102.473V113.013H227.635C234.704 113.013 236.244 112.647 238.894 110.362C241.444 108.179 241.987 106.841 241.987 102.725C241.987 94.9496 239.197 92.8668 228.228 92.3619L219.455 91.9579V102.473ZM286.484 102.612V113.266L295.004 112.508C299.687 112.104 304.396 111.524 305.456 111.208C308.423 110.362 310.973 104.556 310.19 100.415C309.054 94.3942 306.163 92.7785 295.724 92.3366L286.496 91.9579L286.484 102.612ZM435.942 102.587V113.001H443.692C451.784 113.001 457.123 111.196 458.335 108.027C458.714 107.043 459.017 104.619 459.017 102.599C459.017 100.58 458.714 98.1307 458.335 97.1713C457.123 93.9903 451.784 92.1851 443.692 92.1851H435.942V102.587ZM506.467 106.727C505.076 110.197 503.666 113.66 502.238 117.116C501.784 118.138 503.829 118.479 510.532 118.479H519.431L516.604 111.082C515.262 107.618 513.941 104.147 512.64 100.668C512.047 99.0269 511.226 97.6762 510.835 97.6889C510.443 97.7015 508.474 101.766 506.467 106.727ZM140.093 99.3551C139.411 100.049 163.105 139.673 164.531 140.191C166.122 140.772 170.944 131.33 172.85 123.932C174.075 119.395 174.477 114.675 174.037 109.996C172.951 98.4588 173.406 98.7618 155.859 98.7618C147.528 98.7618 140.434 99.0269 140.093 99.3551ZM139.26 125.826C135.94 130.446 129.161 139.434 124.175 145.796C119.189 152.158 115.099 157.8 115.087 158.343C115.074 158.886 120.717 159.075 127.621 158.81C139.361 158.381 140.686 158.078 148.235 154.379C152.653 152.183 157.664 148.964 159.343 147.197L162.423 143.991L154.862 131.014C150.696 123.894 146.846 117.911 146.291 117.734C145.736 117.558 142.567 121.218 139.26 125.826ZM88.4265 139.8L81.0168 148.964L81.2818 178.376L81.5469 207.788L96.114 208.091L110.669 208.394V158.267L120.01 146.515C134.072 128.818 134.753 130.522 113.723 130.585L95.8363 130.635L88.4265 139.8ZM494.223 166.965C491.631 168.238 489.44 170.195 487.888 172.624C486.336 175.054 485.483 177.861 485.422 180.74C485.361 183.619 486.094 186.46 487.541 188.952C488.988 191.445 491.094 193.493 493.629 194.874C500.156 198.535 508.045 197.891 513.145 193.284C514.937 191.668 514.937 191.39 513.296 189.56C511.655 187.78 511.201 187.742 508.386 189.194C500.597 193.208 493.2 189.863 492.317 181.948C491.85 177.846 492.203 176.647 494.564 174.084C497.858 170.55 504.208 169.982 508.298 172.822C510.595 174.438 510.961 174.425 512.905 172.696C515.493 170.348 515 169.451 509.535 166.687C503.993 163.859 500.156 163.935 494.223 166.965ZM202.123 181.216L202.426 196.831H205.178C207.703 196.831 207.955 196.389 208.245 191.075L208.586 185.319H222.762V178.755H208.473V171.08H216.716C224.769 171.08 224.958 171.004 224.958 168.341V165.614H201.82L202.123 181.216ZM256.819 180.749C256.819 189.08 257.084 196.175 257.4 196.49C257.728 196.806 259.192 196.831 260.682 196.541L263.421 196.036V165.614H256.819V180.749ZM298.577 180.938C298.577 195.543 298.69 196.276 300.773 196.276C301.985 196.276 303.348 196.402 303.803 196.553C304.257 196.705 304.863 192.211 305.179 186.581L305.721 176.331L312.866 186.316C319.619 195.758 323.167 198.611 325.994 196.856C326.714 196.414 327.155 190.418 327.155 180.875V165.601H320.629L320.326 175.738L320.011 185.874L312.311 175.776C305.936 167.381 304.106 165.664 301.606 165.639L298.577 165.614V180.938ZM371.867 166.359C369.506 170.171 359.142 195.594 359.622 196.377C361.086 198.724 364.608 197.26 366.388 193.536C368.193 189.749 368.307 189.699 375.212 189.699C381.826 189.699 382.293 189.876 384.073 192.981C385.436 195.379 386.749 196.263 388.958 196.276C390.688 196.276 391.95 195.682 391.912 194.912C391.874 194.155 389.009 187.364 385.537 179.84C379.579 166.927 379.024 166.119 375.818 165.816C373.949 165.614 372.157 165.866 371.867 166.359ZM423.849 180.951V196.288H430.375L430.678 186.43L430.993 176.571L438.138 186.051C445.889 196.351 447.871 198.106 450.622 197.046C452.175 196.452 452.427 194.193 452.427 180.976V165.614H445.826V186.846L438.062 176.217C431.309 166.965 429.883 165.614 427.08 165.614H423.849V180.951ZM547.808 180.131C547.631 188.121 547.631 195.19 547.808 195.846C547.985 196.503 549.348 196.831 550.838 196.541L553.526 196.036V165.614H548.149L547.808 180.131ZM591.711 180.522C588.24 188.702 585.665 195.859 586.006 196.414C587.52 198.813 591.055 197.26 592.645 193.448C593.794 190.696 594.791 189.712 595.978 190.166C596.899 190.519 600.308 190.81 603.539 190.81C608.513 190.81 609.535 191.163 610.128 193.069C610.999 195.758 615.758 198.232 617.223 196.755C617.841 196.124 615.594 189.813 611.542 180.673C605.003 165.993 604.751 165.614 601.418 165.614C598.086 165.614 597.884 165.942 591.699 180.509M650.472 181.229L650.775 196.831L660.394 197.159L670 197.475V190.81H655.723V165.614H650.169L650.472 181.229ZM373.394 178.023C372.132 180.926 371.109 183.526 371.109 183.779C371.109 184.031 373.129 184.233 375.578 184.233C380.476 184.233 380.501 184.107 377.093 176.091L375.666 172.733L373.394 178.023ZM598.919 178.78L596.521 184.233H601.393C604.069 184.233 606.266 184.031 606.266 183.779C606.266 183.009 601.974 173.276 601.646 173.301C601.469 173.327 600.257 175.788 598.919 178.78Z" fill="black"/>
</svg>
