<svg width="750" height="275" viewBox="0 0 750 275" fill="none" xmlns="http://www.w3.org/2000/svg">
<path fill-rule="evenodd" clip-rule="evenodd" d="M130.364 38.4557C128.75 40.909 124.528 47.4985 120.985 53.101C117.442 58.7035 114.025 63.958 113.414 64.7738C112.376 66.1602 110.733 65.6296 90.5992 57.3114C67.8925 47.9492 65.0856 46.928 65.0856 48.1261C65.0685 50.1971 73.0557 97.3334 73.5065 97.8126C73.786 98.115 87.4842 101.293 103.955 104.887L133.907 111.391L157.55 106.216C170.546 103.369 183.942 100.454 187.319 99.7353C191.575 98.8281 193.561 97.9895 193.869 96.9854C194.097 96.198 195.272 89.6256 196.482 82.3915C197.691 75.1573 199.22 66.1773 199.882 62.4404C201.976 50.6649 202.278 47.5841 201.337 47.5841C200.436 47.5841 186.749 53.0439 166.404 61.5219C160.151 64.1291 154.777 66.2572 154.469 66.2572C154.161 66.2572 153.197 65.0249 152.318 63.5016C149.773 59.0858 133.805 34 133.537 34C133.4 34 131.973 36.0025 130.364 38.4557ZM219.89 114.169V161.351H248.764L249.004 146.872L249.232 132.415L258.098 132.243L266.958 132.061L276.223 144.801L286.915 159.486C288.341 161.403 288.541 161.426 303.928 161.186L319.492 160.929L308.389 146.09C302.285 137.937 297.293 131.045 297.293 130.789C297.293 130.532 299.113 129.79 301.332 129.134C306.512 127.605 314.534 119.897 315.989 115.031C318.596 106.325 317.86 87.8228 314.608 81.0051C312.389 76.3382 307.191 71.7056 301.691 69.5206C296.967 67.6378 296.026 67.5922 258.378 67.3012L219.89 67.0046V114.169ZM332.574 73.3659C332.248 76.8061 332.243 97.9096 332.557 120.274L333.116 160.923L377.297 161.146L421.478 161.363V150.734C421.478 142.838 421.204 140.1 420.411 140.054C410.488 140.033 400.564 140.052 390.641 140.111L361.938 140.225V123.994H411.322L411.083 114.015L410.843 104.043L386.391 103.82L361.938 103.592V88.3363H421.478V67.113H333.161L332.574 73.3659ZM436.785 114.204V161.346H465.721L465.505 114.443L465.276 67.5351L451.036 67.3069L436.785 67.0673V114.204ZM500.58 68.4594C490.927 71.0267 484.623 77.0115 482.266 85.8374C480.344 93.0373 480.492 136.87 482.455 143.865C484.366 150.666 490.282 156.867 497.602 159.737C502.691 161.734 502.8 161.734 535.884 161.517C558.613 161.363 569.647 160.992 570.971 160.33L572.882 159.36V103.581L552.252 103.809L531.628 104.037V123.566L539.495 123.817L547.363 124.051V140.122H532.603C516.287 140.122 513.075 139.478 511.186 135.826C509.611 132.785 509.349 96.4833 510.878 93.1401C512.778 88.9753 514.284 88.7756 544.596 88.5074L572.882 88.2507V67.113L539.067 67.17C512.225 67.2099 504.3 67.4781 500.58 68.4708M589.039 114.226V161.351H617.936L618.164 135.341L618.387 109.349L624.138 117.302C632.608 129.037 641.113 140.748 649.651 152.434L655.864 160.923L670.515 161.152L685.177 161.391L684.949 114.46L684.732 67.5351L670.509 67.3069L656.281 67.0673L655.699 69.3665C655.385 70.6445 655.379 82.3002 655.699 95.2909C656.007 108.276 656.115 118.899 655.927 118.899C655.739 118.899 653.559 115.932 651.066 112.321C648.573 108.71 641.904 99.4386 636.25 91.7309C630.596 84.0231 624.263 75.3455 622.181 72.4473L618.387 67.1643L603.713 67.1358L589.039 67.113V114.226ZM248.81 100.22V112.104H282.961L285.454 109.628C287.748 107.335 287.936 106.673 287.919 100.928C287.902 88.4104 287.765 88.3363 265.441 88.3363H248.81V100.22ZM73.3524 103.358C73.1242 103.735 72.6792 107.477 72.354 111.688C71.8405 118.363 66.8257 174.125 65.4906 188.092L65 193.186L81.2427 205.07C100.869 219.436 99.7846 218.689 100.27 218.192C100.498 217.975 99.8816 214.741 98.9174 211.015C97.434 205.241 97.1088 200.826 96.7779 181.514C96.5611 169.019 96.6296 158.801 96.9206 158.801C97.2115 158.801 100.07 160.113 103.282 161.728C106.494 163.342 109.346 164.432 109.637 164.141C110.379 163.4 110.276 150.939 109.512 149.787C109.17 149.256 106.209 147.214 102.934 145.246C92.9498 139.215 87.1989 132.763 87.1989 127.594C87.1989 124.068 86.075 123.908 105.273 130.087L118.669 134.394L118.635 165.488C118.617 188.023 118.292 198.384 117.448 203.125C116.238 209.857 113.34 217.171 110.054 221.781L108.188 224.388L110.242 225.974C111.372 226.841 113.814 228.604 115.685 229.894C117.556 231.183 122.2 234.435 125.994 237.122C129.788 239.809 133.257 242 133.696 242C134.136 242 136.007 240.922 137.85 239.615L149.928 231.04C154.726 227.646 158.645 224.719 158.645 224.548C158.645 224.377 157.162 221.929 155.347 219.128C153.111 215.676 151.451 211.631 150.213 206.582C148.484 199.508 148.399 197.454 148.627 166.469L148.866 133.807L163.751 129.334C171.932 126.869 178.859 124.861 179.121 124.85C179.383 124.838 179.361 126.766 179.064 129.111C178.602 132.649 177.866 134.052 174.739 137.253C172.674 139.375 167.825 143.055 163.962 145.422L156.945 149.718V156.793C156.945 160.884 157.304 163.884 157.778 163.884C158.234 163.884 160.984 162.743 163.882 161.34C166.781 159.936 169.451 158.795 169.816 158.795C170.98 158.795 169.69 201.955 168.327 208.459L166.547 216.948C166.107 219.071 166.216 219.333 167.231 218.546C167.882 218.015 175.122 212.755 183.314 206.839C188.937 202.783 194.551 198.716 200.156 194.635L202.102 193.175L198.718 155.823C196.847 135.273 195.061 115.356 194.748 111.562C194.434 107.768 193.892 104.214 193.555 103.666C192.967 102.725 183.006 104.75 144.365 113.707L133.902 116.121L106.517 109.976L76.4275 103.244C74.9498 102.919 73.5749 102.97 73.3467 103.347M223.873 183.043C223.234 186.996 223.884 188.508 226.257 188.508C227.512 188.508 228.363 187.881 228.653 186.734C228.967 185.587 229.669 185.068 230.673 185.25C231.991 185.513 232.259 186.563 232.476 192.302C232.699 198.424 232.556 199.177 230.856 200.46C229.635 201.373 229.167 202.377 229.526 203.296C229.966 204.46 231.05 204.671 235.334 204.466C241.097 204.186 242.317 203.073 239.499 200.672C237.999 199.376 237.753 198.196 237.753 192.142C237.753 185.752 237.902 185.113 239.391 185.113C240.304 185.113 241.279 185.878 241.581 186.808C241.924 187.892 242.865 188.508 244.189 188.508C246.106 188.508 246.26 188.194 246.26 184.263V180.019H224.357L223.873 183.043ZM261.829 181.679C256.238 185.079 255.69 199.879 261.025 203.364C264.094 205.378 270.096 205.852 273.645 204.374C278.323 202.423 279.618 199.81 279.618 192.325C279.618 182.757 277.148 180.019 268.527 180.019C266.085 180.019 263.501 180.669 261.829 181.679ZM290.834 181.188C290.583 181.85 290.492 183.687 290.64 185.245C290.852 187.47 291.336 188.143 292.888 188.365C294.309 188.565 294.999 188.137 295.324 186.882C295.581 185.878 296.483 185.113 297.395 185.113C298.839 185.113 298.993 185.832 298.993 192.753C298.993 198.971 298.753 200.398 297.715 200.398C296.928 200.398 296.443 201.196 296.443 202.514C296.443 204.563 296.637 204.637 301.971 204.637C307.305 204.637 307.499 204.563 307.499 202.514C307.499 201.191 307.014 200.392 306.221 200.392C305.183 200.392 304.949 198.977 304.949 192.747C304.949 185.832 305.097 185.113 306.547 185.113C307.459 185.113 308.349 185.878 308.612 186.882C308.954 188.149 309.639 188.565 311.054 188.365C312.782 188.114 313.028 187.618 313.028 184.258V180.441L302.165 180.201C293.356 180.007 291.217 180.207 290.834 181.188ZM328.432 181.354C327.747 183.139 327.736 183.117 329.116 184.48C330.132 185.507 329.938 186.717 327.724 193.032C326.167 197.454 324.678 200.392 323.982 200.392C323.303 200.392 322.806 201.282 322.806 202.514C322.806 204.545 323.035 204.637 327.912 204.637C332.79 204.637 333.019 204.545 333.019 202.514C333.019 201.345 332.631 200.392 332.163 200.392C331.695 200.392 331.313 199.816 331.313 199.12C331.313 198.161 332.351 197.848 335.569 197.848C338.787 197.848 339.819 198.161 339.819 199.12C339.819 199.816 339.437 200.392 338.969 200.392C338.501 200.392 338.119 201.345 338.119 202.514C338.119 204.545 338.347 204.637 343.225 204.637C347.755 204.637 348.326 204.448 348.326 202.942C348.326 202.007 347.601 200.523 346.728 199.645C345.855 198.766 344.458 195.993 343.63 193.489C342.631 190.468 341.585 187.463 340.492 184.475L338.849 180.019H333.892C330.166 180.019 328.814 180.344 328.432 181.354ZM359.953 180.584C358.926 181.605 359.359 184.064 360.66 184.577C361.664 184.948 361.938 186.682 361.938 192.644C361.938 198.583 361.664 200.318 360.66 200.706C359.953 200.963 359.382 201.961 359.382 202.914C359.382 204.551 359.896 204.637 369.595 204.637H379.796V200.392C379.796 196.244 379.738 196.147 377.245 196.147C375.271 196.147 374.695 196.53 374.695 197.83C374.695 199.639 371.443 200.963 369.161 200.09C367.313 199.376 367.313 185.519 369.161 184.805C369.863 184.532 370.439 183.345 370.439 182.175C370.439 180.11 370.222 180.019 365.481 180.019C362.754 180.019 360.261 180.264 359.953 180.584ZM409.571 182.164C409.571 183.356 410.141 184.543 410.843 184.8C411.842 185.188 412.121 186.871 412.121 192.439C412.121 198.007 411.836 199.707 410.843 200.084C410.147 200.358 409.571 201.487 409.571 202.611C409.571 204.608 409.679 204.637 417.889 204.637C423.902 204.637 426.709 204.294 428.027 203.364C430.6 201.567 431.256 197.716 429.539 194.419C428.529 192.462 428.398 191.446 429.066 190.79C430.075 189.775 430.286 186.038 429.454 183.881C428.444 181.251 424.41 180.019 416.845 180.019C409.628 180.019 409.571 180.036 409.571 182.164ZM445.964 182.478C443.403 184.76 443.18 185.387 442.884 191.264C442.65 195.999 442.929 198.287 443.99 200.335C446.415 205.019 453.324 206.77 459.389 204.237C463.519 202.526 465.128 198.429 464.695 190.773C464.398 185.433 464.118 184.697 461.625 182.461C459.24 180.338 458.196 180.019 453.798 180.019C449.399 180.019 448.355 180.35 445.964 182.478ZM477.332 180.584C476.299 181.622 476.738 184.303 478.039 184.805C479.037 185.188 479.317 186.871 479.317 192.45C479.317 198.019 479.032 199.707 478.039 200.09C477.343 200.358 476.767 201.487 476.767 202.611C476.767 204.608 476.892 204.637 484.8 204.637C497.22 204.637 499.137 203.034 499.182 192.559C499.228 185.342 498.138 182.877 494.162 181.223C491.241 180.002 478.398 179.517 477.326 180.584M509.937 182.164C509.937 183.356 510.479 184.526 511.152 184.783C512.601 185.33 517.947 194.054 518.706 197.089C519.099 198.618 518.763 199.622 517.513 200.689C514.723 203.068 515.967 204.186 521.701 204.466C526.767 204.705 526.95 204.648 526.95 202.64C526.95 201.505 526.379 200.352 525.672 200.09C524.964 199.827 524.394 198.897 524.394 198.036C524.394 196.01 529.928 186.774 532.187 185.045C533.174 184.281 533.802 182.991 533.625 182.073C533.368 180.732 532.449 180.401 528.433 180.19C523.726 179.939 523.544 180.019 523.544 182.056C523.544 183.208 523.937 184.395 524.411 184.697C525.284 185.239 522.899 190.203 521.769 190.203C521.456 190.203 520.72 189.061 520.143 187.658C519.299 185.638 519.299 184.857 520.138 183.847C522.237 181.314 520.52 180.019 515.066 180.019C510.148 180.019 509.937 180.104 509.937 182.164ZM562.67 182.05C562.67 183.168 563.252 184.303 563.948 184.566C564.946 184.948 565.226 186.648 565.226 192.325C565.226 198.002 564.94 199.707 563.948 200.084C563.252 200.352 562.67 201.487 562.67 202.611C562.67 204.563 562.909 204.637 568.626 204.637C574.103 204.637 574.582 204.494 574.582 202.857C574.59 202.349 574.427 201.854 574.118 201.451C573.809 201.049 573.374 200.762 572.882 200.637C571.673 200.324 571.176 199.485 571.176 197.751C571.176 195.525 571.45 195.297 574.052 195.297C577.064 195.297 579.677 193.243 578.331 191.931C577.908 191.515 576.22 191.053 574.582 190.91C571.912 190.653 571.576 190.339 571.342 187.869C571.085 185.228 571.193 185.113 574.069 185.113C576.197 185.113 577.338 185.604 577.983 186.808C579.044 188.793 579.677 188.896 581.725 187.401C582.918 186.54 583.106 185.644 582.638 183.157L582.039 180.019H572.363C562.704 180.019 562.67 180.013 562.67 182.05ZM593.295 182.038C593.295 183.14 593.872 184.526 594.568 185.113C595.52 185.901 595.846 188 595.846 193.323C595.846 199.724 596.057 200.683 597.877 202.492C602.15 206.759 611.655 206.029 614.125 201.248C614.941 199.679 615.409 196.398 615.409 192.228C615.409 187.538 615.785 185.268 616.704 184.241C619.06 181.645 617.417 180.019 612.43 180.019C607.496 180.019 606.161 181.262 608.209 183.967C609.007 185.011 609.407 187.886 609.43 192.525C609.452 199.382 609.412 199.519 607.205 200.078C603.222 201.071 602.252 199.639 601.979 192.353C601.785 187.287 602.036 185.41 603.063 184.286C605.544 181.548 603.838 180.019 598.304 180.019C593.598 180.019 593.295 180.133 593.295 182.038ZM629.015 182.164C629.015 183.356 629.597 184.543 630.294 184.8C631.286 185.188 631.571 186.871 631.571 192.439C631.571 198.007 631.286 199.707 630.294 200.084C629.597 200.352 629.015 201.487 629.015 202.611C629.015 204.637 629.016 204.637 639.273 204.637H649.531L649.269 201.031C649.046 197.99 648.693 197.38 647.033 197.14C645.612 196.94 644.922 197.363 644.591 198.623C644.226 200.038 643.461 200.392 640.768 200.392C637.499 200.392 637.419 200.324 637.687 197.636C637.921 195.115 638.235 194.829 641.35 194.453C644.517 194.054 644.853 193.688 644.454 191.053C644.385 190.585 642.799 190.203 640.928 190.203C637.71 190.203 637.522 190.06 637.522 187.658C637.522 185.256 637.71 185.113 640.928 185.113C643.381 185.113 644.328 185.467 644.328 186.386C644.328 187.234 645.178 187.658 646.879 187.658C649.337 187.658 649.429 187.515 649.429 183.836V180.024H629.015V182.164ZM661.341 182.038C661.341 183.14 661.917 184.526 662.613 185.113C663.549 185.884 663.891 187.949 663.891 192.878C663.891 198.07 663.606 199.707 662.613 200.09C661.917 200.352 661.341 201.487 661.341 202.611C661.341 204.631 661.375 204.637 671.12 204.637H680.904V200.392C680.904 196.461 680.75 196.147 678.833 196.147C677.493 196.147 676.574 196.758 676.209 197.887C675.752 199.308 675.062 199.588 672.54 199.371L669.42 199.12L669.163 192.102C668.969 186.409 669.163 184.994 670.236 184.583C670.96 184.303 671.548 183.168 671.548 182.044C671.548 180.127 671.263 180.019 666.442 180.019C661.621 180.019 661.341 180.133 661.341 182.038ZM266.051 185.313C262.97 186.757 262.297 195.902 265.024 199.194C266.205 200.603 269.503 200.757 271.836 199.508C273.211 198.777 273.474 197.711 273.468 192.93C273.456 189.797 273.171 186.819 272.829 186.312C271.859 184.862 268.151 184.32 266.051 185.313ZM417.552 186.334C416.583 188.845 417.895 190.328 420.827 190.043C423.149 189.82 423.6 189.432 423.6 187.658C423.6 185.884 423.149 185.49 420.827 185.273C418.922 185.085 417.906 185.416 417.552 186.334ZM449.581 186.757C449.097 187.658 448.697 190.465 448.697 192.992C448.697 198.178 450.295 200.392 454.026 200.392C457.118 200.392 458.904 197.499 458.904 192.507C458.904 186.631 457.854 185.113 453.798 185.113C451.367 185.113 450.215 185.558 449.576 186.751M485.267 192.353C485.267 200.324 485.838 201.196 490.134 199.77C492.37 199.028 492.519 198.669 492.758 193.243C493.044 186.568 492.216 185.113 488.143 185.113H485.267V192.353ZM334.462 189.991C333.937 192.667 335.084 194.424 336.459 193.049C337.423 192.091 336.687 187.658 335.575 187.658C335.209 187.658 334.707 188.713 334.456 189.997M418.072 197.471C418.072 200.358 418.203 200.489 420.753 200.232C426.105 199.707 425.888 194.453 420.525 194.453C418.288 194.453 418.072 194.698 418.072 197.471Z" fill="black"/>
</svg>
