<svg width="750" height="275" viewBox="0 0 750 275" fill="none" xmlns="http://www.w3.org/2000/svg">
<path fill-rule="evenodd" clip-rule="evenodd" d="M337.845 39.8289C337.366 40.2937 336.961 48.4941 336.961 58.0438V75.3892H323.843L324.203 87.4276L324.578 99.4659L331.504 99.8557L338.445 100.245L338.085 127.185C337.74 152.222 337.905 154.56 340.454 160.122C343.977 167.843 350.079 172.4 360.423 175.039C367.379 176.808 370.317 176.913 378.563 175.699C383.96 174.904 388.622 174.005 388.922 173.69C389.462 173.165 387.093 157.559 385.849 153.346C385.354 151.697 383.9 151.397 378.953 151.862C373.661 152.372 372.116 151.967 368.863 149.178L365.04 145.91L364.606 123.063L364.186 100.245L374.395 99.8557L384.619 99.4659L384.994 87.5025L385.369 75.5092L375.205 75.1194L365.04 74.7446V57.834C365.04 47.9994 364.501 40.5186 363.736 39.9639C362.102 38.7646 339.015 38.6446 337.845 39.8289ZM171.483 72.9606C149.445 76.5886 133.029 93.1994 129.326 115.507C124.499 144.711 141.844 169.642 171.243 175.729C181.197 177.827 198.932 176.523 208.002 173.09C212.732 171.148 217.131 168.488 221.045 165.204L226.697 160.107L219.531 152.941C215.588 148.998 211.795 145.745 211.136 145.715C210.476 145.685 207.478 146.84 204.539 148.264C197.043 151.877 185.545 153.961 178.694 152.941C168.979 151.487 159.429 143.901 157.45 136.076L156.596 132.657H229.845L230.76 127.845C232.034 121.009 229.515 106.797 225.468 97.9368C219.021 83.8446 207.733 75.4192 191.931 72.8557C182.546 71.3415 181.137 71.3565 171.483 72.9456M271.237 72.9456C247.55 76.3337 234.163 100.335 245.991 118.146C250.264 124.577 255.526 127.8 271.957 134.037C286.439 139.539 290.007 141.982 290.007 146.45C290.007 155.955 270.443 155.865 257.895 146.3L253.697 143.122L245.647 151.712L237.611 160.272L240.609 163.465C242.258 165.219 248 168.802 253.352 171.456C262.887 176.148 263.442 176.253 278.193 176.253C292.046 176.253 293.785 175.953 299.931 172.745C311.565 166.629 317.427 157.409 317.382 145.385C317.322 130.754 309.811 122.508 290.891 116.287C274.116 110.77 270.428 108.566 270.428 104.083C270.428 95.8829 282.991 93.5142 294.669 99.5259L301.086 102.824L308.582 94.6236C312.689 90.1411 316.062 85.7485 316.077 84.879C316.107 82.8551 305.883 76.8884 298.792 74.8045C289.827 72.3396 280.455 71.7172 271.237 72.9456ZM437.63 72.9306C420.39 75.854 405.788 87.1727 397.902 103.739C394.124 111.699 393.749 113.603 393.779 124.982C393.809 136.735 394.079 138.025 398.667 147.229C404.498 159.028 412.084 166.419 424.182 172.146C432.413 176.013 433.777 176.253 447.914 176.253C462.036 176.253 463.416 176.013 471.406 172.206C481.623 167.257 490.016 159.224 495.393 149.248C500.77 139.271 502.858 127.859 501.36 116.631C500.19 108.386 493.099 91.8202 491.015 92.5248C490.296 92.7646 485.558 97.6519 480.521 103.379C472.591 112.359 471.451 114.248 472.321 117.036C474.045 122.688 473.22 132.178 470.627 136.615C468.552 139.723 466.026 142.507 463.131 144.876C458.423 148.684 457.449 148.923 447.255 148.923C437.105 148.923 436.086 148.669 431.393 144.936C423.838 138.909 421.589 133.677 422.114 123.303C422.473 115.852 423.133 113.858 426.551 109.63C432.938 101.745 437.945 99.4659 448.874 99.4659H458.289L467.493 90.3659C477.883 80.0817 477.883 80.0817 465.605 75.5692C456.643 72.3924 447.03 71.4857 437.63 72.9306ZM630.873 72.8707C620.299 74.7003 610.562 79.7742 603.019 87.3849C595.475 94.9955 590.501 104.764 588.791 115.327C584.563 140.603 597.981 163.87 622.148 173.045C632.447 176.943 653.615 177.408 664.799 173.96C672.055 171.711 681.935 165.309 684.528 161.172C685.967 158.848 681.815 153.376 674.214 147.619L670.016 144.426L664.349 147.574C652.386 154.23 634.561 154.171 625.746 147.484C621.173 144.006 616.286 137.2 616.271 134.307C616.271 133.077 624.951 132.612 653.151 132.358L690 132.013L689.895 119.645C689.775 103.214 686.402 94.3088 676.792 84.9539C665.803 74.2349 648.638 69.7224 630.858 72.8707M102.641 75.869C98.343 78.0645 94.4741 81.0093 91.2171 84.5641L86.4198 90.186V75.734L74.9811 75.1344C68.7146 74.7895 62.538 74.7896 61.2787 75.1044C59.1499 75.6591 59 79.1522 59 125.012V174.304H87.7091V144.561C87.7091 115.867 87.814 114.667 90.6474 110.47C95.6247 103.124 101.142 100.77 113.54 100.77C126.133 100.77 125.383 101.745 125.893 84.5042L126.208 73.4403L117.722 73.1105C111.036 72.8407 107.858 73.4103 102.641 75.854M559.992 76.4237C555.699 78.7693 551.885 81.8966 548.748 85.6435L544.491 91.2055V75.4042H531.448C521.838 75.4042 518.405 75.824 518.435 77.0234C518.48 77.9229 518.33 100.036 518.12 126.151L517.731 173.645L531.763 174.02L545.795 174.394V144.741C545.795 111.294 546.155 109.855 555.78 103.903C560.067 101.235 562.436 100.77 572.12 100.77H583.439L584.968 88.1772C585.823 81.251 586.138 74.9545 585.658 74.1899C585.178 73.4253 580.831 72.7957 575.883 72.7957C568.657 72.7957 565.644 73.4703 559.992 76.4237ZM471.556 93.4992C455.44 108.896 455.365 108.941 448.169 109.54C441.873 110.05 440.403 110.74 436.461 115.042C432.383 119.465 432.023 120.499 432.608 125.731C432.998 129.299 434.407 132.747 436.266 134.726C438.473 137.192 441.419 138.882 444.666 139.545C447.913 140.207 451.288 139.808 454.289 138.405C457.29 137.002 459.757 134.671 461.323 131.758C462.889 128.846 463.47 125.507 462.981 122.238L462.276 116.392L479.232 97.7868C488.572 87.5325 496.203 78.8973 496.203 78.5675C496.203 78.2376 494.299 78.0128 491.96 78.0427C488.347 78.0577 485.334 80.3365 471.556 93.4992ZM170.433 97.3371C164.976 99.8857 159.204 106.242 157.615 111.474L156.716 114.353L181.002 114.113L205.319 113.858L204.524 110.56C203.52 106.362 200.087 101.655 195.619 98.3115C190.522 94.5336 177.554 94.0239 170.433 97.3371ZM630.678 96.9773C628.179 98.069 625.827 99.4692 623.677 101.145C620.574 103.948 616.106 112.539 617.2 113.633C617.65 114.083 628.489 114.443 641.292 114.443C662.58 114.443 664.559 114.248 664.529 112.164C664.499 107.981 658.742 99.7657 654.14 97.3221C648.563 94.3687 637.094 94.2038 630.678 96.9773ZM443.567 122.838C442.187 126.376 444.076 128.925 447.764 128.49C450.433 128.19 451.183 127.38 451.183 124.847C451.183 122.313 450.433 121.504 447.764 121.204C445.591 120.949 444.046 121.549 443.567 122.838ZM631.937 202.534C627.95 203.988 624.097 208.65 624.097 212.038C624.097 216.131 626.765 218.785 633.661 221.633C637.184 223.087 638.534 224.362 638.219 225.981C637.679 228.814 631.308 229.819 628.519 227.525C626.96 226.221 626.166 226.326 624.426 228.08C622.418 230.073 622.447 230.343 624.816 232.142C633.856 238.979 646.704 233.012 644.755 222.862C644.5 221.573 641.232 218.83 637.469 216.836C633.706 214.812 630.618 212.368 630.618 211.379C630.618 208.845 635.25 207.706 638.489 209.43C640.542 210.539 641.712 210.524 643.106 209.355C646.014 206.956 645.37 205.547 640.453 203.508C635.625 201.499 634.981 201.409 631.937 202.534ZM674.094 202.924C668.487 205.172 666.568 213.807 670.841 217.66C672.145 218.83 675.113 220.464 677.437 221.258C680.66 222.398 681.575 223.402 681.26 225.516C680.81 228.769 675.848 229.968 672.909 227.525C671.335 226.221 670.556 226.325 668.907 227.96C666.193 230.658 667.528 232.457 673.569 234.256C679.641 236.085 684.963 234.046 687.931 228.769C689.655 225.696 689.625 224.991 687.541 221.828C685.756 219.488 683.411 217.632 680.72 216.431C675.713 214.362 673.854 211.349 676.148 209.055C677.257 207.961 678.621 207.946 681.5 209.025C684.603 210.194 685.652 210.075 686.972 208.5C688.336 206.851 688.081 206.102 685.577 204.078C682.324 201.439 678.681 201.08 674.094 202.924ZM60.2893 218.59C60.2893 231.737 60.6341 234.376 62.3881 235.051C65.2365 236.145 66.7807 233.252 66.7957 226.685L66.8107 221.138H79.8534V227.495C79.8534 232.832 80.3032 233.971 82.5519 234.571C86.2549 235.53 86.5397 234.151 86.12 217.825C85.7602 204.288 85.5953 203.553 82.8818 203.178C80.3032 202.819 79.9734 203.433 79.6136 209.025L79.2088 215.292L73.0172 215.681L66.8107 216.086V211.574C66.8107 205.367 65.6863 202.924 62.7629 202.924C60.4692 202.924 60.2893 204.108 60.2893 218.59ZM108.577 203.643C108.577 204.033 110.751 207.691 113.435 211.784C117.213 217.585 118.427 220.884 118.982 227C119.581 233.716 120.031 234.811 122.28 234.811C124.499 234.811 124.993 233.716 125.578 227.66C126.073 222.353 127.497 218.575 131.125 212.983C136.777 204.258 137.047 202.938 133.029 202.938C130.93 202.938 129.041 204.663 126.373 209.085C122.325 215.756 122.355 215.756 117.453 206.926C115.878 204.078 114.259 202.924 111.906 202.924C110.077 202.924 108.577 203.253 108.577 203.643ZM159.474 218.485C159.474 227.03 159.999 234.331 160.674 234.751C163.522 236.52 165.996 233.776 165.996 228.814C165.996 224.257 166.325 223.747 169.324 223.747C177.869 223.747 183.416 216.926 180.867 209.61C179.263 205.112 174.616 202.968 166.325 202.938H159.474V218.485ZM205.154 219.249V235.575L215.918 235.186C225.693 234.856 226.682 234.586 226.682 232.217C226.682 229.968 225.678 229.549 219.186 229.219C211.84 228.829 211.69 228.754 211.69 224.991C211.69 221.243 211.84 221.153 218.212 221.153C223.864 221.153 224.733 220.794 224.733 218.545C224.733 216.296 223.864 215.936 218.212 215.936C212.11 215.936 211.675 215.726 211.675 212.683C211.675 209.625 212.065 209.43 218.871 209.43C225.678 209.43 226.037 209.25 226.037 206.177C226.037 202.983 225.872 202.924 215.588 202.924H205.154V219.249ZM250.834 219.294C250.834 235.5 250.864 235.635 253.772 235.231C256.276 234.886 256.77 233.896 257.115 228.634C257.61 220.779 259.724 220.689 263.906 228.364C266.875 233.761 271.837 237.09 273.891 235.036C274.296 234.616 273.051 231.573 271.102 228.259L267.549 222.218L270.293 220.299C272.242 218.92 273.021 217.001 273.021 213.373C273.021 206.087 268.614 202.924 258.479 202.924H250.834V219.294ZM330.454 203.913C330.454 204.438 332.388 211.319 334.727 219.204C338.625 232.427 339.225 233.536 342.403 233.896C345.641 234.286 346.031 233.746 348.834 224.272C352.102 213.283 352.192 213.328 355.97 226.745C357.904 233.701 358.369 234.286 361.472 233.896C364.576 233.507 365.22 232.337 369.133 219.204C371.487 211.319 373.451 204.438 373.481 203.913C373.511 203.388 372.056 202.924 370.302 202.924C367.649 202.924 366.854 203.838 365.73 208.141C361.322 225.081 361.487 224.661 360.453 221.153L357.305 210.419C355.416 203.973 354.666 202.924 351.953 202.924C349.359 202.924 348.564 203.883 347.38 208.47C346.435 212.074 345.401 215.653 344.277 219.204L342.598 224.407L340.394 216.596C337.126 205.007 336.016 202.924 333.078 202.924C331.624 202.924 330.439 203.373 330.454 203.913ZM397.287 218.875L397.647 234.811H407.437C416.522 234.811 417.256 234.601 417.631 231.962C418.006 229.324 417.421 229.069 410.45 228.694C403.344 228.334 402.879 228.11 402.879 225.051C402.879 222.053 403.389 221.768 409.805 221.408C415.502 221.078 416.672 220.614 416.327 218.8C416.027 217.196 414.153 216.401 409.386 215.951C403.899 215.397 402.804 214.842 402.475 212.428C402.085 209.805 402.684 209.535 409.641 209.175C416.387 208.83 417.286 208.455 417.646 205.862C418.036 203.028 417.706 202.924 407.497 202.924H396.928L397.287 218.875ZM441.933 204.633C441.588 205.592 441.453 212.758 441.648 220.584L442.023 234.826H451.812C460.732 234.826 461.602 234.586 461.602 232.217C461.602 229.998 460.597 229.549 454.751 229.219L447.899 228.829V215.876C447.899 203.733 447.734 202.924 445.246 202.924C443.792 202.924 442.292 203.718 441.933 204.633ZM484.734 218.785L485.094 234.826L494.389 235.201C502.739 235.53 503.758 235.306 504.358 232.997C505.302 229.429 504.493 228.949 497.312 228.949H491.06L490.686 216.266C490.326 204.168 490.176 203.553 487.342 203.163L484.359 202.729L484.734 218.785ZM526.906 204.558C526.621 205.457 526.486 212.323 526.621 219.849C526.861 233.492 526.861 233.507 530.114 233.507C533.337 233.507 533.382 233.402 532.932 224.077C532.677 218.89 532.962 214.632 533.577 214.632C534.191 214.632 537.49 219.085 540.893 224.497C546.44 233.252 547.489 234.286 550.682 233.911L554.265 233.507V218.545C554.265 204.108 554.16 203.568 551.387 203.178C548.643 202.789 548.479 203.253 548.134 213.583L547.744 224.407L540.758 213.673C535.166 205.082 533.142 202.924 530.608 202.924C528.854 202.924 527.19 203.673 526.906 204.558ZM580.006 218.875L580.366 234.811H590.8C600.65 234.811 601.279 234.646 601.669 231.887C602.059 229.129 601.624 228.964 594.173 228.964H586.228V225.066C586.228 221.243 586.377 221.153 592.764 221.153C598.416 221.153 599.285 220.794 599.285 218.545C599.285 216.296 598.416 215.951 592.764 215.951C586.662 215.951 586.243 215.726 586.243 212.683C586.243 209.685 586.692 209.43 592.509 209.43C599.075 209.43 602.164 207.736 601.009 204.722C600.485 203.418 597.561 202.924 589.976 202.924H579.631L580.006 218.875ZM165.996 213.328C165.996 217.151 166.266 217.375 170.238 217.001C173.791 216.656 174.481 216.056 174.481 213.343C174.481 210.629 173.791 210.03 170.238 209.685C166.281 209.295 165.996 209.52 165.996 213.328ZM256.081 211.634C256.111 215.681 258.11 217.48 262.077 217.031C265.106 216.671 265.84 215.951 265.84 213.343C265.84 210.524 265.181 210.045 260.953 209.685C256.935 209.355 256.051 209.715 256.081 211.634Z" fill="black"/>
</svg>
