<svg width="750" height="250" viewBox="0 0 750 250" fill="none" xmlns="http://www.w3.org/2000/svg">
<path d="M55.5659 51L32.7901 73.7758L130.663 73.8043C133.158 73.8043 135.181 75.8282 135.181 78.3224V94.8556C135.181 95.839 134.854 96.9079 134.098 97.6633C133.343 98.4187 110.995 120.767 110.995 120.767C110.182 121.579 108.857 121.579 108.044 120.767L94.9033 107.626C94.0909 106.814 94.0909 105.488 94.9033 104.676L101.502 98.0767C102.058 97.5208 101.659 96.5801 100.875 96.5801H56.4781C55.9935 96.5801 55.5944 96.9792 55.5944 97.4638V141.861C55.5944 142.645 56.5493 143.044 57.0909 142.488L63.8609 135.718C64.6734 134.906 65.9989 134.906 66.8113 135.718L79.9522 148.859C80.7647 149.671 80.7647 150.997 79.9522 151.809C79.9522 151.809 57.7893 173.972 56.9769 174.785C56.1645 175.597 55.2666 176.167 53.9696 176.167H37.4792C34.9137 176.167 32.8471 174.086 32.8471 171.535L32.8043 73.7901L10 96.5659V199H112.349L135.153 176.196H120.173C119.404 176.196 118.677 175.811 118.249 175.369C117.807 174.927 66.1984 123.318 65.6995 122.819C65.1865 122.306 64.9584 121.522 64.9584 120.909V107.426C64.9584 106.628 65.5998 105.987 66.3979 105.987H80.0093C80.6506 105.987 81.3348 106.272 81.7481 106.685C82.1472 107.084 133.614 158.551 134.155 159.092C134.697 159.634 135.167 160.446 135.167 161.458V176.196L158.014 153.349V51H55.5659Z" fill="black"/>
<path d="M303.805 151.553C300.142 148.432 296.522 145.311 292.959 142.189C289.396 139.068 285.989 136.061 282.711 133.196C287.856 132.811 292.203 131.856 295.781 130.374C299.344 128.891 302.209 126.739 304.404 123.917C306.584 121.095 308.138 117.546 309.079 113.285C310.019 109.037 310.475 103.878 310.475 97.8348C310.376 91.2073 309.62 85.72 308.181 81.4015C306.741 77.0971 304.475 73.6765 301.354 71.1538C298.232 68.631 294.128 66.8495 289.025 65.7948C283.923 64.7686 277.666 64.2412 270.226 64.2412H184.809V169.298H221.054V116.691L279.105 169.298H324.457C321.379 166.633 318.086 163.782 314.58 160.76C311.06 157.753 307.468 154.675 303.805 151.553ZM274.102 107.783C272.221 109.166 270.04 109.864 267.56 109.864H221.054V94.2574H268.002C270.383 94.2574 272.463 94.9415 274.245 96.324C276.027 97.7208 276.91 99.5451 276.91 101.826C276.91 104.405 275.97 106.386 274.088 107.783H274.102Z" fill="black"/>
<path d="M468.823 64.2412H420.249L391.929 92.5471L363.623 64.2412H315.064L367.657 116.834L329.317 155.173L343.456 169.298H363.766L391.944 141.12L420.135 169.298H468.68L416.216 116.848L468.823 64.2412Z" fill="black"/>
<path d="M506.307 92.2905C507.647 91.3498 510.241 90.8795 514.104 90.8795H594.916V81.4015C594.916 80.7886 594.788 79.3633 594.703 78.9072C594.09 75.5293 592.836 72.9211 590.911 71.0968C588.731 69.0159 586.393 67.4196 583.928 66.3221C581.049 65.2389 577.884 64.5405 574.421 64.2412H497.471C487.366 64.2412 482.163 67.049 477.745 72.6503C473.341 78.2516 471.132 86.6179 471.132 97.7208C471.132 108.254 473.284 116.221 477.588 121.68C481.907 127.138 488.72 129.861 498.027 129.861H548.866C550.733 129.861 552.472 130.032 554.068 130.388C555.636 130.73 556.933 131.343 557.931 132.241C558.914 133.139 559.399 134.421 559.399 136.103C559.399 138.484 558.315 140.194 556.135 141.234C553.954 142.275 551.474 142.788 548.709 142.788H471.032V152.451C471.103 153.663 471.346 155.045 471.631 156.157L483.845 168.343C486.04 168.942 488.634 169.255 491.684 169.255H561.936C573.523 169.255 581.904 166.675 587.049 161.53C592.194 156.371 594.774 147.976 594.774 136.374C594.774 132.412 594.432 128.649 593.733 125.143C593.035 121.623 591.995 118.416 590.626 115.551C589.429 113.47 587.79 111.574 585.709 109.893C583.928 108.51 581.576 107.199 578.668 105.945C575.747 104.705 572.055 104.092 567.594 104.092H514.716C511.453 104.092 508.901 103.55 507.077 102.453C505.238 101.355 504.326 99.6734 504.326 97.393C504.326 94.913 504.996 93.2027 506.322 92.262L506.307 92.2905Z" fill="black"/>
<path d="M702.51 159.649L701.127 157.653H694.144L696.267 154.561H698.99C698.776 154.261 698.576 153.976 698.405 153.72C698.22 153.463 698.049 153.192 697.864 152.936C697.678 152.679 697.493 152.408 697.293 152.138C697.094 151.867 696.88 151.582 696.652 151.268L690.88 159.663H684.623L693.417 147.363H700.016L708.696 159.663H702.51V159.649ZM681.473 158.751C680.689 159.349 679.406 159.663 677.639 159.663H666.55C665.767 159.663 665.168 159.563 664.755 159.364C664.341 159.164 664.028 158.936 663.814 158.694C663.572 158.409 663.429 158.067 663.401 157.696V156.57H675.615C676.043 156.57 676.413 156.513 676.741 156.385C677.069 156.257 677.24 156.057 677.24 155.786C677.24 155.587 677.169 155.444 677.012 155.33C676.855 155.23 676.67 155.145 676.428 155.116C676.185 155.074 675.929 155.059 675.629 155.059H667.192C665.767 155.059 664.74 154.746 664.07 154.104C663.415 153.463 663.087 152.537 663.087 151.311C663.087 150.014 663.429 149.031 664.099 148.375C664.769 147.719 665.881 147.391 667.42 147.391H679.164C679.691 147.42 680.176 147.505 680.618 147.634C681.003 147.762 681.359 147.947 681.687 148.19C682.015 148.432 682.228 148.788 682.3 149.273V150.513H669.971C669.387 150.513 668.988 150.57 668.774 150.684C668.574 150.798 668.475 150.997 668.475 151.282C668.475 151.553 668.617 151.753 668.888 151.881C669.173 152.009 669.558 152.066 670.057 152.066H678.494C679.178 152.066 679.734 152.138 680.176 152.28C680.618 152.423 680.988 152.579 681.259 152.736C681.573 152.936 681.829 153.15 682 153.392C682.214 153.734 682.371 154.104 682.471 154.518C682.57 154.931 682.627 155.373 682.627 155.829C682.627 157.183 682.228 158.166 681.444 158.765M661.191 155.957C661.191 156.385 661.12 156.798 660.992 157.197C660.864 157.596 660.636 157.967 660.336 158.281C660.037 158.608 659.652 158.879 659.182 159.107C658.711 159.335 658.156 159.492 657.5 159.563C657.101 159.649 656.645 159.692 656.089 159.706C655.547 159.72 654.849 159.734 653.98 159.734H650.231C649.219 159.734 648.35 159.734 647.651 159.734C646.953 159.734 646.383 159.72 645.941 159.692C645.499 159.663 645.129 159.635 644.829 159.563H644.858C644.316 159.492 643.874 159.392 643.518 159.235C643.162 159.093 642.777 158.851 642.335 158.537C641.85 158.181 641.523 157.796 641.366 157.397C641.209 156.998 641.124 156.513 641.124 155.943V147.334H646.582V155.444C646.582 155.587 646.682 155.701 646.867 155.786C647.053 155.872 647.352 155.915 647.737 155.915H654.521C654.963 155.915 655.277 155.872 655.462 155.786C655.647 155.701 655.747 155.587 655.747 155.444V147.334H661.191V155.943V155.957ZM654.592 103.45L707.498 127.281V136.16C707.498 137.144 706.971 137.913 705.931 138.441C704.89 138.982 703.18 139.253 700.814 139.253H646.725C644.145 139.253 642.421 139.082 641.523 138.74C640.639 138.384 640.197 137.529 640.197 136.146V96.324C640.197 94.5567 642.364 93.673 646.725 93.673H739.752V64.2412H643.304C619.631 64.2412 607.801 74.2609 607.801 94.2859V140.165C607.801 144.812 608.357 148.617 609.497 151.639C610.637 154.66 612.59 157.383 615.355 159.863C616.951 161.231 618.405 162.442 619.745 163.483C621.099 164.523 622.652 165.378 624.434 166.077C626.23 166.775 628.367 167.331 630.904 167.773C633.427 168.215 636.577 168.571 640.34 168.813C644.102 169.056 648.692 169.212 654.079 169.241C659.481 169.298 665.98 169.326 673.62 169.326C684.822 169.326 694.571 169.127 702.895 168.728C711.218 168.329 718.102 167.203 723.561 165.321C729.006 163.454 733.082 160.532 735.747 156.584C738.413 152.636 739.752 147.163 739.752 140.151V103.45H654.607H654.592Z" fill="black"/>
</svg>
