<svg width="750" height="275" viewBox="0 0 750 275" fill="none" xmlns="http://www.w3.org/2000/svg">
<path d="M125.791 119.136C125.791 119.136 117.535 91.2939 70.4454 91.2939C23.3555 91.2939 20.4379 115.517 20.4153 122.8C20.4153 126.871 24.0115 148.041 62.1221 151.773C83.9707 153.922 87.5669 155.189 87.5216 158.559C87.5216 161.069 84.129 163.783 76.5069 163.874C69.7216 163.874 59.702 162.698 57.1236 155.573H17C17 155.573 17.7238 183.936 70.4001 184.094C117.332 184.207 125.881 168.443 125.768 153.334C125.768 153.334 128.256 131.802 90.8012 125.65C70.8299 122.371 54.1381 122.936 54.9976 115.382C55.857 107.827 80.0578 111.356 81.4828 119.136H125.791Z" fill="black"/>
<path d="M196.177 120.403H237.68C237.68 120.403 231.981 91.3623 184.371 91.3623C140.515 91.3623 131.92 120.245 131.92 139.493C131.92 158.74 146.961 184.208 184.371 184.185C232.343 184.185 237.771 154.103 237.748 154.058H195.86C195.86 154.058 196.29 161.907 184.303 161.907C172.315 161.907 168.719 147.069 168.742 137.638C168.764 127.189 172.723 112.962 184.371 112.962C196.019 112.962 196.177 120.403 196.177 120.403Z" fill="black"/>
<path d="M304.832 119.136H279.5V91.2256H244.262V184.184H279.5V142.319H304.832V184.161H340.092V91.2256H304.854L304.832 119.136Z" fill="black"/>
<path d="M437.619 115.562V91.2033L350.609 91.1807V184.162H437.619V159.893H386.368V149.082H428.391V126.261H386.368V115.562H437.619Z" fill="black"/>
<path d="M579.997 91.1361V91.0908H544.239V184.14H546.184V184.162H619.646V159.78H579.997V91.1361Z" fill="black"/>
<path d="M534.264 115.562V91.2033L447.254 91.1807V184.162H534.264V159.893H483.013V149.082H525.036V126.261H483.013V115.562H534.264Z" fill="black"/>
<path d="M733.48 118.91C733.48 118.91 725.225 91 678.135 91C631.045 91 628.15 115.269 628.127 122.665C628.127 126.736 631.724 147.951 669.812 151.706C691.66 153.854 695.256 155.121 695.211 158.491C695.211 161.024 691.818 163.716 684.219 163.829C677.434 163.829 667.392 162.653 664.813 155.505H624.689C624.689 155.505 625.413 183.868 678.09 184.004C725.021 184.139 733.593 168.33 733.48 153.198C733.48 153.198 735.945 131.621 698.513 125.469C678.519 122.167 661.828 122.732 662.687 115.156C663.547 107.579 687.747 111.198 689.172 118.933L733.48 118.91Z" fill="black"/>
</svg>
