<svg width="750" height="275" viewBox="0 0 750 275" fill="none" xmlns="http://www.w3.org/2000/svg">
<path fill-rule="evenodd" clip-rule="evenodd" d="M215.513 31.5211C201.662 33.6122 188.456 38.7791 176.863 46.6423C162.291 56.5478 148.211 75.3178 142.549 92.4407C136.304 111.234 136.509 134.842 143.041 152.354C153.724 180.949 179.048 202.865 209.336 209.75C218.681 211.866 196.64 211.695 429.544 211.386L613 211.134L612.737 121.276L612.485 31.4182L416.824 31.075C309.214 30.8806 218.613 31.075 215.501 31.5325M210.205 44.2861C196.32 47.9463 187.993 52.1326 177.653 60.6426C160.026 75.1462 149.904 96.7414 149.652 120.293C149.492 134.476 151.688 144.198 158.036 157.306C162.211 165.919 164.236 168.779 171.156 175.722C188.336 193.016 210.045 201.286 234.637 199.891C269.707 197.9 298.565 173.56 306.961 138.891C309.34 129.054 309.088 111.52 306.423 101.42C299.023 73.3275 276.387 51.0346 248.478 44.3661C237.405 41.7239 220.099 41.6782 210.205 44.2861ZM281.511 46.4364C295.98 56.6621 309.717 74.5743 315.322 90.5648C320 103.913 321.59 122.717 319.188 136.249C314.91 160.383 299.823 183.58 279.418 197.443C277.061 199.021 286.223 199.124 438.98 199.17L601.047 199.227V43.3253H277.13L281.511 46.4364ZM228.209 53.3794C227.088 56.6964 225.075 85.6807 225.853 87.2706C226.875 89.3295 228.59 89.4858 231 87.7396C232.636 86.5386 232.659 85.5663 231.206 69.7245C229.708 53.4366 229.181 50.5198 228.209 53.3794ZM343.163 57.4857C336.609 60.8256 334.778 63.9368 334.355 72.5268C333.989 79.4812 334.115 79.9274 337.1 83.3359C339.388 85.9095 342.065 87.4765 346.926 89.055C354.772 91.6057 357.575 93.8361 356.637 96.7872C355.173 101.397 349.11 100.219 347.269 95.0028C346.331 92.2805 345.828 91.9946 341.95 91.9946C339.738 91.9953 337.532 92.2098 335.362 92.6352C333.269 93.1956 333.108 93.6303 333.715 97.3248C335.636 109.22 345.931 115.054 358.501 111.417C367.217 108.889 371.998 100.951 370.557 91.3884C369.459 84.068 366.268 81.2084 355.093 77.5597C349.339 75.6952 348.573 75.1348 348.287 72.6527C347.646 67.1738 353.468 66.4075 355.664 71.6804L357.151 75.2034L363.328 74.906C369.413 74.6086 369.539 74.5628 369.825 71.6232C369.996 69.9075 369.139 66.7849 367.766 64.2342C363.305 55.8272 352.325 52.8189 343.163 57.4857ZM464.59 57.4857C456.057 61.7864 452.122 71.6576 452.912 86.7674C453.804 103.703 460.667 112.172 473.5 112.172C483.806 112.16 490.932 106.338 493.551 95.7349C495.381 88.3802 494.363 71.5546 491.79 66.6705C486.322 56.2618 474.77 52.3728 464.59 57.4857ZM561.448 56.1017C557.719 57.1654 552.389 62.0381 550.056 66.4646C547.002 72.2752 546.304 89.1465 548.74 97.5421C552.572 110.673 566.321 116.667 574.694 108.832L576.89 106.773L577.542 109.301C578.114 111.565 578.686 111.851 582.632 111.851H587.104V80.0074L576.901 80.2819L566.698 80.5679V86.0353C566.698 91.4685 566.71 91.4913 569.924 91.8001C573.355 92.1433 573.984 93.5845 572.143 97.0274C570.77 99.5438 566.046 99.5438 563.736 96.9816C561.345 94.3508 560.465 79.2868 562.363 73.6249C563.599 69.999 564.022 69.6444 567.19 69.6444C570.164 69.6444 570.873 70.1249 572.109 72.8814C573.504 76.0498 573.618 76.107 580.31 76.107C586.292 76.107 587.104 75.8782 587.104 74.2426C587.104 71.0742 584.164 63.8682 581.842 61.3632C577.29 56.4105 568.334 54.1115 561.448 56.1017ZM204.052 57.5886C204.338 58.3321 205.596 63.4221 206.82 68.9124C209.05 78.7607 209.107 78.8636 212.596 79.9274C214.518 80.5221 216.233 80.8653 216.405 80.7051C216.668 80.4306 213.191 72.5612 207.026 59.4759C205.596 56.3991 202.954 54.752 204.052 57.5886ZM246.567 67.6771C243.662 73.9681 241.489 79.3211 241.763 79.5842C242.038 79.8473 243.639 79.813 245.309 79.4927C248.26 78.8979 248.455 78.5205 250.948 68.5807C253.785 57.2913 253.934 56.2504 252.687 56.2504C252.229 56.2504 249.473 61.409 246.567 67.6771ZM372.81 61.9466C372.273 69.8389 372.467 70.1477 378.095 70.1477H382.944L383.208 90.7478L383.482 111.348H396.419L396.693 90.7593L396.956 70.1477H407.868V56.2504H373.211L372.81 61.9466ZM411.86 83.4045C411.86 98.4343 412.203 110.925 412.604 111.154C413.004 111.382 416.138 111.348 419.547 111.108L425.723 110.627L426.009 101.054L426.295 91.4913L430.276 101.42L434.256 111.348L441.485 111.645C447.181 111.874 448.691 111.645 448.691 110.524C448.691 109.758 446.907 105.091 444.711 100.173C442.514 95.2545 440.73 90.7936 440.73 90.2674C440.73 89.7413 441.679 88.4602 442.823 87.4308C448.222 82.5696 449.652 71.8749 445.912 64.6002C442.56 58.1034 439.197 56.8223 424.556 56.3991L411.86 56.0559V83.4045ZM500.7 83.7934L500.975 111.359H513.923V97.7709C513.923 90.3017 514.083 84.3653 514.3 84.5712C514.518 84.7771 517.205 90.8965 520.294 98.1483L525.921 111.337L533.127 111.634C537.074 111.794 540.333 111.794 540.345 111.634C540.871 107.116 541.34 62.2211 540.871 59.7505L540.219 56.2389H527.363L527.283 69.8846L527.191 83.5418L525.189 79.0809C523.167 74.5374 521.166 69.985 519.184 65.4238L515.204 56.2389H500.449L500.7 83.7934ZM183.417 69.4042C185.522 73.1788 191.252 81.0712 191.882 81.0712C192.712 80.9689 193.524 80.7534 194.295 80.4306C195.633 79.9274 194.844 78.6806 190.177 73.9795C184.778 68.535 181.816 66.5333 183.417 69.4042ZM267.534 73.5678C262.981 78.1773 262.363 79.2067 263.45 80.5221C264.171 81.3686 265.086 82.0663 265.509 82.0663C266.31 82.0663 274.454 70.0105 274.454 68.8323C274.454 67.2081 272.532 68.5235 267.534 73.5678ZM470.618 69.9418C466.26 73.4762 465.894 94.4767 470.138 97.5764C472.974 99.6582 476.371 99.2235 478.098 96.5813C481.793 90.9766 481.13 74.5743 477.069 70.5137C474.232 67.6885 473.5 67.6313 470.618 69.9418ZM425.803 75.1119C425.803 81.0483 425.803 81.0597 428.766 81.0597C432.014 81.0597 433.776 78.8522 433.776 74.7573C433.791 74.0239 433.659 73.2948 433.386 72.6131C433.114 71.9315 432.707 71.3111 432.19 70.7886C431.673 70.2662 431.056 69.8522 430.375 69.5712C429.695 69.2902 428.965 69.1479 428.228 69.1526C425.94 69.1526 425.803 69.4729 425.803 75.1119ZM244.589 84.7771C237.954 87.1105 228.838 96.6385 224.377 105.938C219.001 117.067 217.286 124.513 217.24 137.164C217.137 163.7 226.471 168.23 247.711 151.965C273.561 132.131 282.083 103.067 266.333 88.3916C260.522 82.9813 253.179 81.7575 244.589 84.7771ZM196.926 85.0631C185.831 89.7298 180.546 103.364 184.264 117.776C187.421 130.072 198.138 144.793 210.263 153.463L215.01 156.86L214.289 153.967C212.527 146.875 212.482 130.381 214.209 122.191C216.142 112.995 215.81 111.108 210.457 100.459C206.831 93.2185 209.233 94.6254 214.495 102.792L217.926 108.134L221.358 101.797C224.48 96.078 224.675 95.2316 223.474 93.0126C222.742 91.6743 220.214 89.2151 217.869 87.568C214.209 85.0059 212.562 84.5484 206.431 84.3196C202.496 84.1823 198.207 84.5255 196.926 85.0631ZM167.861 88.4602C168.525 89.2494 171.304 91.3312 174.061 93.0926C178.144 95.7005 179.208 96.0323 179.929 94.877C181.37 92.6237 181.153 92.3949 175.01 89.6498C168.262 86.6187 166.031 86.2526 167.861 88.4602ZM282.174 89.6612C278.285 91.4341 276.455 92.841 276.455 94.0534C276.455 97.1761 277.874 96.9244 284.176 92.6694C293.269 86.5157 292.297 85.0631 282.174 89.6612ZM259.973 112.08C256.965 118.977 251.806 126.584 246.956 131.273L242.415 135.677H245.435C247.094 135.677 248.695 136.077 249.015 136.569C249.93 138.056 240.734 148.488 234.374 153.154C227.809 157.993 227.672 158.576 233.848 155.431C238.801 152.914 247.734 144.679 251.634 139.028C254.563 134.796 254.517 133.687 251.383 133.687C250.388 133.687 249.564 133.492 249.564 133.241C249.564 132.989 251.795 129.866 254.517 126.275C257.491 122.351 260.122 117.536 261.094 114.23C263.061 107.482 262.478 106.372 259.973 112.091M159.946 109.85C159.946 110.673 174.587 115.82 176.92 115.82C177.447 115.82 177.87 114.711 177.87 113.361C177.87 110.559 177.046 110.273 166.66 109.472C162.863 109.163 159.946 109.323 159.946 109.85ZM287.905 109.792C280.115 110.353 279.932 110.421 279.612 113.087C279.441 114.688 279.784 115.82 280.47 115.82C283.364 115.82 298.336 110.627 297.822 109.792C297.501 109.289 296.93 108.946 296.552 109.049C296.175 109.152 292.286 109.484 287.905 109.792ZM352.027 122.695C339.823 125.074 334.206 134.979 334.206 154.115C334.206 166.194 335.991 172.645 340.921 178.398C345.153 183.317 349.728 185.318 356.751 185.318C368.647 185.318 375.773 178.273 377.569 164.73L378.243 159.674L372.833 158.999C363.911 157.89 362.665 158.37 362.024 163.14C361.361 168.093 359.622 170.426 356.648 170.426C352.142 170.426 350.666 167.12 350.277 156.231C349.751 141.144 352.622 134.762 358.661 137.518C360.835 138.502 361.429 140.092 362.413 147.584C362.573 148.762 364.186 149.071 370.054 149.071H377.511L377.82 145.308C378.964 131.468 365.89 120.007 352.027 122.695ZM400.914 122.752C389.796 124.811 383.837 133.195 382.43 148.854C381.194 162.259 385.346 176.694 391.695 181.121C399.015 186.268 410.705 186.668 417.739 182.036C424.396 177.632 428.8 166.457 428.8 153.932C428.8 145.834 426.101 135.368 422.841 130.896C418.357 124.742 409.001 121.253 400.914 122.752ZM434.999 153.795L435.263 183.832L442.983 184.129L450.704 184.403V162.488H466.637V148.591H450.704V138.719L459.42 138.422L468.124 138.148L468.422 130.942L468.719 123.747H434.748L434.999 153.795ZM473.603 154.024V184.335H489.537V162.568L497.749 162.282L505.962 161.985V149.082L497.749 148.796L489.537 148.499V138.662H498.481C508.707 138.662 508.867 138.502 508.261 129.157L507.952 124.262L490.783 123.987L473.603 123.713V154.024ZM512.436 154.047V184.335H547.288V170.426H528.369V160.589L536.582 160.292L544.794 160.006V147.092L536.582 146.806L528.369 146.509V138.651H547.288V123.758H512.436V154.047ZM553.27 154.047V184.335H588.111V170.426H569.192V160.498H586.223L585.926 153.795L585.629 147.092L577.404 146.806L569.192 146.509V138.731L578.4 138.433L587.619 138.159L587.916 130.953L588.202 123.758H553.259L553.27 154.047ZM170.893 129.855C157.361 134.201 157.361 135.025 170.893 134.179C177.206 133.778 182.685 133.263 183.097 133.035C183.703 132.657 181.301 126.652 180.581 126.778C180.466 126.801 176.097 128.196 170.904 129.866M273.584 129.352C272.921 130.793 272.612 132.188 272.898 132.474C273.733 133.309 297.467 135.311 297.913 134.59C298.142 134.213 297.101 133.446 295.603 132.897C290.559 130.976 276.947 126.744 275.86 126.744C275.266 126.744 274.248 127.91 273.584 129.352ZM401.463 139.017C398.672 141.796 397.276 151.359 398.34 160.326C399.221 167.852 401.028 170.426 405.398 170.426C408.188 170.426 409.115 169.877 410.362 167.475C414.045 160.36 413.427 143.112 409.332 139.028C406.358 136.054 404.425 136.054 401.463 139.017ZM179.86 147.252C175.216 150.832 170.538 154.367 169.463 155.11C168.399 155.865 167.781 156.723 168.09 157.032C168.399 157.341 174.381 154.893 181.381 151.587L194.135 145.582L191.801 143.1C190.52 141.751 189.216 140.675 188.908 140.698C188.599 140.721 184.515 143.672 179.86 147.252ZM265.658 142.746C264.926 143.889 264.708 145.216 265.154 145.662C266.756 147.229 289.403 157.444 289.403 156.586C289.403 155.408 269.775 140.641 268.22 140.641C267.533 140.641 266.39 141.59 265.658 142.746ZM255.535 152.537L253.053 154.458L262.981 164.432C268.471 169.923 273.275 174.395 273.71 174.395C274.145 174.395 270.896 169.042 266.493 162.488C262.089 155.934 258.383 150.581 258.257 150.592C258.131 150.604 256.907 151.484 255.535 152.537ZM191.024 162.728C187.158 168.882 184.229 174.109 184.481 174.384C184.733 174.658 189.285 170.472 194.581 165.119L204.212 155.396L201.741 153.498C200.38 152.457 198.996 151.599 198.653 151.587C198.31 151.576 194.878 156.586 191.012 162.728M210.343 161.321C209.313 162.98 204.601 185.49 205.15 186.051C205.47 186.371 208.192 181.532 211.178 175.299L216.634 163.975L214.563 162.236C212.299 160.326 211.121 160.063 210.343 161.321ZM243.09 161.664C242.329 162.078 241.578 162.509 240.837 162.957C240.265 163.414 251.612 186.314 252.412 186.314C252.893 186.314 252.012 180.846 250.445 174.155C249.403 169.87 248.449 165.565 247.585 161.241C247.562 160.177 245.412 160.372 243.09 161.664ZM226.036 173.652C227.1 185.341 227.866 190.283 228.621 190.283C229.319 190.283 231.641 173.926 231.641 169.008C231.641 166.812 231.206 166.457 228.518 166.457H225.372L226.036 173.652ZM564.72 179.371C565.051 179.908 565.52 180.354 565.772 180.354C566.024 180.354 566.207 179.908 566.207 179.359C566.207 178.81 565.726 178.376 565.154 178.376C564.582 178.376 564.376 178.822 564.708 179.359M417.122 222.767C415.921 222.996 413.793 224.517 412.398 226.164C409.458 229.653 408.966 236.298 411.323 240.839C413.095 244.236 417.808 246.352 421.56 245.437C424.739 244.637 428.8 241.182 428.8 239.261C428.8 237.465 424.351 237.602 422.818 239.432C421.331 241.217 417.705 241.377 416.046 239.73C414.502 238.186 414.502 229.767 416.046 228.212C417.888 226.381 421.674 226.805 423.047 229.012C423.733 230.099 425.334 230.991 426.615 230.991C431.557 230.991 427.073 224.025 421.331 222.778C419.938 222.538 418.515 222.534 417.122 222.767ZM437.825 223.43C434.062 224.689 430.79 229.721 430.79 234.251C430.79 240.05 436.132 245.895 441.439 245.883C445.191 245.883 449.56 242.132 450.693 237.991C451.894 233.519 450.716 227.102 448.302 225.112C445.74 222.996 441.29 222.275 437.825 223.43ZM454.685 233.976V244.9H457.121C459.397 244.9 459.58 244.499 459.866 239.181L460.163 233.473L462.279 238.941C465.265 246.604 467.816 246.879 470.149 239.741C472.665 231.998 473.603 231.735 473.603 238.735C473.603 244.111 473.832 244.9 475.479 244.9C477.87 244.9 478.556 242.315 478.567 233.313C478.579 224.345 478.087 223.053 474.564 223.053C472.505 223.053 471.567 223.659 471.053 225.283C470.21 227.828 469.317 230.357 468.376 232.867L466.386 238.208L463.389 230.625C460.621 223.648 460.152 223.053 457.533 223.053H454.685V233.976ZM481.999 224.368C481.724 225.089 481.621 229.893 481.77 235.04C482.045 243.802 482.205 244.419 484.241 244.705C486.048 244.968 486.471 244.477 486.723 241.731C487.02 238.769 487.398 238.414 490.532 238.128C498.024 237.431 501.329 229.39 495.873 225.112C492.751 222.664 482.857 222.138 481.999 224.368ZM502.176 233.393C500.151 239.066 498.493 243.985 498.493 244.305C498.493 244.625 499.568 244.9 500.895 244.9C502.576 244.9 503.434 244.202 503.88 242.418C504.406 240.313 505.081 239.936 508.318 239.936C511.406 239.936 512.321 240.393 513.248 242.418C514.277 244.671 518.395 246.044 518.418 244.156C518.418 243.745 516.794 238.826 514.803 233.233C511.429 223.762 510.995 223.053 508.513 223.053C506.042 223.053 505.607 223.774 502.176 233.393ZM521.392 233.976V244.9H523.84C526.139 244.9 526.299 244.534 526.585 238.689L526.871 232.489L531.149 238.689C533.94 242.749 536.09 244.9 537.371 244.9C538.446 244.9 539.338 244.339 539.373 243.653L539.83 234.468C540.322 225.158 539.864 223.053 537.314 223.053C535.678 223.053 535.392 223.945 535.141 229.756L534.843 236.458L530.382 229.756C527.065 224.757 525.327 223.053 523.657 223.053C521.449 223.053 521.392 223.282 521.392 233.976ZM542.312 223.499C542.312 223.728 543.868 226.61 545.789 229.859C548.397 234.32 549.278 236.95 549.278 240.347C549.278 244.534 549.484 244.9 551.772 244.9C554.013 244.9 554.254 244.499 554.254 240.839C554.254 238.048 555.352 234.834 557.742 230.568C559.652 227.136 561.231 224.048 561.231 223.705C561.231 223.362 560.11 223.053 558.76 223.053C556.873 223.053 555.798 224.002 554.254 227.022C553.144 229.207 552.012 230.991 551.772 230.991C551.531 230.991 550.399 229.207 549.278 227.022C547.734 224.002 546.659 223.053 544.783 223.053C543.422 223.053 542.312 223.247 542.312 223.499ZM437.31 229.218C434.142 233.748 436.555 240.919 441.245 240.919C444.059 240.919 446.724 237.545 446.724 233.976C446.724 230.408 444.059 227.022 441.233 227.022C440.462 227.093 439.715 227.327 439.041 227.707C438.367 228.088 437.781 228.607 437.321 229.23M487.203 227.685C486.849 228.051 486.551 229.641 486.551 231.231C486.551 233.873 486.803 234.068 489.788 233.782C492.328 233.553 493.094 232.981 493.357 231.105C493.814 227.926 489.399 225.501 487.203 227.685ZM507.071 232.569C506.053 235.189 506.374 235.955 508.444 235.955C509.553 235.955 510.446 235.555 510.446 235.04C510.446 233.416 509.256 230.991 508.455 230.991C508.021 230.991 507.414 231.7 507.071 232.569Z" fill="black"/>
</svg>
