<svg width="750" height="275" viewBox="0 0 750 275" fill="none" xmlns="http://www.w3.org/2000/svg">
<path fill-rule="evenodd" clip-rule="evenodd" d="M160 67.2963C160 81.392 160.72 83.5914 167.308 89.6595L171.267 93.2984L181.523 93.3384C187.152 93.3684 196.749 93.3384 202.857 93.2984L213.954 93.2084V220H253.122L253.092 197.217C253.092 184.691 252.522 156.479 251.852 134.536C250.902 103.895 250.862 94.468 251.652 93.9582C252.222 93.5883 264.738 93.3284 279.464 93.3784C300.557 93.4384 306.496 93.7083 307.405 94.618C308.045 95.2578 316.363 104.475 325.88 115.112C335.397 125.749 346.024 137.535 349.503 141.324L355.801 148.202V220H395.839V147.902L409.114 133.366C417.37 124.308 425.568 115.197 433.707 106.035L445.004 93.2384L491.57 93.4884L538.135 93.7383L542.484 95.9076C555.55 102.416 552.611 123.889 538.075 128.068C534.676 129.038 526.379 129.298 498.747 129.308C479.483 129.308 463.728 129.627 463.728 130.007C463.728 130.387 468.906 136.435 475.254 143.453C481.603 150.471 499.247 170.565 514.483 188.11L542.164 220H590.06L587.46 216.741C586.051 214.952 574.414 201.446 561.638 186.75C548.862 172.055 538.555 159.838 538.755 159.638C538.955 159.438 542.424 158.649 546.453 157.909C564.687 154.49 577.064 143.973 583.182 126.718C584.761 122.25 585.031 119.46 585.081 107.184C585.131 91.189 584.461 87.5901 579.693 78.3729C576.044 71.3051 569.516 64.937 562.098 61.2081C551.271 55.7598 550.862 55.7198 488.061 55.3499L431.008 55L426.269 60.4783C417.081 70.8379 407.837 81.1482 398.538 91.409L375.565 116.861L373.645 114.842C370.646 111.693 329.779 65.6768 325.03 60.0885L320.791 55.12H160V67.2963Z" fill="black"/>
</svg>
