<svg width="750" height="275" viewBox="0 0 750 275" fill="none" xmlns="http://www.w3.org/2000/svg">
<path fill-rule="evenodd" clip-rule="evenodd" d="M137.356 39.86C136.851 41.151 131.276 57.9219 124.95 77.1106L113.449 112.002H72.7245C49.839 112.002 32 112.401 32 112.906C32 113.411 35.7908 116.544 40.4266 119.877L73.0766 143.443L97.2883 160.93L95.7626 165.249C92.6407 173.946 72.877 235.572 72.877 236.535C72.877 237.837 73.2526 237.591 108.25 213.203C124.61 201.819 138.482 192.489 139.046 192.489C139.609 192.489 146.439 196.972 154.232 202.464C188.666 226.711 204.698 237.638 205.108 237.157C205.296 236.957 199.804 219.717 192.926 198.85L180.404 160.872L186.659 156.341C190.098 153.853 204.404 143.502 218.464 133.374L244.002 114.924L244.507 154.992C244.953 190.423 245.223 195.411 246.783 198.251C249.084 202.429 253.015 205.469 257.815 206.76C260.362 207.441 335.908 207.699 482.704 207.523C697.792 207.265 703.848 207.206 707.674 205.316C710.31 203.822 712.579 201.761 714.317 199.284L717.028 195.176L717.333 153.102C717.544 124.102 717.263 109.678 716.465 106.733C715.009 101.311 709.928 96.2171 704.564 94.7618C701.583 93.9754 637.351 93.729 478.843 93.9168C268.718 94.1632 257.1 94.2688 253.954 95.9941C249.882 98.2005 245.974 104.045 245.07 109.279C244.554 112.213 244.002 113.058 242.817 112.601C241.972 112.272 223.957 111.99 202.796 111.979L164.302 111.955L152.155 75.2797C145.489 55.1053 139.621 38.3578 139.128 38.0644C138.658 37.7592 137.837 38.569 137.356 39.86ZM132.25 75.5849L122.005 106.92L118.167 118.621L84.8245 119.138L51.4703 119.642L78.5221 139.312C101.009 155.684 105.421 159.287 104.659 160.707C103.461 162.972 84.0264 221.266 84.355 221.571C84.5076 221.7 96.5841 213.403 111.184 203.133C125.784 192.864 138.236 184.426 138.811 184.391C139.398 184.367 151.814 192.747 166.391 203.016C180.967 213.285 193.044 221.407 193.184 221.066C193.325 220.726 188.854 206.748 183.232 190.024C177.611 173.3 172.986 159.299 172.986 158.923C172.986 158.548 185.028 149.546 199.745 138.948L226.503 119.642L193.149 119.384L159.795 119.103L149.491 87.5558C143.822 70.1863 139.069 55.9855 138.928 55.9855C138.787 55.9855 135.783 64.7994 132.25 75.5849ZM137.966 66.8414C137.684 67.3109 133.694 79.3639 129.105 93.6116C124.516 107.859 120.538 119.901 120.256 120.358C119.974 120.816 106.442 121.18 90.1761 121.18C73.9098 121.18 60.601 121.567 60.601 122.037C60.601 122.506 70.3068 129.959 82.1956 138.585C90.1471 144.34 98.0653 150.142 105.95 155.989L108.109 157.691L99.0252 185.036C95.8559 194.625 92.6519 204.201 89.4133 213.766C88.7795 215.48 123.953 191.796 137.79 181.175C138.424 180.706 144.28 184.168 152.108 189.66C181.214 210.14 187.809 214.694 188.056 214.471C188.208 214.342 184.183 201.901 179.124 186.832C174.066 171.763 169.923 158.935 169.923 158.325C169.923 157.715 175.322 153.349 181.929 148.619C188.537 143.889 199.44 135.909 206.2 130.862L218.452 121.696L187.962 121.18L157.46 120.675L148.775 94.1867C140.301 68.3202 139.034 65.1045 137.978 66.8414M706.735 105.888C706.735 107.218 707.076 107.554 707.756 106.897C708.406 106.224 708.406 105.551 707.756 104.878C707.083 104.237 706.743 104.573 706.735 105.888ZM252.687 108.939C252.687 109.21 252.794 109.47 252.986 109.661C253.177 109.853 253.437 109.96 253.708 109.96C253.979 109.96 254.238 109.853 254.43 109.661C254.621 109.47 254.729 109.21 254.729 108.939C254.729 108.668 254.621 108.409 254.43 108.217C254.238 108.026 253.979 107.918 253.708 107.918C253.437 107.918 253.177 108.026 252.986 108.217C252.794 108.409 252.687 108.668 252.687 108.939ZM704.341 111.58C704.4 112.765 704.635 113 704.951 112.19C705.268 111.462 705.221 110.582 704.869 110.254C704.517 109.925 704.306 110.512 704.341 111.58ZM272.098 146.084C272.098 164.756 272.486 175.929 273.202 177.502C275.596 182.736 279.433 183.828 295.594 183.828C308.445 183.828 310.839 183.558 313.668 181.856C319.289 178.464 319.606 176.516 319.606 145.38V117.096H305.805V143.995C305.805 167.573 305.605 170.953 304.197 171.505C301.239 172.619 287.884 172.162 286.593 170.894C285.712 170.002 285.372 162.468 285.372 143.385V117.096H272.098V146.084ZM356.082 118.633C351.505 120.617 349.745 125.264 349.745 135.24C349.745 145.051 351.094 149.3 354.874 151.236C356.446 152.058 362.713 154.147 368.804 155.907C384.026 160.285 383.615 159.98 383.252 166.317L382.946 171.598L373.91 171.892C363.347 172.244 361.739 171.446 362.197 166.082C362.502 162.515 362.42 162.421 358.512 162.104C356.38 161.92 354.234 162.015 352.127 162.386C349.897 162.937 349.745 163.477 349.745 170.131C349.745 176.328 350.062 177.619 352.174 179.732C355.906 183.452 362.056 184.626 375.283 184.121C393.978 183.428 396.736 180.835 396.736 163.911C396.736 155.109 396.584 154.487 393.873 151.788C392.241 150.145 388.462 148.197 384.953 147.164L371.198 143.173L363.535 140.967V129.829H382.946L383.252 134.172L383.568 138.491H396.736V132.857C396.736 125.628 394.647 120.71 390.751 118.704C386.526 116.532 361.058 116.474 356.082 118.633ZM455.488 130.088L446.568 160.39L440.641 180.518L439.796 183.323H453.809L455.452 177.689L457.095 172.056L469.548 172.338L482.023 172.619L483.455 177.971L484.887 183.323H491.964C498.219 183.323 498.982 183.112 498.512 181.539L491.682 158.36C488.597 147.941 485.604 137.496 482.704 127.024L480.028 117.096H459.337L455.488 130.088ZM507.138 150.203L507.185 183.323H521.386V161.071L524.32 160.426C530.658 159.041 531.96 160.238 537.206 172.185L542.077 183.323H549.612C553.743 183.323 557.135 183.112 557.135 182.865C557.135 182.619 554.611 177.267 551.501 170.976L545.868 159.534L549.424 156.6C553.884 152.95 555.092 148.76 555.092 136.965C555.092 126.05 553.332 121.555 547.945 118.891C544.929 117.389 541.432 117.096 525.729 117.096H507.103L507.138 150.203ZM567.357 150.168V183.323H579.621V162.726C579.621 150.802 579.997 142.551 580.513 143.126C581.018 143.643 584.351 152.926 587.918 163.735C594.103 182.431 594.549 183.382 596.885 183.1C599.115 182.83 599.995 180.976 605.898 163.946C609.49 153.583 612.858 144.664 613.398 144.136C613.996 143.526 614.348 150.673 614.348 163.242V183.311H627.634V117.084H609.407L607.178 124.56C605.231 130.953 603.209 137.322 601.11 143.666C596.591 157.304 597.589 158.219 589.902 133.385L585.02 117.6L576.182 117.295L567.357 117.002V150.168ZM635.814 118.011C635.814 118.927 648.583 143.361 654.298 153.384C657.115 158.36 657.267 159.193 657.267 170.965V183.323H670.377L670.729 170.331L671.081 157.339L678.85 143.584C682.618 136.939 686.276 130.233 689.823 123.468L693.051 117.096H678.146L671.574 130.346C667.947 137.622 664.72 143.584 664.391 143.584C664.063 143.584 660.835 137.622 657.232 130.346L650.648 117.096H643.231C639.135 117.096 635.814 117.506 635.814 118.011ZM521.386 139.007V148.678H529.813C534.448 148.654 538.732 148.314 539.366 147.903C540.915 146.847 542.007 133.62 540.727 131.238C539.835 129.583 538.462 129.325 530.54 129.325H521.386V139.007ZM467.189 135.686C466.027 140.013 464.822 144.328 463.574 148.631C459.853 161.576 459.584 161.036 469.536 160.696C477.293 160.414 477.939 160.226 477.657 158.348C476.988 153.889 469.864 131.355 469.137 131.355C468.691 131.355 467.811 133.292 467.189 135.686ZM328.279 176.809V183.323H340.544V170.12L334.417 170.202L328.279 170.296V176.809ZM403.884 176.621V183.311H417.169V170.589L410.526 170.272L403.884 169.944V176.621Z" fill="black"/>
</svg>
